<?xml version="1.0" encoding="UTF-8"?>
<svg width="792px" height="79px" viewBox="0 0 792 79" version="1.1" xmlns="http://www.w3.org/2000/svg" xmlns:xlink="http://www.w3.org/1999/xlink">
    <title>L</title>
    <g id="L" stroke="none" stroke-width="1" fill="none" fill-rule="evenodd">
        <line x1="-0.5" y1="65.5" x2="778.5" y2="65.5" id="Line" stroke="#80C7F5" stroke-linecap="square"></line>
        <line x1="12.5" y1="73.5" x2="791.5" y2="73.5" id="Line" stroke="#FA7554" stroke-linecap="square"></line>
        <path d="M74.5,71 L74.5,77 L48.5,77 L48.5,71 L74.5,71 Z M82.5,62 L82.5,68 L56.5,68 L56.5,62 L82.5,62 Z" id="Rectangle-2" fill="#FFFFFF"></path>
        <g id="Group" transform="translate(56.000000, 62.000000)" fill-rule="nonzero">
            <path d="M10.33,11.76 C10.33,11.65 10.36,11.54 10.36,11.43 C10.36,11.32 10.36,11.21 10.33,11.1 C7.62,10.5 6.16,9.04 5.56,6.33 C5.45,6.33 5.34,6.3 5.23,6.3 C5.12,6.3 5.01,6.3 4.9,6.33 C4.3,9.04 2.84,10.5 0.13,11.1 C0.13,11.21 0.1,11.32 0.1,11.43 C0.1,11.54 0.1,11.65 0.13,11.76 C2.84,12.36 4.3,13.82 4.9,16.53 C5.01,16.53 5.12,16.56 5.23,16.56 C5.34,16.56 5.45,16.56 5.56,16.53 C6.16,13.81 7.63,12.35 10.33,11.76 Z" id="Path" fill="#FA7554"></path>
            <path d="M15.47,3.44 C15.47,3.38 15.48,3.32 15.48,3.27 C15.48,3.21 15.48,3.15 15.47,3.1 C14.03,2.78 13.25,2.01 12.94,0.57 C12.88,0.57 12.82,0.56 12.77,0.56 C12.71,0.56 12.65,0.56 12.6,0.57 C12.28,2.01 11.51,2.79 10.07,3.1 C10.07,3.16 10.06,3.22 10.06,3.27 C10.06,3.32 10.06,3.39 10.07,3.44 C11.51,3.76 12.29,4.53 12.6,5.97 C12.66,5.97 12.72,5.98 12.77,5.98 C12.83,5.98 12.89,5.98 12.94,5.97 C13.25,4.54 14.03,3.76 15.47,3.44 Z" id="Path" fill="#80C7F5"></path>
        </g>
        <g id="Group" transform="translate(681.000000, 7.000000)" fill-rule="nonzero">
            <rect id="Rectangle" fill="#871FFF" x="13" y="49" width="20" height="3"></rect>
            <path d="M78.3703478,31 L57.2687166,31 C56.3365912,31 55.7229811,30.0121698 56.1258091,29.1573167 L62.4867448,15.7266251 C62.6975269,15.2802018 63.1425114,15 63.6296522,15 L84.7312834,15 C85.6634088,15 86.2770189,15.9878302 85.8741909,16.8426833 L79.5132552,30.2733749 C79.3024731,30.715049 78.8574886,31 78.3703478,31 Z" id="Path" fill="#B3DDF9"></path>
            <path d="M80.3703478,31 L59.2687166,31 C58.3365912,31 57.7229811,30.0121698 58.1258091,29.1573167 L64.4867448,15.7266251 C64.6975269,15.2802018 65.1425114,15 65.6296522,15 L86.7312834,15 C87.6634088,15 88.2770189,15.9878302 87.8741909,16.8426833 L81.5132552,30.2733749 C81.3024731,30.715049 80.8574886,31 80.3703478,31 Z" id="Path" fill="#80C7F5"></path>
            <path d="M56,25.9924021 C56,22.6834502 53.3554827,20 50.0945387,20 C49.1251961,20 48.2170255,20.2387411 47.4076715,20.6541507 L47.4076715,20.6541507 C47.3982604,20.6589255 47.3935548,20.6637003 47.3841437,20.6684751 C47.2429773,20.7400975 47.111222,20.8212695 46.9794667,20.9024414 C38.2318551,25.8300581 32.9004706,21.7428102 32.9004706,21.7428102 L23,21.747585 C27.0232425,37.9151336 51.0074148,31.908407 51.0074148,31.908407 L51.0074148,31.908407 C53.8354485,31.4643486 56,28.9862157 56,25.9924021 Z" id="Path" fill="#000000"></path>
            <path d="M60.9886281,33 L43.0113719,33 C42.4548754,33 42,32.5502392 42,32 L42,32 C42,31.4497608 42.4548754,31 43.0113719,31 L60.9886281,31 C61.5451246,31 62,31.4497608 62,32 L62,32 C62,32.5502392 61.5451246,33 60.9886281,33 Z" id="Path" fill="#80C7F5"></path>
            <path d="M36.0921389,20.5058755 C35.2603291,10.5031013 30.3978062,7.66748281 30.3978062,7.66748281 L27.2416819,7 C27.2416819,7 24.8888483,7.10888017 20.9009141,10.6687885 C16.6943327,14.4227875 11.4515539,22.0207301 11,36 L37,36 C37,36.0047317 36.76234,28.6008798 36.0921389,20.5058755 Z" id="Path" fill="#FFFFFF"></path>
            <polygon id="Path" fill="#D7219C" points="83.0319303 17 82.3875181 17.969651 81 18.1062215 81.9811321 18.8846737 81.7198839 19.9590288 82.9680697 19.4673748 84.1930334 20 83.9840348 18.9165402 85 18.1654021 83.6240929 17.9878604"></polygon>
            <polygon id="Rectangle" fill="#FA7554" transform="translate(64.099255, 27.615384) rotate(5.141048) translate(-64.099255, -27.615384) " points="60.7532655 26.3553442 67.4453398 26.355094 67.4452455 28.8754239 60.7531712 28.8756741"></polygon>
            <circle id="Oval" fill="#871FFF" cx="66" cy="27" r="1"></circle>
            <path d="M65.813511,59.7433679 L64.5121047,59.7433679 L56.7879303,41.3893204 C55.383535,38.0578056 52.1112938,35.9218556 48.5254044,36.00219 L37,36.00219 L48.8905472,66 L49.1714263,66 L64.3201707,66 L65.8977747,66 C67.6579502,66 69.0763895,64.5161764 68.9968071,62.7204663 C68.9172247,61.0381694 67.4847415,59.7433679 65.813511,59.7433679 Z" id="Path" fill="#FFA68C"></path>
            <path d="M52.7925009,59.7391715 L51.4805863,59.7391715 L43.6940431,41.3866751 C42.4765109,38.523232 39.8668392,36.5481178 36.8607616,36.0992282 L36.8135704,36 L11,36 L11,38.3862026 C11,44.4816507 15.9361965,49.4241613 22.0238575,49.4241613 L29.1072522,49.4241613 L35.7281735,66 L36.0113205,66 L51.2823834,66 L52.8727258,66 C54.6471139,66 56.0770063,64.5163018 55.9967813,62.7207434 C55.9212755,61.0338636 54.4725065,59.7391715 52.7925009,59.7391715 Z" id="Path" fill="#FFB8A3"></path>
            <rect id="Rectangle" fill="#871FFF" x="41" y="33" width="43" height="3"></rect>
            <path d="M80.0212857,33 L59.9787143,33 C59.4401873,33 59,32.5502392 59,32 L59,32 C59,31.4497608 59.4401873,31 59.9787143,31 L80.0212857,31 C80.5598127,31 81,31.4497608 81,32 L81,32 C81,32.5502392 80.5644955,33 80.0212857,33 Z" id="Path" fill="#B3DDF9"></path>
            <g transform="translate(76.000000, 18.000000)">
                <path d="M1.9934497,2.52182819 C1.60459292,2.52182819 1.29171965,2.19248496 1.29171965,1.78315837 L1.29171965,0.748079631 C1.29171965,0.338753041 1.60459292,0.00940980668 1.9934497,0.00940980668 C2.38230648,0.00940980668 2.69517975,0.338753041 2.69517975,0.748079631 L2.69517975,1.78315837 C2.69517975,2.19248496 2.37783686,2.52182819 1.9934497,2.52182819 Z M1.9934497,0.244654974 C1.72974223,0.244654974 1.51520055,0.470490334 1.51520055,0.748079631 L1.51520055,1.78315837 C1.51520055,2.06074766 1.72974223,2.28658302 1.9934497,2.28658302 C2.25715717,2.28658302 2.47169884,2.06074766 2.47169884,1.78315837 L2.47169884,0.748079631 C2.47169884,0.470490334 2.25715717,0.244654974 1.9934497,0.244654974 Z" id="Shape" fill="#FFFFFF"></path>
                <path d="M2.89184295,14.9804122 L1.09058683,14.9804122 C0.500597233,14.9804122 0.0268177089,14.4769876 0.0268177089,13.8606452 L0.0268177089,3.97564332 C0.0268177089,3.54279222 0.263707471,3.14758034 0.634685778,2.96408911 L1.53307903,2.51712329 C1.81913459,2.37597619 2.15435595,2.37597619 2.44041151,2.51712329 L3.33880476,2.96408911 C3.70978307,3.14758034 3.94667283,3.54279222 3.94667283,3.97564332 L3.94667283,13.8606452 C3.95561207,14.4769876 3.47736293,14.9804122 2.89184295,14.9804122 Z" id="Path" fill="#FA7554"></path>
                <path d="M2.89184295,2.73354884 L1.07270836,2.73354884 C1.01460332,2.73354884 0.965437522,2.6817949 0.965437522,2.62063116 L0.965437522,1.64671617 C0.965437522,1.58555243 1.01460332,1.53379849 1.07270836,1.53379849 L2.89184295,1.53379849 C2.94994798,1.53379849 2.99911378,1.58555243 2.99911378,1.64671617 L2.99911378,2.62063116 C2.99911378,2.6817949 2.9544176,2.73354884 2.89184295,2.73354884 Z" id="Path" fill="#871FFF"></path>
            </g>
            <path d="M74.4874253,28 L71.0809801,28 C70.7982143,28 70.568467,28.2150538 70.568467,28.4797353 L70.568467,28.9636063 L69.896898,28.9636063 C69.4020577,28.9636063 69,29.3399504 69,29.8031431 L69,31.1679074 C69,31.6311001 69.4020577,32.0074442 69.896898,32.0074442 L70.568467,32.0074442 L70.568467,32.5202647 C70.568467,32.7849462 70.7982143,33 71.0809801,33 L74.4874253,33 C74.7701912,33 74.9999385,32.7849462 74.9999385,32.5202647 L74.9999385,28.483871 C75.0043567,28.2150538 74.7701912,28 74.4874253,28 Z M69.8924798,31.3912324 C69.7599333,31.3912324 69.6538961,31.2919768 69.6538961,31.1679074 L69.6538961,29.8031431 C69.6538961,29.6790736 69.7599333,29.579818 69.8924798,29.579818 L70.5640488,29.579818 L70.5640488,31.3912324 L69.8924798,31.3912324 Z" id="Shape" fill="#D7219C"></path>
            <path d="M33.9530846,1.61388741 C33.6061872,1.19859098 33.2006591,0.866353841 32.7609299,0.607404304 C32.4189183,0.411970691 32.0573632,0.275167162 31.6860363,0.157906994 C30.474338,-0.213416871 28.84734,0.0650760278 27.6112123,1.04712993 C26.8245856,1.66763165 26.3408835,2.53731123 26.1259048,3.44119169 C25.8034367,4.77991194 26.0965895,6.25054988 27.0493361,7.38895067 C27.9825392,8.50292227 29.335928,9.05013638 30.679545,8.99639214 C31.6420634,8.95730542 32.59481,8.61529659 33.3912084,7.95082231 C35.2918158,6.35803836 35.5458815,3.51936514 33.9530846,1.61388741 Z" id="Path" fill="#000000"></path>
            <path d="M34.0385656,4 C33.6312585,4 33.2807848,4.38021638 33.1339648,4.92735703 L32.740866,4.92735703 C32.594046,4.38485317 32.2435724,4 31.8362652,4 C31.4289581,4 31.0784844,4.38021638 30.9316644,4.92735703 L28,4.92735703 L28,5.38639876 L30.8606225,5.38639876 C30.8606225,5.42349304 30.8558863,5.46058733 30.8558863,5.50231839 C30.8558863,6.33230294 31.2916103,7 31.8315291,7 C32.3714479,7 32.8071719,6.32766615 32.8071719,5.50231839 C32.8071719,5.46522411 32.8071719,5.42812983 32.8024357,5.38639876 L33.0534506,5.38639876 C33.0534506,5.42349304 33.0487145,5.46058733 33.0487145,5.50231839 C33.0487145,6.33230294 33.4844384,7 34.0243572,7 C34.564276,7 35,6.32766615 35,5.50231839 C35,4.67697063 34.5737483,4 34.0385656,4 Z" id="Path" fill="#80C7F5"></path>
            <g transform="translate(0.000000, 37.000000)">
                <path d="M5.6425227,21.651332 C2.5355336,21.651332 0.00480214698,18.1204559 0.00480214698,13.7798323 C0.00480214698,9.43920866 2.53073146,5.90833261 5.6425227,5.90833261 C8.74951179,5.90833261 11.2802432,9.43920866 11.2802432,13.7798323 C11.2802432,18.1204559 8.74951179,21.651332 5.6425227,21.651332 Z M5.6425227,7.07587562 C3.18862559,7.07587562 1.1957346,10.084182 1.1957346,13.7798323 C1.1957346,17.4754826 3.18862559,20.483789 5.6425227,20.483789 C8.0964198,20.483789 10.0893108,17.4754826 10.0893108,13.7798323 C10.0893108,10.084182 8.0964198,7.07587562 5.6425227,7.07587562 Z" id="Shape" fill="#871FFF"></path>
                <g transform="translate(4.033803, 0.000000)">
                    <path d="M21.9314052,16.835217 L21.9314052,16.835217 C21.7633301,12.0708883 18.9876891,7.26889685 15.7030206,3.2107433 L0.192085879,3.2107433 C2.99653971,9.38742248 4.68689545,15.8559874 5.18151659,17.8803564 C5.21513162,18.0969168 5.26795523,18.3134772 5.33518529,18.5253297 C5.33518529,18.5253297 5.33518529,18.5253297 5.33518529,18.5253297 L5.33518529,18.5253297 C5.67613773,19.6081317 6.41086621,20.5779457 7.48174499,21.2182112 C8.25489065,21.6748712 9.10006852,21.9008472 9.93564209,21.9149707 L9.93564209,21.9149707 L17.2589162,21.9149707 L18.5554959,21.9149707 C20.1498087,21.8914316 20.3899161,21.1005153 21.268709,19.6787492 C21.8209559,18.7936763 22.0274482,17.8003232 21.9314052,16.835217 Z" id="Path" fill="#80C7F5"></path>
                    <g id="Path">
                        <path d="M17.5854622,0.0564940169 L17.5854622,0.0564940169 L17.5854622,0.0564940169 L2.79965169,0.0564940169 C1.22934963,0.18831339 1.09188181e-14,1.47355228 1.09188181e-14,3.04596908 C1.09188181e-14,4.61838589 1.22934963,5.90362477 2.79965169,6.03544414 L17.5854622,6.03544414 L17.5854622,6.03544414 L17.5854622,6.03544414 C19.2710158,6.03544414 20.6348256,4.69841908 20.6348256,3.04596908 C20.6348256,1.39822692 19.2710158,0.0564940169 17.5854622,0.0564940169 Z" fill="#D7219C"></path>
                        <path d="M8.21647348,6.04956765 L8.21647348,6.04956765 C10.4206589,4.63250939 10.4206589,1.46413661 8.21647348,0.0423705127 C7.69303946,0.0423705127 7.16960544,0.0423705127 6.65097356,0.0423705127 C8.85515902,1.45942877 8.85515902,4.62780155 6.65097356,6.04956765 L9.0568492,11.2752642 L10.6271513,11.2752642 L8.21647348,6.04956765 Z" fill="#FFFFFF"></path>
                        <path d="M16.2264546,6.04956765 L16.2264546,6.04956765 C18.4306401,4.63250939 18.4306401,1.46413661 16.2264546,0.0423705127 C15.7030206,0.0423705127 15.1795866,0.0423705127 14.6609547,0.0423705127 C16.8651402,1.45942877 16.8651402,4.62780155 14.6609547,6.04956765 L17.0668304,11.2752642 L18.6371324,11.2752642 L16.2264546,6.04956765 Z" fill="#FFFFFF"></path>
                    </g>
                    <ellipse id="Oval" fill="#80C7F5" cx="3.06376977" cy="3.05067692" rx="1.88244161" ry="1.84547122"></ellipse>
                    <ellipse id="Oval" fill="#871FFF" cx="7.99557472" cy="7.10883047" rx="1" ry="1"></ellipse>
                    <ellipse id="Oval" fill="#871FFF" cx="8.66307315" cy="8.68595511" rx="1" ry="1"></ellipse>
                    <ellipse id="Oval" fill="#871FFF" cx="9.38819734" cy="10.2583719" rx="1" ry="1"></ellipse>
                    <ellipse id="Oval" fill="#871FFF" cx="15.9671387" cy="7.10883047" rx="1" ry="1"></ellipse>
                    <ellipse id="Oval" fill="#871FFF" cx="16.6442414" cy="8.68595511" rx="1" ry="1"></ellipse>
                    <ellipse id="Oval" fill="#871FFF" cx="17.3981785" cy="10.2583719" rx="1" ry="1"></ellipse>
                </g>
            </g>
            <g transform="translate(65.000000, 16.000000)">
                <ellipse id="Oval" fill="#FFFFFF" cx="1.99423845" cy="2.38610225" rx="1.98345879" ry="1.58610225"></ellipse>
                <path d="M2.40386581,3.37741616 C2.20444197,3.42913689 1.99423845,3.44206707 1.77864511,3.41620671 C1.43369575,3.36879604 1.1372549,3.21794393 0.937831057,2.99382078 C0.738407211,2.76538758 0.657559706,2.49385377 0.716847877,2.2180099 L0.980949726,2.25249038 C0.932441223,2.4679934 0.997119227,2.68780649 1.15881424,2.86882903 C1.32050925,3.04985157 1.55766193,3.1662232 1.82715361,3.20501374 C2.09664529,3.24380429 2.37152681,3.19208356 2.59789982,3.06278175 C2.82427284,2.93347993 2.96979835,2.74383727 3.01830685,2.52833425 L3.2824087,2.56281473 C3.22312053,2.8386586 3.03447635,3.07571193 2.754205,3.23518417 C2.64101849,3.29552501 2.52244215,3.34293568 2.40386581,3.37741616 Z" id="Path" fill="#871FFF"></path>
                <g transform="translate(0.239662, 0.689610)" fill="#871FFF" id="Oval">
                    <circle transform="translate(1.343540, 1.242216) rotate(-80.392623) translate(-1.343540, -1.242216) " cx="1.34353991" cy="1.24221565" r="1"></circle>
                    <circle transform="translate(2.325523, 1.375219) rotate(-80.392623) translate(-2.325523, -1.375219) " cx="2.32552341" cy="1.37521938" r="1"></circle>
                </g>
            </g>
            <path d="M35.5995322,40.9136191 C37.6979784,38.4140378 37.404196,34.6575513 34.9466822,32.523184 C34.2192208,31.8923598 33.3798423,31.4749725 32.5078213,31.2615357 L32.5078213,31.2615357 C32.4984949,31.2615357 32.4891685,31.2567927 32.4798421,31.2567927 C32.3306192,31.2188484 32.1767332,31.1903901 32.0228471,31.1666749 C22.3047093,29.1651127 20.8777658,22.5865183 20.8777658,22.5865183 L15.5896813,18 C8.37102612,32.8457106 28.0777681,42.1183509 28.0777681,42.1183509 L28.0777681,42.1183509 C30.4979761,43.6313802 33.7016041,43.1760485 35.5995322,40.9136191 Z" id="Path" fill="#000000"></path>
            <path d="M26.9548774,6.99828957 C27.8553413,6.96340992 28.7466634,6.65821302 29.4917172,6.06525903 C31.0778135,4.80087184 31.4389132,2.65577359 30.4516026,1.00335034 C29.4825755,0.964110735 28.3901345,1.26930764 27.5079542,1.93202092 C26.7720421,2.48573531 26.3195247,3.26180744 26.1184059,4.06839927 C25.8715782,5.04066941 26.0087047,6.08705881 26.5480688,6.98956966 C26.6806244,6.99828957 26.8177509,7.00264952 26.9548774,6.99828957 Z" id="Path" fill="#D7219C"></path>
            <g transform="translate(22.000000, 3.000000)" id="Path">
                <path d="M13.1851501,0.519003115 C12.6124803,0.437590862 11.9436019,0.371443406 11.2105845,0.325649013 C10.6470774,0.290031153 10.0423381,0.264589823 9.43301738,0.239148494 C7.43096367,0.167912773 4.74170616,0.228971963 2.69383886,0.432502596 C1.39273302,0.559709242 0.595576619,0.73271028 0.233649289,0.910799585 C-0.29778831,1.17538941 0.187835703,1.46542056 1.76382306,1.68930426 C3.30315956,1.90809969 5.54344392,2.00986501 7.7699842,1.99460021 C9.35971564,1.98442368 10.9402844,1.91318795 12.2551343,1.77580478 C15.407109,1.45524403 15.8240126,0.890446521 13.1851501,0.519003115 Z" fill="#FA7554"></path>
                <path d="M4.11864139,0.0356178609 C3.97661927,0.24423676 3.84834123,0.463032191 3.74296998,0.692004154 C3.67424961,0.839563863 3.61011058,0.987123572 3.55513428,1.14485981 C4.87456556,1.33312565 6.42764613,1.42471443 7.97156398,1.40436137 C9.1535545,1.38909657 10.335545,1.31786085 11.3984202,1.18047767 C11.3617694,1.07362409 11.3251185,0.966770509 11.2793049,0.865005192 C11.1510269,0.569885774 10.9952607,0.300207684 10.8257504,0.0457943925 C9.89115324,0.147559709 8.8878357,0.203530633 7.87993681,0.213707165 C6.58341232,0.223883697 5.28230648,0.167912773 4.11864139,0.0356178609 Z" fill="#FFA68C"></path>
            </g>
            <path d="M33.5887978,1.45731971 C33.3162568,1.22613018 33.0006831,1.0362245 32.6803279,0.866960736 C32.159153,0.594487362 31.5088798,0.429351984 30.8107923,0.392196524 L30.8107923,0.301372065 C30.8107923,0.136236687 30.6530055,0 30.4617486,0 C30.2704918,0 30.1127049,0.136236687 30.1127049,0.301372065 L30.1127049,0.400453292 C29.6058743,0.441737137 29.0894809,0.549075133 28.5969945,0.738980818 C27.9371585,0.99081227 27.4064208,1.38713718 27,1.85364462 C28.2144809,1.96098262 29.5724044,2.01052323 30.9255464,1.99813808 C31.977459,1.98988131 33.0245902,1.94446908 34,1.86190139 C33.8756831,1.71740793 33.7370219,1.58117125 33.5887978,1.45731971 Z" id="Path" fill="#FA7554"></path>
        </g>
    </g>
</svg>