<?xml version="1.0" encoding="UTF-8"?>
<svg width="792px" height="83px" viewBox="0 0 792 83" version="1.1" xmlns="http://www.w3.org/2000/svg" xmlns:xlink="http://www.w3.org/1999/xlink">
    <title>Artboard Copy 4</title>
    <defs>
        <linearGradient x1="0.0127202755%" y1="49.9935593%" x2="99.9991088%" y2="49.9935593%" id="linearGradient-1">
            <stop stop-color="#99D2F7" offset="1.882854%"></stop>
            <stop stop-color="#95D0F7" offset="12.57%"></stop>
            <stop stop-color="#85C9F5" offset="61.28%"></stop>
            <stop stop-color="#80C7F5" offset="100%"></stop>
        </linearGradient>
        <linearGradient x1="50.0010548%" y1="-0.00852696186%" x2="50.0010548%" y2="100.019553%" id="linearGradient-2">
            <stop stop-color="#80C7F5" offset="0%"></stop>
            <stop stop-color="#8CCCF6" offset="30.92%"></stop>
            <stop stop-color="#ACDAF8" offset="86.62%"></stop>
            <stop stop-color="#B3DDF9" offset="97.74%"></stop>
        </linearGradient>
    </defs>
    <g id="Artboard-Copy-4" stroke="none" stroke-width="1" fill="none" fill-rule="evenodd">
        <g id="line-pink-purple" transform="translate(0.000000, 66.000000)">
            <line x1="0.5" y1="11.5" x2="779.5" y2="11.5" id="Line" stroke="#6F54A3" stroke-linecap="square"></line>
            <line x1="12.5" y1="3.5" x2="791.5" y2="3.5" id="Line" stroke="#D03293" stroke-linecap="square"></line>
            <path d="M726.5,9 L726.5,15 L700.5,15 L700.5,9 L726.5,9 Z M734.5,0 L734.5,6 L708.5,6 L708.5,0 L734.5,0 Z" id="Rectangle-2" fill="#FFFFFF" fill-rule="nonzero"></path>
            <g id="Group" transform="translate(708.000000, 0.000000)" fill-rule="nonzero">
                <path d="M10.33,11.76 C10.33,11.65 10.36,11.54 10.36,11.43 C10.36,11.32 10.36,11.21 10.33,11.1 C7.62,10.5 6.16,9.04 5.56,6.33 C5.45,6.33 5.34,6.3 5.23,6.3 C5.12,6.3 5.01,6.3 4.9,6.33 C4.3,9.04 2.84,10.5 0.13,11.1 C0.13,11.21 0.1,11.32 0.1,11.43 C0.1,11.54 0.1,11.65 0.13,11.76 C2.84,12.36 4.3,13.82 4.9,16.53 C5.01,16.53 5.12,16.56 5.23,16.56 C5.34,16.56 5.45,16.56 5.56,16.53 C6.16,13.81 7.63,12.35 10.33,11.76 Z" id="Path" fill="#6F54A3"></path>
                <path d="M15.47,3.44 C15.47,3.38 15.48,3.32 15.48,3.27 C15.48,3.21 15.48,3.15 15.47,3.1 C14.03,2.78 13.25,2.01 12.94,0.57 C12.88,0.57 12.82,0.56 12.77,0.56 C12.71,0.56 12.65,0.56 12.6,0.57 C12.28,2.01 11.51,2.79 10.07,3.1 C10.07,3.16 10.06,3.22 10.06,3.27 C10.06,3.32 10.06,3.39 10.07,3.44 C11.51,3.76 12.29,4.53 12.6,5.97 C12.66,5.97 12.72,5.98 12.77,5.98 C12.83,5.98 12.89,5.98 12.94,5.97 C13.25,4.54 14.03,3.76 15.47,3.44 Z" id="Path" fill="#D03293"></path>
            </g>
        </g>
        <g id="Group" transform="translate(61.500000, 34.500000) scale(-1, 1) translate(-61.500000, -34.500000) translate(31.500000, 0.000000)">
            <path d="M59.3271894,4.58284119 C59.0278233,3.37693957 58.3646123,2.22463358 57.2868944,1.39390135 C55.5874162,0.0897410804 53.3582902,-0.285428313 51.6956571,0.210331243 C51.1890375,0.362185521 50.6870236,0.545303915 50.2218548,0.804349448 C49.7843198,1.04999607 49.3744185,1.35370463 49.0013623,1.70654251 L49.0013623,1.70654251 C49.0013623,1.70654251 48.992151,1.71547512 48.9737285,1.73334033 C48.9645173,1.74227293 48.955306,1.75120554 48.9460947,1.76013814 C48.4532921,2.22463358 44.5292936,5.62795593 38.2287889,3.13129295 L38.2287889,3.13129295 C36.9852682,2.59980297 35.6312124,2.50601062 34.5488889,2.83205069 C34.0975369,2.96603976 33.6507906,3.12682664 33.2362837,3.36354067 C32.6974248,3.66724922 32.2046222,4.06475013 31.780904,4.55157708 C29.8327216,6.80705974 30.141299,10.1701854 32.4717488,12.0594312 C32.7941431,12.3229431 33.1994387,12.5417919 33.5909174,12.7249103 C34.2541284,13.0375514 35.0785366,13.2742655 35.912156,13.4171871 C38.7354084,13.8995478 48.6098836,15.1188483 55.9512611,11.4118174 C56.1677258,11.3135588 56.3841905,11.2019012 56.5868383,11.0768447 C56.591444,11.0723784 56.5960496,11.0723784 56.6006552,11.0679121 L56.6006552,11.0679121 C57.1395142,10.7418721 57.6323168,10.3309723 58.0606406,9.8352127 C59.3686401,8.32113622 59.7693301,6.36489581 59.3271894,4.58284119 Z" id="Path" fill="#D7219C" fill-rule="nonzero"></path>
            <path d="M32.7008915,6 C32.6133494,6.07586026 32.5258072,6.15593497 32.4431285,6.24022415 C31.0084096,7.72792809 31.2369919,9.94051894 32.9489277,11.1837843 C33.6638554,11.7021627 34.5246867,11.9676736 35.385518,11.9971748 C36.5965181,12.0393194 37.817245,11.6094446 38.653759,10.7412661 C39.081743,10.2987479 39.3638233,9.78879842 39.5,9.26199108 C35.8183654,8.81947291 33.7368072,7.16740508 32.7008915,6 Z" id="Path" fill="#FFFFFF" fill-rule="nonzero"></path>
            <path d="M48.1579892,54.9805825 C48.8985637,54.9805825 49.5,54.3626214 49.5,53.601699 L49.5,51.3788835 C49.5,50.6179612 48.8985637,50 48.1579892,50 L34.5,50 L34.5,69 L48.1579892,69 C48.8985637,69 49.5,68.3820388 49.5,67.6211165 L49.5,65.398301 C49.5,64.6373786 48.8985637,64.0194175 48.1579892,64.0194175 L48.1579892,64.0194175 C47.1974865,64.0194175 46.3043088,63.4706311 45.8779174,62.5898058 C45.4245961,61.6628641 45.1687612,60.6160194 45.1687612,59.5046117 C45.1687612,58.3978155 45.4245961,57.3463592 45.8779174,56.4194175 C46.3087971,55.5247573 47.1974865,54.9805825 48.1579892,54.9805825 L48.1579892,54.9805825 Z" id="Path" fill="#FFA68C" fill-rule="nonzero"></path>
            <path d="M40.9221439,13 L37.7124958,13.026693 C37.6849846,13.0311418 37.6574733,13.0355906 37.629962,13.0355906 C34.855909,13.4003943 32.4578434,15.0864989 31.1602286,17.4933133 C29.2023432,21.1324521 24.4245528,27.8279337 14.9881875,30.0923857 C14.1307529,30.2703387 13.3054149,30.64404 12.5855366,31.2179384 C10.1553745,33.1442796 9.79772803,36.6188119 11.7831246,38.9766892 C13.2549775,40.7206286 15.5980206,41.3657082 17.7026327,40.8007075 C17.8631151,40.7784633 25.4103733,39.8041707 31.4582673,35.0528255 L30.9447236,39.870903 L51.4956417,39.870903 C51.4956417,39.870903 52.0412819,14.4903564 40.9221439,13 Z" id="Path" fill="#80C7F5" fill-rule="nonzero"></path>
            <path d="M30.5,40 L22.5066144,40 C18.4287247,40 14.6936665,42.2507329 12.8080936,45.834902 L6.33940574,58.1535257 L4.85981744,57.4152137 C3.3757182,56.6724271 1.56683129,57.2675513 0.822526201,58.7397007 L0.822526201,58.7397007 C0.073710173,60.21185 0.673665184,62.0061719 2.15776442,62.7444839 L15.4605263,69 L17.9370323,64.1226663 L30.5,40 Z" id="Path" fill="#80C7F5" fill-rule="nonzero"></path>
            <path d="M25.2370637,64 L20.7214369,47.659477 C19.6589365,43.8068334 22.5533342,40 26.55145,40 L31.8685319,40 L38.5,64 L25.2370637,64 L25.2370637,64 Z" id="Path" fill="#99D2F7" fill-rule="nonzero"></path>
            <polygon id="Path" fill="#D7219C" fill-rule="nonzero" points="6.5 56.8738622 6.95529677 56 18.5 62.1261378 18.0492111 63"></polygon>
            <path d="M23.5,40 L22.2053182,40 C21.8792502,40 21.5531822,40.0129776 21.2319093,40.0389329 C21.1072363,42.223504 19.1124673,43.9581831 16.6621622,43.9581831 C15.6312119,43.9581831 14.6865737,43.6467195 13.92415,43.1319394 C13.396687,43.6164384 12.9171752,44.1441961 12.5,44.7238645 C13.6556234,45.5241528 15.0989538,46 16.6669573,46 C20.3735833,46 23.3945074,43.3266042 23.5,40 Z" id="Path" fill="#B3DDF9" fill-rule="nonzero"></path>
            <path d="M14.5,43.1567329 C15.2349081,43.6821192 16.1397638,44 17.1227034,44 C19.4698163,44 21.3805774,42.2251656 21.5,40 C18.8267717,40.2163355 16.3464567,41.3509934 14.5,43.1567329 Z" id="Path" fill="#CCE9FB" fill-rule="nonzero"></path>
            <path d="M38.007807,63.431678 L38.007807,63.431678 L37.9812398,63.3377545 L37.9015381,63.0336212 L37.9015381,63.0336212 L31.6006758,40 L28.5365882,40 C28.5941505,40.3488587 28.6251457,40.7066626 28.6251457,41.0689389 C28.6251457,44.5933066 25.7957353,47.4557372 22.302144,47.4557372 C21.7707993,47.4557372 21.2571662,47.388649 20.7656723,47.2634176 C20.7833838,47.3349784 20.7966674,47.4065392 20.8188068,47.4780999 L25.0739921,63.0336212 L23.4533908,63.0336212 C21.8239338,63.0336212 20.5,64.3664405 20.5,66.0168106 L20.5,66.0168106 C20.5,67.6627082 21.8195059,69 23.4533908,69 L39.5,69 L38.007807,63.431678 Z" id="Path" fill="#99D2F7" fill-rule="nonzero"></path>
            <path d="M43.3675309,50 L29.5,50 L29.5,39 L51.5,39 L51.5,41.4936441 C51.5,46.1919492 47.8593275,50 43.3675309,50 Z" id="Path" fill="url(#linearGradient-1)" fill-rule="nonzero"></path>
            <polygon id="Path" fill="#D7219C" fill-rule="nonzero" points="24.7795262 62 24.5 61 38.215736 61 38.5 62"></polygon>
            <path d="M28.5,40.1469706 C28.5,39.7582484 28.4690767,39.3743251 28.4116476,39 L26.3397838,39 C26.3176957,39 26.3000252,39 26.2779371,39 C26.3662895,39.3647271 26.4148833,39.7486503 26.4148833,40.1469706 C26.4148833,42.6808638 24.5241419,44.734853 22.1916385,44.734853 C21.6173479,44.734853 21.0651454,44.610078 20.5659543,44.3797241 C20.4555138,45.1571686 20.4820195,45.9730054 20.6587243,46.7936413 C21.1490802,46.9280144 21.6615241,47 22.1916385,47 C25.6771408,46.995201 28.5,43.9286143 28.5,40.1469706 Z" id="Path" fill="#B3DDF9" fill-rule="nonzero"></path>
            <path d="M20.5,44.6903766 C21.0120846,44.8870293 21.5785498,45 22.1676737,45 C24.560423,45 26.5,43.209205 26.5,41 C26.5,40.6527197 26.4456193,40.3221757 26.3595166,40 C23.3141994,40.0292887 20.9259819,42.1171548 20.5,44.6903766 Z" id="Path" fill="#CCE9FB" fill-rule="nonzero"></path>
            <path d="M48.5,38 L51.5,34.4927127 C51.3960843,32.6168312 51.2063253,30.3648331 50.871988,28 L48.5,30.7738599 L48.5,38 Z" id="Path" fill="#B3DDF9" fill-rule="nonzero"></path>
            <g transform="translate(30.500000, 11.000000)">
                <rect id="Rectangle" fill="#CCE9FB" fill-rule="nonzero" x="0.018039078" y="8.13410107" width="11.0624646" height="8.67451099"></rect>
                <rect id="Rectangle" fill="#B3DDF9" fill-rule="nonzero" transform="translate(11.376940, 12.467918) rotate(-180.000000) translate(-11.376940, -12.467918) " x="11.0792951" y="8.13066294" width="1" height="8.67451099"></rect>
                <path d="M4.55114251,16.9856429 L4.55114251,16.8039534 C4.51780917,16.8645165 4.48447584,16.9250797 4.45114251,16.9856429 L4.55114251,16.9856429 Z" id="Path"></path>
                <rect id="Rectangle" fill="#E6F4FD" fill-rule="nonzero" x="5.55152627" y="5.0873072" width="6.8187715" height="8.67451099"></rect>
                <rect id="Rectangle" fill="#CCE9FB" fill-rule="nonzero" x="7.65307886" y="0.041928356" width="2.61115655" height="9.38263434"></rect>
                <rect id="Rectangle" fill="#B3DDF9" fill-rule="nonzero" transform="translate(10.551878, 4.731047) rotate(-180.000000) translate(-10.551878, -4.731047) " x="10.2655072" y="0.0397294467" width="1" height="9.38263434"></rect>
                <rect id="Rectangle" fill="#B3DDF9" fill-rule="nonzero" transform="translate(12.661548, 9.420062) rotate(-180.000000) translate(-12.661548, -9.420062) " x="12.3639029" y="5.08280689" width="1" height="8.67451099"></rect>
                <ellipse id="Oval" fill="#D7219C" fill-rule="nonzero" cx="8.96091202" cy="4.43974703" rx="1" ry="1"></ellipse>
                <ellipse id="Oval" fill="#D7219C" fill-rule="nonzero" cx="8.96091202" cy="7.4120016" rx="1" ry="1"></ellipse>
                <ellipse id="Oval" fill="#D7219C" fill-rule="nonzero" cx="1.61900725" cy="10.0348532" rx="1" ry="1"></ellipse>
                <ellipse id="Oval" fill="#D7219C" fill-rule="nonzero" cx="1.61900725" cy="12.3735237" rx="1" ry="1"></ellipse>
                <ellipse id="Oval" fill="#871FFF" fill-rule="nonzero" cx="1.61900725" cy="14.7075356" rx="1" ry="1"></ellipse>
                <rect id="Rectangle" fill="#871FFF" fill-rule="nonzero" x="6.5526951" y="10.3469865" width="3.71154031" height="1"></rect>
                <polygon id="Rectangle" fill="#80C7F5" fill-rule="nonzero" transform="translate(3.395965, 12.387411) rotate(90.000000) translate(-3.395965, -12.387411) " points="0.433027516 12.0762372 6.35890183 12.0762372 6.35890183 12.6985854 0.433027516 12.6985854"></polygon>
                <polygon id="Rectangle" fill="#80C7F5" fill-rule="nonzero" transform="translate(4.629860, 12.384579) rotate(90.000000) translate(-4.629860, -12.384579) " points="1.666923 12.0734047 7.59279732 12.0734047 7.59279732 12.6957529 1.666923 12.6957529"></polygon>
                <rect id="Rectangle" fill="#D7219C" fill-rule="nonzero" x="10.9001129" y="10.3469865" width="1" height="1"></rect>
                <rect id="Rectangle" fill="#871FFF" fill-rule="nonzero" x="6.5526951" y="11.8284551" width="3.71154031" height="1"></rect>
                <rect id="Rectangle" fill="#D7219C" fill-rule="nonzero" x="10.9001129" y="11.8284551" width="1" height="1"></rect>
            </g>
            <path d="M48.5625985,19.4787374 C48.5030429,19.3222271 48.438906,19.1611135 48.3747691,19 L44.0272057,23.543402 C44.0272057,23.543402 42.781118,29.8452433 31.6946022,28.6161771 C28.5702204,28.330776 25.8077539,30.6416046 25.5237192,33.7764139 C25.2396845,36.9158264 27.5394493,39.6915826 30.6592499,39.9769838 C30.8333357,39.9907935 31.0074214,40 31.176926,40 L31.176926,40 C31.176926,40 31.1906696,40 31.2044132,40 C31.3601742,40 31.5159352,39.9907935 31.6716961,39.9769838 C32.8628094,39.9033319 36.0467468,39.6133275 39.4551632,38.45331 C47.2661175,35.8064445 51.5037321,27.2121876 48.5625985,19.4787374 Z" id="Path" fill="url(#linearGradient-2)" fill-rule="nonzero"></path>
            <g transform="translate(38.500000, 29.000000)" fill-rule="nonzero" id="Path">
                <path d="M2.09606925,6.72120516 C2.09606925,4.24989853 3.99272388,2.24664239 6.33252211,2.24664239 C6.90417736,2.24664239 7.44481255,2.36833552 7.94556483,2.58363875 C8.31337402,1.95645108 8.63686885,1.29649988 8.91161789,0.617826658 C8.12282227,0.243386259 7.24982937,0.0374440399 6.33252211,0.0374440399 C2.8405505,0.0374440399 0.00443143604,3.02828672 0.00443143604,6.72120516 C0.00443143604,7.50284949 0.132943081,8.25641079 0.367809192,8.95380603 C1.04138747,8.71041978 1.6839457,8.42022847 2.29991531,8.08791261 C2.17140366,7.65730615 2.09606925,7.19861667 2.09606925,6.72120516 Z" fill="#B3DDF9"></path>
                <path d="M2.09606925,6.72120516 C2.09606925,7.19861667 2.16697223,7.65730615 2.29991531,8.08791261 C4.67516503,6.80077374 6.60283971,4.87240569 7.94556483,2.58363875 C7.44924399,2.36833552 6.90417736,2.24664239 6.33252211,2.24664239 C3.99272388,2.2513229 2.09606925,4.25457903 2.09606925,6.72120516 Z" fill="#871FFF"></path>
            </g>
        </g>
    </g>
</svg>