<?xml version="1.0" encoding="UTF-8"?>
<svg width="792px" height="17px" viewBox="0 0 792 17" version="1.1" xmlns="http://www.w3.org/2000/svg" xmlns:xlink="http://www.w3.org/1999/xlink">
    <title>L</title>
    <g id="L" stroke="none" stroke-width="1" fill="none" fill-rule="evenodd">
        <line x1="0.5" y1="11.5" x2="779.5" y2="11.5" id="Line" stroke="#6F54A3" stroke-linecap="square"></line>
        <line x1="12.5" y1="3.5" x2="791.5" y2="3.5" id="Line" stroke="#D03293" stroke-linecap="square"></line>
        <path d="M726.5,9 L726.5,15 L700.5,15 L700.5,9 L726.5,9 Z M734.5,0 L734.5,6 L708.5,6 L708.5,0 L734.5,0 Z" id="Rectangle-2" fill="#FFFFFF"></path>
        <g id="Group" transform="translate(708.000000, 0.000000)" fill-rule="nonzero">
            <path d="M10.33,11.76 C10.33,11.65 10.36,11.54 10.36,11.43 C10.36,11.32 10.36,11.21 10.33,11.1 C7.62,10.5 6.16,9.04 5.56,6.33 C5.45,6.33 5.34,6.3 5.23,6.3 C5.12,6.3 5.01,6.3 4.9,6.33 C4.3,9.04 2.84,10.5 0.13,11.1 C0.13,11.21 0.1,11.32 0.1,11.43 C0.1,11.54 0.1,11.65 0.13,11.76 C2.84,12.36 4.3,13.82 4.9,16.53 C5.01,16.53 5.12,16.56 5.23,16.56 C5.34,16.56 5.45,16.56 5.56,16.53 C6.16,13.81 7.63,12.35 10.33,11.76 Z" id="Path" fill="#6F54A3"></path>
            <path d="M15.47,3.44 C15.47,3.38 15.48,3.32 15.48,3.27 C15.48,3.21 15.48,3.15 15.47,3.1 C14.03,2.78 13.25,2.01 12.94,0.57 C12.88,0.57 12.82,0.56 12.77,0.56 C12.71,0.56 12.65,0.56 12.6,0.57 C12.28,2.01 11.51,2.79 10.07,3.1 C10.07,3.16 10.06,3.22 10.06,3.27 C10.06,3.32 10.06,3.39 10.07,3.44 C11.51,3.76 12.29,4.53 12.6,5.97 C12.66,5.97 12.72,5.98 12.77,5.98 C12.83,5.98 12.89,5.98 12.94,5.97 C13.25,4.54 14.03,3.76 15.47,3.44 Z" id="Path" fill="#D03293"></path>
        </g>
    </g>
</svg>