<?xml version="1.0" encoding="utf-8"?>
<!-- Generator: Adobe Illustrator 24.1.0, SVG Export Plug-In . SVG Version: 6.00 Build 0)  -->
<svg version="1.1" id="Layer_1" xmlns="http://www.w3.org/2000/svg" xmlns:xlink="http://www.w3.org/1999/xlink" x="0px" y="0px"
	 viewBox="0 0 1088.7 1658.7" style="enable-background:new 0 0 1088.7 1658.7;" xml:space="preserve">
<style type="text/css">
	.st0{fill:#FFFFFF;}
	.st1{fill:#80C7F5;}
	.st2{fill:#D7219C;}
	.st3{fill:#FA7554;}
	.st4{fill:#FFA68C;}
	.st5{fill:#871FFF;}
	.st6{fill:#B3DDF9;}
	.st7{fill:#FFB8A3;}
	.st8{fill:#99D2F7;}
	.st9{fill:#CCE9FB;}
	.st10{fill:url(#SVGID_1_);}
	.st11{fill:none;}
	.st12{fill:#E6F4FD;}
	.st13{fill:url(#SVGID_2_);}
	.st14{fill:#FCAC98;}
	.st15{fill:url(#SVGID_3_);}
	.st16{fill:#CFA5FF;}
	.st17{fill:#FDC8BB;}
	.st18{fill:#FB9176;}
	.st19{fill:none;stroke:#FA7554;stroke-miterlimit:10;}
	.st20{fill:url(#SVGID_4_);}
	.st21{fill:url(#SVGID_5_);}
	.st22{clip-path:url(#SVGID_7_);}
	.st23{fill:url(#SVGID_8_);}
	.st24{fill:url(#SVGID_9_);}
	.st25{fill:url(#SVGID_12_);}
	.st26{fill:url(#SVGID_13_);}
	.st27{fill:url(#SVGID_14_);}
	.st28{fill:url(#SVGID_15_);}
	.st29{fill:url(#SVGID_16_);}
	.st30{fill:url(#SVGID_17_);}
	.st31{fill:url(#SVGID_18_);}
	.st32{fill:url(#SVGID_19_);}
	.st33{fill:url(#SVGID_20_);}
	.st34{fill:url(#SVGID_21_);}
	.st35{fill:url(#SVGID_22_);}
	.st36{fill:url(#SVGID_23_);}
	.st37{fill:url(#SVGID_26_);}
	.st38{fill:url(#SVGID_27_);}
	.st39{fill:url(#SVGID_28_);}
	.st40{fill:url(#SVGID_29_);}
	.st41{fill:url(#SVGID_30_);}
	.st42{fill:url(#SVGID_31_);}
	.st43{fill:url(#SVGID_32_);}
	.st44{fill:url(#SVGID_33_);}
	.st45{fill:url(#SVGID_34_);}
	.st46{fill:url(#SVGID_35_);}
	.st47{fill:url(#SVGID_36_);}
	.st48{fill:url(#SVGID_37_);}
	.st49{fill:url(#SVGID_38_);}
	.st50{fill:url(#SVGID_39_);}
	.st51{fill:url(#SVGID_40_);}
	.st52{fill:url(#SVGID_41_);}
	.st53{fill:url(#SVGID_42_);}
	.st54{fill:url(#SVGID_43_);}
	.st55{fill:url(#SVGID_44_);}
	.st56{fill:url(#SVGID_45_);}
	.st57{fill:url(#SVGID_48_);}
	.st58{fill:url(#SVGID_49_);}
	.st59{fill:url(#SVGID_50_);}
	.st60{fill:url(#SVGID_51_);}
	.st61{fill:url(#SVGID_52_);}
	.st62{fill:url(#SVGID_53_);}
	.st63{fill:url(#SVGID_54_);}
	.st64{fill:url(#SVGID_55_);}
</style>
<g>
	<g>
		<ellipse class="st12" cx="544.3" cy="1577.5" rx="544.3" ry="81.2"/>
	</g>
	<polygon class="st5" points="549.4,409.3 506.3,409.3 506.3,395.3 488.5,395.3 488.5,441.3 506.3,441.3 506.3,427.2 549.4,427.2 	
		"/>
	<g>
		<polygon class="st1" points="842.9,347.4 729,313.4 739.1,279.6 503.9,209.2 519.2,158.2 162.5,51.5 86.7,304.9 443.4,411.6 
			458.7,360.6 693.8,430.9 703.9,397.1 817.8,431.2 		"/>
		<g>
			
				<rect x="58" y="6" transform="matrix(0.9581 0.2866 -0.2866 0.9581 54.3165 -22.3814)" class="st1" width="91.2" height="336.7"/>
		</g>
		<g>
			
				<rect x="829.4" y="340.2" transform="matrix(-0.9581 -0.2866 0.2866 -0.9581 1552.2131 1017.9792)" class="st5" width="42.3" height="110.4"/>
		</g>
		<g>
			<g>
				
					<rect x="96.1" y="38.4" transform="matrix(0.9581 0.2866 -0.2866 0.9581 19.4706 -38.6163)" class="st6" width="91.2" height="17.6"/>
			</g>
			<g>
				
					<rect x="83.4" y="80.8" transform="matrix(0.9581 0.2866 -0.2866 0.9581 31.0859 -33.2046)" class="st6" width="91.2" height="17.6"/>
			</g>
			<g>
				
					<rect x="70.7" y="123.2" transform="matrix(0.9581 0.2866 -0.2866 0.9581 42.7012 -27.793)" class="st6" width="91.2" height="17.6"/>
			</g>
			<g>
				
					<rect x="58" y="165.6" transform="matrix(0.9581 0.2866 -0.2866 0.9581 54.3165 -22.3814)" class="st6" width="91.2" height="17.6"/>
			</g>
			<g>
				
					<rect x="45.3" y="208" transform="matrix(0.9581 0.2866 -0.2866 0.9581 65.9318 -16.9698)" class="st6" width="91.2" height="17.6"/>
			</g>
			<g>
				
					<rect x="32.7" y="250.3" transform="matrix(0.9581 0.2866 -0.2866 0.9581 77.5471 -11.5581)" class="st6" width="91.2" height="17.6"/>
			</g>
			<g>
				
					<rect x="20" y="292.7" transform="matrix(0.9581 0.2866 -0.2866 0.9581 89.1623 -6.1465)" class="st6" width="91.2" height="17.6"/>
			</g>
		</g>
		<g>
			<polygon class="st5" points="161.1,327.2 110.1,311.9 185.9,58.5 199.7,62.6 			"/>
		</g>
		<g>
			<polygon class="st5" points="495.1,371.5 458.7,360.6 503.9,209.2 518.3,213.5 			"/>
		</g>
		<g>
			<polygon class="st5" points="726.3,403.8 703.9,397.1 729,313.4 740.2,316.7 			"/>
		</g>
		<g>
			
				<rect x="256" y="218.9" transform="matrix(-0.9581 -0.2866 0.2866 -0.9581 587.4316 664.4211)" class="st6" width="172.7" height="140.6"/>
		</g>
		<g>
			<circle class="st1" cx="290.6" cy="221.1" r="8.2"/>
		</g>
		<g>
			<circle class="st1" cx="423.4" cy="260.9" r="8.2"/>
		</g>
		<g>
			<circle class="st1" cx="261.3" cy="319.3" r="8.2"/>
		</g>
		<g>
			<circle class="st1" cx="394.1" cy="359" r="8.2"/>
		</g>
	</g>
	<g>
		<g>
			<rect x="551.2" y="493.3" class="st1" width="16.3" height="1074.2"/>
		</g>
		<g>
			
				<rect x="-197.6" y="1055.8" transform="matrix(0.3479 -0.9375 0.9375 0.3479 -776.1259 1012.1094)" class="st1" width="1074.2" height="16.3"/>
		</g>
		<g>
			
				<rect x="771.1" y="526.9" transform="matrix(0.9375 -0.348 0.348 0.9375 -321.5383 337.6767)" class="st1" width="16.3" height="1074.2"/>
		</g>
	</g>
	<polygon class="st5" points="672.9,496.5 672.9,510.6 652.1,510.6 652.1,451.7 466.7,451.7 466.7,587.3 652.1,587.3 652.1,528.4 
		672.9,528.4 672.9,542.5 690.7,542.5 690.7,496.5 	"/>
	<g>
		<path class="st6" d="M562.4,533L562.4,533c-21.9,0-39.7-17.8-39.7-39.7V361.1c0-21.9,17.8-39.7,39.7-39.7h0
			c21.9,0,39.7,17.8,39.7,39.7v132.2C602.1,515.2,584.4,533,562.4,533z"/>
	</g>
	<g>
		<circle class="st5" cx="562.3" cy="493.5" r="12.9"/>
	</g>
	<g>
		<circle class="st5" cx="562.3" cy="362.4" r="12.9"/>
	</g>
	<g>
		<rect x="545.1" y="1545.4" width="28.6" height="44.2"/>
	</g>
	<g>
		<polygon class="st2" points="593.5,1120.7 593.5,1130.1 573.7,1130.1 573.7,1114 545.1,1114 545.1,1158.2 573.7,1158.2 
			573.7,1142.1 593.5,1142.1 593.5,1151.5 605.4,1151.5 605.4,1120.7 		"/>
	</g>
	<g>
		<rect x="135.4" y="1531.4" transform="matrix(0.3479 -0.9375 0.9375 0.3479 -1344.369 1158.561)" width="50.6" height="28.6"/>
	</g>
	<g>
		<line class="st5" x1="329.8" y1="1090.2" x2="312.1" y2="1137.7"/>
		
			<rect x="295.6" y="1099.7" transform="matrix(0.3479 -0.9375 0.9375 0.3479 -835.0752 1027.27)" class="st2" width="50.6" height="28.6"/>
	</g>
	<g>
		<rect x="943.8" y="1520.4" transform="matrix(0.9375 -0.348 0.348 0.9375 -477.9955 430.0009)" width="28.6" height="50.6"/>
	</g>
	<g>
		<line class="st5" x1="789" y1="1090.2" x2="806.7" y2="1137.7"/>
		
			<rect x="783.6" y="1088.6" transform="matrix(0.9375 -0.348 0.348 0.9375 -337.7805 347.2708)" class="st2" width="28.6" height="50.6"/>
	</g>
</g>
</svg>
