<svg width="1920px" height="702px" viewBox="0 0 1920 702" version="1.1" xmlns="http://www.w3.org/2000/svg" xmlns:xlink="http://www.w3.org/1999/xlink">
    <defs>
        <linearGradient x1="50%" y1="0%" x2="50%" y2="100%" id="linearGradient-1">
            <stop stop-color="#000000" offset="0%"></stop>
            <stop stop-color="#861FFE" offset="100%"></stop>
        </linearGradient>
        <rect id="path-2" x="0" y="529" width="297" height="64" rx="32"></rect>
        <filter x="-2.4%" y="-7.8%" width="104.7%" height="121.9%" filterUnits="objectBoundingBox" id="filter-3">
            <feOffset dx="0" dy="2" in="SourceAlpha" result="shadowOffsetOuter1"></feOffset>
            <feGaussianBlur stdDeviation="2" in="shadowOffsetOuter1" result="shadowBlurOuter1"></feGaussianBlur>
            <feColorMatrix values="0 0 0 0 0   0 0 0 0 0   0 0 0 0 0  0 0 0 0.5 0" type="matrix" in="shadowBlurOuter1"></feColorMatrix>
        </filter>
        <linearGradient x1="49.9956013%" y1="99.9817362%" x2="49.9956013%" y2="-0.00725806452%" id="linearGradient-4">
            <stop stop-color="#FFFFFF" offset="0%"></stop>
            <stop stop-color="#DAEFFC" offset="27.51%"></stop>
            <stop stop-color="#80C7F5" offset="86.33%"></stop>
        </linearGradient>
        <linearGradient x1="-0.0153037383%" y1="49.9948988%" x2="100.035864%" y2="49.9948988%" id="linearGradient-5">
            <stop stop-color="#871FFF" offset="0%"></stop>
            <stop stop-color="#AE4ADA" offset="22.03%"></stop>
            <stop stop-color="#D172B8" offset="45.65%"></stop>
            <stop stop-color="#EA8EA0" offset="67.33%"></stop>
            <stop stop-color="#FAA091" offset="86.15%"></stop>
            <stop stop-color="#FFA68C" offset="100%"></stop>
        </linearGradient>
        <radialGradient cx="50.0584402%" cy="49.9405983%" fx="50.0584402%" fy="49.9405983%" r="49.9911325%" id="radialGradient-6">
            <stop stop-color="#FFFFFF" offset="0%"></stop>
            <stop stop-color="#FFFFFF" stop-opacity="0" offset="94.51%"></stop>
        </radialGradient>
        <radialGradient cx="50.0420366%" cy="50.0391645%" fx="50.0420366%" fy="50.0391645%" r="49.9586162%" id="radialGradient-7">
            <stop stop-color="#FFFFFF" offset="0%"></stop>
            <stop stop-color="#FFFFFF" stop-opacity="0" offset="94.51%"></stop>
        </radialGradient>
        <radialGradient cx="50.1480278%" cy="49.9898825%" fx="50.1480278%" fy="49.9898825%" r="50.0736917%" gradientTransform="translate(0.501480,0.499899),scale(0.999208,1.000000),rotate(-13.552020),translate(-0.501480,-0.499899)" id="radialGradient-8">
            <stop stop-color="#FFFFFF" offset="15.72%"></stop>
            <stop stop-color="#FFFFFF" stop-opacity="0.9" offset="18.95%"></stop>
            <stop stop-color="#FFFFFF" stop-opacity="0.3" offset="33.54%"></stop>
            <stop stop-color="#FFFFFF" stop-opacity="0" offset="94.51%"></stop>
        </radialGradient>
        <linearGradient x1="0%" y1="50.0318202%" x2="100.005848%" y2="50.0318202%" id="linearGradient-9">
            <stop stop-color="#FFFFFF" stop-opacity="0" offset="0%"></stop>
            <stop stop-color="#FFFFFF" stop-opacity="0.6" offset="100%"></stop>
        </linearGradient>
    </defs>
    <g id="voyagers" stroke="none" stroke-width="1" fill="none" fill-rule="evenodd">
        <rect id="Rectangle" fill="url(#linearGradient-1)" x="0" y="0" width="1920" height="702"></rect>
        <text id="Get-recognized-for-b" font-family="spezia, sans-serif" font-size="48" font-weight="500" fill="#FFFFFF">
            <tspan x="0" y="192">Get recognized for being an </tspan>
            <tspan x="0" y="250">expert in Communications APIs</tspan>
        </text>
        <rect id="Rectangle" fill="#FFFFFF" x="0" y="303" width="174" height="6"></rect>
        <text id="Vonage-Voyagers" font-family="spezia, sans-serif" font-size="32" font-weight="normal" fill="#FFFFFF">
            <tspan x="0" y="107">Vonage Voyagers</tspan>
        </text>
        <text id="Communications-APIs" font-family="spezia, sans-serif" font-size="24" font-weight="normal" line-spacing="34" fill="#FFFFFF">
            <tspan x="0" y="365">Communications APIs are key to how we connect and communicate in the future. </tspan>
            <tspan x="0" y="399">We want to encourage the boldest and most curious to be pioneers in our field. </tspan>
            <tspan x="0" y="433">Use Vonage Voyagers to learn from API experts, improve your technical </tspan>
            <tspan x="0" y="467">communication skills, showcase your knowledge and support your peers.</tspan>
        </text>
        <a href="https://airtable.com/shrOGdDIjGXQYclXx">
            <g id="Rectangle">
                <use fill="black" fill-opacity="1" filter="url(#filter-3)" xlink:href="#path-2"></use>
                <use fill="#FFFFFF" fill-rule="evenodd" xlink:href="#path-2"></use>
            </g>
            <text id="Apply-to-be-a-Voyage" font-family="spezia, sans-serif" font-size="22" font-weight="500" fill="#3E0E76">
                <tspan x="32.4580078" y="568">Apply to be a Voyager</tspan>
            </text>
        </a>
        <text id="Know-someone-who’d-b" font-family="spezia, sans-serif" font-size="24" font-weight="normal" fill="#E7E7E7">
            <tspan x="0" y="645">Know someone who’d be a great Voyager? </tspan>
            <a href="https://airtable.com/shrI1b8WWx4B85ZSZ"><tspan x="479.132812" y="645" text-decoration="underline">Nominate them here</tspan></a>
        </text>
        <g id="peach-tablet" transform="translate(1400.000000, 310.000000)" fill-rule="nonzero">
            <path d="M214.567548,112 L112,112 L145.726686,50.6144681 C146.767304,48.9804255 148.555031,48 150.476172,48 L243.4647,48 C246.266363,48 247.947361,51.186383 246.426458,53.5557447 L214.567548,112 Z" id="Path" fill="#80C7F5"></path>
            <path d="M208.567548,112 L106,112 L139.726686,50.6144681 C140.767304,48.9804255 142.555031,48 144.476172,48 L237.4647,48 C240.266363,48 241.947361,51.186383 240.426458,53.5557447 L208.567548,112 Z" id="Path" fill="#FFFFFF"></path>
            <polygon id="Path" fill="url(#linearGradient-4)" points="204.617118 109 112 109 143.382882 52 236 52"></polygon>
            <path d="M111.511948,60 C116.843592,73.4624374 125.711803,87.245409 136,100.387312 L114.459088,124 C103.554671,93.736227 99,68.3873122 99,68.3873122 L111.511948,60 Z" id="Path" fill="#871FFF"></path>
            <g id="Group" transform="translate(151.000000, 63.000000)">
                <path d="M25.7771739,33.870229 L4.7673913,33.870229 C0.609782609,33.870229 -1.13641304,30.7038168 0.886956522,26.810687 L11.0869565,7.13740458 C13.1103261,3.24427481 18.4320652,0.0778625954 23.0054348,0.0778625954 L45.9554348,0.0778625954 C50.501087,0.0778625954 52.2472826,3.24427481 49.8358696,7.13740458 L37.6956522,26.810687 C35.2565217,30.7038168 29.9347826,33.870229 25.7771739,33.870229 Z" id="Path" fill="#000000"></path>
                <g transform="translate(15.521739, 7.786260)" fill="#FFFFFF" id="Path">
                    <path d="M7.3173913,0.155725191 L2.63315217,0.155725191 L1.94021739,13.4183206 C1.94021739,13.5221374 2.10652174,13.5221374 2.18967391,13.4183206 L6.90163043,8.85038168 L7.3173913,0.155725191 Z"></path>
                    <path d="M21.5641304,0.155725191 C21.5641304,0.155725191 6.23641304,14.5083969 4.54565217,15.8320611 C2.60543478,17.3633588 1.5798913,17.9603053 0.166304348,18.1419847 C0.166304348,18.1419847 0.138586957,18.1419847 0.138586957,18.1679389 C0.138586957,18.1679389 0.138586957,18.1938931 0.138586957,18.1938931 L4.21304348,18.1938931 C5.98695652,18.1938931 8.03804348,16.8442748 9.45163043,15.6503817 C11.0592391,14.3007634 26.3038043,0.155725191 26.3038043,0.155725191 L21.5641304,0.155725191 Z"></path>
                </g>
            </g>
            <path d="M195.851574,367.468053 L206.721043,367.468053 C214.056596,367.468053 220,373.405646 220,380.734027 C220,388.062407 214.056596,394 206.721043,394 L203.561936,394 L139.523096,394 L136.069496,394 L97.2231932,260.323923 L93.9302261,367.468053 L99.8736302,367.468053 C107.209183,367.468053 113.152587,373.405646 113.152587,380.734027 C113.152587,388.062407 107.209183,394 99.8736302,394 L93.1270634,394 L28.2047441,394 L27,394 C27,394 33.6394784,180.460624 33.7465668,178 L141.102649,178 L195.851574,367.468053 Z" id="Path" fill="#FFA68C"></path>
            <path d="M81.321197,42.9671439 C104.583042,37.1428287 114.945137,59.527524 114.945137,59.527524 L114.62793,81.8048586 L139,178 L33,178 C36.7800499,83.1200266 51.6623441,50.4018688 81.321197,42.9671439 Z" id="Path" fill="#FFFFFF"></path>
            <ellipse id="Oval" fill="#80C7F5" cx="109" cy="24" rx="2" ry="6"></ellipse>
            <path d="M88.479276,40 C92.3623756,39.8414918 96.2454752,38.4677545 99.4681838,35.7731158 C107.181552,29.3006993 108.211762,17.8088578 101.766345,10.0683761 C100.366316,8.4040404 98.7285457,7.03030303 96.932282,6 C96.2718909,6.71328671 87.7132224,11.0722611 87,11.7327117 L88.479276,40" id="Path" fill="#000000"></path>
            <rect id="Rectangle" fill="#80C7F5" x="96" y="21" width="15" height="1"></rect>
            <path d="M72.5103063,17.1306628 C73.3690096,13.4062863 75.2945865,9.84267418 78.443165,7.29723698 C83.3872139,3.25133154 89.8665202,2.12598035 94.7064838,3.65324267 C96.1896985,4.10874196 97.6468919,4.67141755 99,5.5020339 C98.1152755,7.08288438 95.0187396,9.57473342 93.6916527,10.0838209 C98.1933394,20.024423 99.0260213,30.3669362 90.6992021,39.9860095 C85.3388122,40.2003621 79.9263797,37.9496597 76.2053324,33.3678727 C72.3801998,28.6789095 71.2092408,22.6502424 72.5103063,17.1306628 Z" id="Path" fill="#D7219C"></path>
            <ellipse id="Oval" fill="#FA7554" transform="translate(88.944352, 16.365568) rotate(-17.757331) translate(-88.944352, -16.365568) " cx="88.9443525" cy="16.3655681" rx="33.0574156" ry="6.58968035"></ellipse>
            <g id="Group" transform="translate(72.000000, 5.000000)">
                <path d="M30.121875,4.32054795 C31.609375,5.51780822 32.9109375,6.97534247 33.9734375,8.5890411 C29.5109375,10.8013699 24.1453125,12.9356164 18.275,14.7835616 C11.740625,16.839726 5.4984375,18.2191781 0.1859375,18.9219178 C0.1859375,18.6876712 0.159375,18.4534247 0.159375,18.2191781 C0.159375,16.5794521 0.371875,15.0178082 0.796875,13.5082192 C5.41875,12.7273973 10.571875,11.5041096 15.9375,9.81232877 C21.1703125,8.17260274 25.978125,6.27260274 30.121875,4.32054795 Z" id="Path" fill="#FFA68C"></path>
                <path d="M18.4875,0.234246575 C22.9234375,0.234246575 26.9609375,1.76986301 30.121875,4.32054795 C25.978125,6.27260274 21.14375,8.14657534 15.9109375,9.78630137 C10.5453125,11.4780822 5.3921875,12.7013699 0.7703125,13.4821918 C2.8953125,5.85616438 10.0140625,0.234246575 18.4875,0.234246575 Z" id="Path" fill="#FA7554"></path>
            </g>
            <path d="M78,45.0239867 C78,45.0239867 69.3397129,47.6818192 67.9043062,54 L63,54 C63,54 63.7655502,49.8966796 68.6937799,46.7725607 C70.5837321,45.5602161 73.1674641,44.977358 75.4162679,45.0006724 L78,45.0239867 Z" id="Path" fill="#871FFF"></path>
            <path d="M98.9764359,46.0017018 L99.9558174,46.0017018 C102.278351,46.0250134 104.405007,47.1672844 105.384389,48.9156584 L106,50.0113062 L105.972018,50.0113062 C105.412371,49.5916964 104.79676,49.1720866 104.181149,48.7524769 C102.306333,47.5402709 99.7319588,47.4936476 97.8291605,48.6592302 C95.4506627,50.1045528 93.1281296,52.1792899 92.4005891,55 L87,55 C87,55 87.3357879,50.1278644 93.9116348,47.0274145 C95.646539,46.188195 97.9690722,45.9783901 98.9764359,46.0017018 Z" id="Path" fill="#871FFF"></path>
            <polygon id="Path" fill="#FFFFFF" points="44 220.879063 58.0128795 229 72 220.879063 72 195 44 195"></polygon>
            <path d="M84.8127341,110.222222 C97.659176,112.194444 105.262172,109.027778 109.745318,105 C110.505618,107.055556 111.292135,109.055556 112,110.916667 C107.621723,114.361111 101.303371,117 92.2846442,117 C89.741573,117 86.988764,116.777778 84,116.333333 L84.8127341,110.222222 Z" id="Path" fill="#871FFF"></path>
            <circle id="Oval" fill="#871FFF" cx="83.5" cy="86.5" r="1"></circle>
            <circle id="Oval" fill="#871FFF" cx="80.5" cy="93.5" r="1"></circle>
            <circle id="Oval" fill="#871FFF" cx="78.5" cy="99.5" r="1"></circle>
            <circle id="Oval" fill="#871FFF" cx="47.5" cy="86.5" r="1"></circle>
            <circle id="Oval" fill="#871FFF" cx="44.5" cy="93.5" r="1"></circle>
            <circle id="Oval" fill="#871FFF" cx="41.5" cy="99.5" r="1"></circle>
            <path d="M116.511948,60 C121.843592,73.4624374 130.711803,87.245409 141,100.387312 L119.459088,124 C108.554671,93.736227 104,68.3873122 104,68.3873122 L116.511948,60 Z" id="Path" fill="#FFFFFF"></path>
            <path d="M24.0937144,125.577621 L24.0937144,125.577621 C24.7905197,105.455981 36.3950072,85.1750672 50.1167107,68 L115,68 C103.261511,94.094422 96.1862581,121.436492 94.1226426,129.984207 C93.9618413,130.913306 93.7742399,131.81586 93.4794377,132.691868 C93.4794377,132.691868 93.4794377,132.691868 93.4794377,132.691868 L93.4794377,132.691868 C92.059027,137.257728 88.9770037,141.372312 84.50137,144.053427 C81.2853457,145.991263 77.7477191,146.946909 74.2368926,147 L74.2368926,147 L43.6310618,147 L38.2174209,147 C31.5441706,146.893817 30.5257629,143.549059 26.8809354,137.549731 C24.5761181,133.859879 23.6917114,129.665659 24.0937144,125.577621 Z" id="Path" fill="#80C7F5"></path>
            <g id="Group" transform="translate(30.000000, 54.000000)">
                <path d="M73.3157895,0.134078212 L12.6052632,0.134078212 L12.6052632,0.134078212 L12.6052632,0.134078212 C5.68421053,0.134078212 0.0789473684,5.84581006 0.0789473684,12.898324 C0.0789473684,19.950838 5.68421053,25.6625698 12.6052632,25.6625698 L12.6052632,25.6625698 L12.6052632,25.6625698 L73.3157895,25.6625698 C79.7631579,25.0994413 84.8157895,19.6022346 84.8157895,12.898324 C84.8157895,6.19441341 79.7631579,0.697206704 73.3157895,0.134078212 Z" id="Path" fill="#D7219C"></path>
                <path d="M51.0789474,25.7162011 L51.0789474,25.7162011 C42.0263158,19.6558659 42.0263158,6.14078212 51.0789474,0.0804469274 C53.2368421,0.0804469274 55.3684211,0.0804469274 57.5263158,0.0804469274 C48.4736842,6.14078212 48.4736842,19.6558659 57.5263158,25.7162011 L47.6578947,48 L41.2105263,48 L51.0789474,25.7162011 Z" id="Path" fill="#FFFFFF"></path>
                <path d="M18.1842105,25.7162011 L18.1842105,25.7162011 C9.13157895,19.6558659 9.13157895,6.14078212 18.1842105,0.0804469274 C20.3421053,0.0804469274 22.4736842,0.0804469274 24.6315789,0.0804469274 C15.5789474,6.14078212 15.5789474,19.6558659 24.6315789,25.7162011 L14.7631579,48 L8.31578947,48 L18.1842105,25.7162011 Z" id="Path" fill="#FFFFFF"></path>
            </g>
            <circle id="Oval" fill="#80C7F5" cx="103.5" cy="67.5" r="7.5"></circle>
            <circle id="Oval" fill="#871FFF" cx="80.5" cy="84.5" r="1"></circle>
            <circle id="Oval" fill="#871FFF" cx="78.5" cy="92.5" r="1"></circle>
            <circle id="Oval" fill="#871FFF" cx="75.5" cy="98.5" r="1"></circle>
            <circle id="Oval" fill="#871FFF" cx="50.5" cy="84.5" r="1"></circle>
            <circle id="Oval" fill="#871FFF" cx="45.5" cy="92.5" r="1"></circle>
            <circle id="Oval" fill="#871FFF" cx="41.5" cy="98.5" r="1"></circle>
            <path d="M237,117.704042 C237,104.064257 225.937226,93 212.29927,93 C207.490511,93 203.023358,94.3666066 199.213139,96.758168 C162.635036,117.020738 140.351825,100.200965 140.351825,100.200965 L111,101.173358 C127.791241,167.742866 215.872993,142.197836 216.083212,142.118993 C227.960584,140.279331 237,130.029782 237,117.704042 Z" id="Path" fill="#000000"></path>
            <path d="M0.281736243,147.281137 L9.56225117,163.823667 C10.179164,164.900855 11.6007458,165.311212 12.7272823,164.746971 L26.3798317,157.745249 C27.5063682,157.15536 27.9355249,155.796051 27.3454344,154.718863 L26.1652533,152.615782 L28.8474831,151.230826 C30.8323331,150.204933 31.5833574,147.845378 30.5104655,145.947475 L27.3722567,140.356357 C26.2993648,138.458454 23.8317134,137.740328 21.8468634,138.766222 L19.1646337,140.151178 L18.0649195,138.176333 C17.4480066,137.099145 16.0264249,136.688788 14.8998884,137.253029 L1.24733895,144.254751 C0.0939801609,144.818993 -0.335176599,146.178301 0.281736243,147.281137 Z M24.7436715,150.076696 L20.5862154,142.664617 L23.2684452,141.279661 C23.8048911,140.99754 24.4486263,141.202719 24.7436715,141.715665 L27.8818804,147.306784 C28.1769256,147.819731 27.9623472,148.435267 27.4259013,148.717387 L24.7436715,150.076696 Z" id="Shape" fill="#D7219C"></path>
            <g id="Group" transform="translate(12.000000, 134.000000)">
                <path d="M20.5714286,10.7661017 C20.3142857,10.7661017 20.0828571,10.7389831 19.8257143,10.6576271 C18.2057143,10.2237288 17.2285714,8.48813559 17.64,6.77966102 L18.6685714,2.44067797 C19.08,0.73220339 20.7257143,-0.298305085 22.3457143,0.13559322 C23.1171429,0.352542373 23.7857143,0.86779661 24.1971429,1.6 C24.6085714,2.33220339 24.7371429,3.2 24.5314286,4.01355932 L23.5028571,8.35254237 C23.2971429,9.16610169 22.8085714,9.87118644 22.1142857,10.3050847 C21.6514286,10.6033898 21.1114286,10.7661017 20.5714286,10.7661017 Z M21.6,1.05762712 C21.24,1.05762712 20.8542857,1.16610169 20.5457143,1.3559322 C20.0828571,1.65423729 19.7228571,2.14237288 19.5942857,2.68474576 L18.5657143,7.02372881 C18.4371429,7.59322034 18.5142857,8.18983051 18.7971429,8.6779661 C19.08,9.16610169 19.5428571,9.51864407 20.0571429,9.68135593 C20.5971429,9.81694915 21.1628571,9.73559322 21.6257143,9.43728814 C22.0885714,9.13898305 22.4485714,8.65084746 22.5771429,8.10847458 L23.6057143,3.76949153 C23.7342857,3.2 23.6571429,2.60338983 23.3742857,2.11525424 C23.0914286,1.62711864 22.6285714,1.27457627 22.1142857,1.11186441 C21.96,1.08474576 21.78,1.05762712 21.6,1.05762712 Z" id="Shape" fill="#FFFFFF"></path>
                <path d="M3.62571429,61.8305085 L11.1342857,63.8372881 C13.6028571,64.4881356 16.0971429,62.9152542 16.7142857,60.3389831 L26.6142857,18.9559322 C27.0514286,17.1389831 26.46,15.2135593 25.0714286,14.0474576 L21.7542857,11.1728814 C20.7,10.2508475 19.3114286,9.87118644 17.9485714,10.1694915 L13.7314286,11.0372881 C11.9828571,11.3898305 10.5942857,12.8 10.1571429,14.5898305 L0.257142857,55.9728814 C-0.334285714,58.5491525 1.15714286,61.179661 3.62571429,61.8305085 Z" id="Path" fill="#FA7554"></path>
                <path d="M15.8657143,10.5491525 L23.4771429,12.5559322 C23.7342857,12.6101695 23.9914286,12.4745763 24.0428571,12.2033898 L25.02,8.10847458 C25.0714286,7.83728814 24.9428571,7.56610169 24.6857143,7.51186441 L17.0742857,5.50508475 C16.8171429,5.45084746 16.56,5.58644068 16.5085714,5.85762712 L15.5314286,9.95254237 C15.4542857,10.1966102 15.6085714,10.4677966 15.8657143,10.5491525 Z" id="Path" fill="#871FFF"></path>
            </g>
        </g>
        <g id="Telescope" transform="translate(876.000000, 342.000000)" fill-rule="nonzero">
            <path d="M58.8038601,330 L113.506723,285.477141 C128.748032,273.080919 135.839674,253.177935 131.950709,233.878944 L124.315757,196 L20,280.357587 L58.8038601,330 Z" id="Path" fill="#80C7F5"></path>
            <path d="M65.8638005,334.588323 L21.6269196,279 L0,295.842347 L42.8779702,352.488678 C47.8799182,358.750943 57.0453373,359.837546 63.406196,354.919238 L63.406196,354.919238 C69.7670547,349.94374 70.8657484,340.850588 65.8638005,334.588323 Z" id="Path" fill="#80C7F5"></path>
            <polygon id="Path" fill="#D7219C" points="68.3953795 322 72 319.088137 32.6330033 271 29 273.911863"></polygon>
            <g id="Group" transform="translate(103.000000, 65.000000)">
                <path d="M128.952229,22.2598291 C127.003185,19.8769231 124.681529,17.9589744 122.187898,16.4769231 C120.267516,15.3435897 118.203822,14.5589744 116.111465,13.8905983 C111.066879,12.3213675 104.789809,12.7863248 99.0286624,15.3435897 L99.0286624,15.3435897 C69.7643312,27.4615385 51.5350318,10.9264957 49.2707006,8.68888889 C49.2420382,8.65982906 49.1847134,8.6017094 49.156051,8.57264957 C49.0700637,8.48547009 49.0127389,8.42735043 49.0127389,8.42735043 L49.0127389,8.42735043 C47.2929936,6.71282051 45.3726115,5.23076923 43.3375796,4.03931624 C41.1592357,2.76068376 38.8375796,1.88888889 36.4872611,1.13333333 C28.7770701,-1.27863248 18.4299363,0.523076923 10.5191083,6.88717949 C5.50318471,10.8974359 2.43630573,16.5059829 1.03184713,22.3470085 C-1.03184713,31.0068376 0.859872611,40.4803419 6.90764331,47.8324786 C8.88535032,50.2444444 11.2070064,52.2495726 13.7006369,53.8188034 L13.7006369,53.8188034 C13.7292994,53.8188034 13.7579618,53.8478632 13.7579618,53.8478632 C14.7038217,54.4581197 15.7070064,54.9811966 16.7101911,55.4752137 C56.8949045,76.6888889 106.93949,64.5128205 106.93949,64.5128205 L106.93949,64.5128205 C108.085987,64.6290598 109.232484,64.6581197 110.378981,64.6290598 C115.824841,64.425641 121.242038,62.4495726 125.742038,58.6136752 C136.576433,49.5179487 138.009554,33.2153846 128.952229,22.2598291 Z" id="Path" fill="#D7219C"></path>
                <path d="M123.047771,27.2290598 C122.675159,26.7931624 122.302548,26.3863248 121.929936,25.9794872 C117.372611,31.9948718 108.229299,40.4803419 92.0350318,42.8051282 C92.6369427,45.5076923 93.8694268,48.1230769 95.7611465,50.4188034 C99.4299363,54.8940171 104.789809,57.0735043 110.121019,56.8700855 C113.933121,56.7247863 117.687898,55.3589744 120.840764,52.6854701 C128.378981,46.2632479 129.353503,34.8717949 123.047771,27.2290598 Z" id="Path" fill="#FFFFFF"></path>
            </g>
            <path d="M315.388138,123.013068 C312.254838,108.440312 297.8819,99.1562874 283.278996,102.289286 C278.938369,103.209066 275.086422,105.134854 271.89563,107.77922 L271.89563,107.77922 C271.809392,107.865449 271.723154,107.922936 271.636917,108.009165 C271.521933,108.124137 271.378204,108.210367 271.26322,108.325339 C246.283055,129.566497 220.929193,132.067147 206.412527,131.26234 C206.383781,128.991634 205.69388,126.778415 203.825398,124.910113 C201.123286,122.179518 198.622394,120.081271 196.150249,118.5004 L196.178995,118.5004 C98.7304793,41.8425284 21.7202804,133.84922 21.7202804,133.84922 L21.7202804,133.84922 C14.8787622,141.638602 12.866551,153.049616 17.5233827,163.052218 C23.8187293,176.590223 39.8876734,182.453817 53.3982346,176.159076 C57.422657,174.290774 60.7571785,171.560179 63.2868155,168.312207 L63.2868155,168.312207 C63.3443073,168.225978 63.4305449,168.139749 63.4880366,168.053519 C63.5742743,167.909804 63.6892578,167.794831 63.7754954,167.651116 C82.1441094,143.133244 104.048466,134.280366 118.277674,131.089881 C101.461337,138.93675 83.8688619,150.836397 69.610908,168.915813 C57.3939112,184.408348 51.5010068,203.350057 57.6238782,219.589913 C59.4061224,224.27504 64.0342083,232.380597 67.311238,237.49687 L131.242064,330.854488 L151.191701,360 L217.422197,360 C225.442296,360 231.967609,353.504057 231.967609,345.455987 C231.967609,337.407916 225.471042,330.911974 217.422197,330.911974 L207.102428,330.911974 L138.112328,230.885955 L183.588302,168.312207 C246.398039,195.014555 304.78091,150.520223 304.78091,150.520223 L304.78091,150.520223 C313.232198,144.48417 317.716554,133.820477 315.388138,123.013068 Z" id="Path" fill="#99D2F7"></path>
            <polygon id="Path" fill="#D7219C" points="203 322 199.751456 317 124 317 127.248544 322"></polygon>
            <path d="M172.092357,299 C176.320433,299 180.31841,298.157808 184,296.61863 L177.959891,287.761096 C176.090334,288.312877 174.134489,288.603288 172.121119,288.603288 C160.61615,288.603288 151.268362,279.164932 151.268362,267.548493 C151.268362,262.785753 152.850296,258.400548 155.496439,254.857534 L149.45633,246 C144.221569,251.633973 141,259.213699 141,267.548493 C140.942652,284.915068 154.892428,299 172.092357,299 Z" id="Path" fill="#B3DDF9"></path>
            <path d="M150,266.768303 C150,278.482343 159.455819,288 171.09375,288 C173.159483,288 175.137931,287.677864 177,287.150732 L154.27694,254 C151.600216,257.543497 150,261.965547 150,266.768303 Z" id="Path" fill="#CCE9FB"></path>
            <g id="Group" transform="translate(47.000000, 87.000000)">
                <path d="M23.9479167,33.9135593 C41.078125,33.9135593 54.9713542,19.9389831 54.9713542,2.70847458 C54.9713542,1.8440678 54.9140625,0.979661017 54.8567708,0.144067797 C51.390625,0.633898305 47.9817708,1.29661017 44.6875,2.10338983 C44.6875,2.30508475 44.7161458,2.50677966 44.7161458,2.70847458 C44.7161458,14.2338983 35.40625,23.5983051 23.9479167,23.5983051 C18.0182292,23.5983051 12.6901042,21.0915254 8.90885417,17.0864407 C5.81510417,18.959322 2.921875,20.8610169 0.200520833,22.7627119 C5.90104167,29.5915254 14.4375,33.9135593 23.9479167,33.9135593 Z" id="Path" fill="#B3DDF9"></path>
                <path d="M23.9479167,23.5983051 C35.40625,23.5983051 44.7161458,14.2338983 44.7161458,2.70847458 C44.7161458,2.50677966 44.6875,2.30508475 44.6875,2.10338983 C31.0520833,5.38813559 19.0208333,11.0067797 8.9375,17.0864407 C12.71875,21.0915254 18.046875,23.5983051 23.9479167,23.5983051 Z" id="Path" fill="#871FFF"></path>
            </g>
            <g id="Group" transform="translate(123.000000, 119.000000)">
                <polygon id="Rectangle" fill="#B3DDF9" transform="translate(64.533924, 18.583688) rotate(-142.692362) translate(-64.533924, -18.583688) " points="62.992878 -3.41047047 65.7456567 -3.38976709 66.07497 40.5778469 63.3221912 40.5571435"></polygon>
                <polygon id="Rectangle" fill="#B3DDF9" transform="translate(43.244902, 29.881917) rotate(-142.692362) translate(-43.244902, -29.881917) " points="41.6589069 9.54295094 44.5263847 9.56451697 44.830897 50.220883 41.9634192 50.199317"></polygon>
                <polygon id="Rectangle" fill="#B3DDF9" transform="translate(13.600804, 25.030995) rotate(-142.692362) translate(-13.600804, -25.030995) " points="12.0148091 4.69202913 14.882287 4.71359515 15.1867993 45.3699612 12.3193215 45.3483952"></polygon>
                <polygon id="Rectangle" fill="#CCE9FB" transform="translate(35.769221, 42.166587) rotate(37.307638) translate(-35.769221, -42.166587) " points="8.94942114 21.6378398 62.2845094 22.0389679 62.5890217 62.695334 9.25393346 62.2942058"></polygon>
                <polygon id="Rectangle" fill="#E6F4FD" transform="translate(57.323435, 40.795587) rotate(37.307638) translate(-57.323435, -40.795587) " points="40.7405309 20.3438305 73.6018272 20.5909772 73.9063395 61.2473432 41.0450432 61.0001966"></polygon>
                <polygon id="Rectangle" fill="#CCE9FB" transform="translate(70.537895, 23.220274) rotate(37.307638) translate(-70.537895, -23.220274) " points="64.0791241 1.18912921 76.667352 1.28380408 76.9966652 45.2514181 64.4084374 45.1567432"></polygon>
                <ellipse id="Oval" fill="#D7219C" cx="63.0316184" cy="33.3011583" rx="3.33569132" ry="3.38803089"></ellipse>
                <ellipse id="Oval" fill="#D7219C" cx="27.6789925" cy="21.4864865" rx="3.33569132" ry="3.38803089"></ellipse>
                <ellipse id="Oval" fill="#D7219C" cx="21.0931404" cy="30.2316602" rx="3.33569132" ry="3.38803089"></ellipse>
                <ellipse id="Oval" fill="#871FFF" cx="14.5357985" cy="39.0057915" rx="3.33569132" ry="3.38803089"></ellipse>
                <polygon id="Rectangle" fill="#871FFF" transform="translate(51.732048, 43.858572) rotate(37.307638) translate(-51.732048, -43.858572) " points="42.7741951 42.2796297 60.667257 42.4142017 60.6899013 45.4375151 42.7968394 45.3029431"></polygon>
                <polygon id="Rectangle" fill="#80C7F5" transform="translate(27.832230, 35.495706) rotate(127.307638) translate(-27.832230, -35.495706) " points="13.950708 34.0943363 41.7363973 33.8862241 41.7137529 36.8970759 13.9280636 37.105188"></polygon>
                <polygon id="Rectangle" fill="#80C7F5" transform="translate(32.532051, 39.131480) rotate(127.307638) translate(-32.532051, -39.131480) " points="18.6505288 37.7301104 46.4362181 37.5219982 46.4135738 40.53285 18.6278845 40.7409622"></polygon>
                <polygon id="Rectangle" fill="#D7219C" transform="translate(62.400436, 52.134717) rotate(37.307638) translate(-62.400436, -52.134717) " points="60.8836877 50.6117379 63.8945395 50.6343822 63.9171838 53.6576955 60.9063321 53.6350512"></polygon>
                <polygon id="Rectangle" fill="#871FFF" transform="translate(47.561048, 49.413211) rotate(37.307638) translate(-47.561048, -49.413211) " points="38.6031954 47.8342687 56.4962572 47.9688407 56.5189015 50.9921541 38.6258397 50.8575821"></polygon>
                <polygon id="Rectangle" fill="#D7219C" transform="translate(58.246659, 57.666352) rotate(37.307638) translate(-58.246659, -57.666352) " points="56.729911 56.143373 59.7407628 56.1660173 59.7634071 59.1893307 56.7525553 59.1666863"></polygon>
            </g>
            <path d="M112.340502,148.948276 L113,133 C105.635603,136.994253 98.1887694,141.850575 91.0716846,147.827586 L90,173 L112.340502,148.948276 Z" id="Path" fill="#CCE9FB"></path>
            <path d="M83.8745604,178.073268 L85,152 C79.8229777,156.693761 74.8429074,161.959931 70.2286049,167.912994 C66.936694,172.148827 64.123095,176.642244 61.9003517,181.278764 L61,202 L83.8745604,178.073268 Z" id="Path" fill="#CCE9FB"></path>
            <polygon id="Path" fill="#871FFF" points="330.901031 90 330.901031 93.3661202 321 93.3661202 321 97.6338798 330.901031 97.6338798 330.901031 101 335 101 335 90"></polygon>
            <polygon id="Path" fill="#D7219C" points="310.630769 257 310.630769 259.142857 317 259.142857 317 261.857143 310.630769 261.857143 310.630769 264 308 264 308 257"></polygon>
            <g id="Group" transform="translate(242.000000, 0.000000)">
                <polygon id="Rectangle" fill="#FFFFFF" transform="translate(134.035943, 52.961728) rotate(163.346304) translate(-134.035943, -52.961728) " points="91.3328957 22.7194497 176.654319 22.8386168 176.73899 83.204006 91.417567 83.0848389"></polygon>
                <polygon id="Rectangle" fill="#FFFFFF" transform="translate(71.178447, 71.666807) rotate(163.346304) translate(-71.178447, -71.666807) " points="37.8046868 53.5908706 104.501629 53.6840252 104.552207 89.742743 37.8552645 89.6495884"></polygon>
                <polygon id="Rectangle" fill="#FFFFFF" transform="translate(36.112941, 82.110301) rotate(163.346304) translate(-36.112941, -82.110301) " points="12.0915052 72.1018622 60.1063951 72.1689238 60.1343777 92.1187391 12.1194878 92.0516774"></polygon>
                <polygon id="Rectangle" fill="#FFFFFF" transform="translate(179.743360, 39.910494) rotate(163.346304) translate(-179.743360, -39.910494) " points="169.240182 1.47244105 190.138749 1.50162976 190.246538 78.3485474 169.347971 78.3193587"></polygon>
                <polygon id="Rectangle" fill="#871FFF" transform="translate(8.481657, 90.427563) rotate(-16.653696) translate(-8.481657, -90.427563) " points="3.61356213 77.8231682 13.3144122 77.8367172 13.3497522 103.031958 3.64890217 103.018409"></polygon>
                <g transform="translate(160.396848, 5.730028)" fill="#B3DDF9" id="Rectangle">
                    <polygon transform="translate(10.629701, 5.174966) rotate(163.346304) translate(-10.629701, -5.174966) " points="0.177602763 3.15392422 21.07617 3.18311293 21.0817986 7.1960068 0.183231439 7.16681809"></polygon>
                    <polygon transform="translate(13.531178, 14.829744) rotate(163.346304) translate(-13.531178, -14.829744) " points="3.07906955 12.8087027 23.9776572 12.8378914 23.9832859 16.8507853 3.08469823 16.8215965"></polygon>
                    <polygon transform="translate(16.440927, 24.511966) rotate(163.346304) translate(-16.440927, -24.511966) " points="5.98882953 22.490925 26.8873967 22.5201137 26.8930254 26.5330076 5.9944582 26.5038189"></polygon>
                    <polygon transform="translate(19.342386, 34.166742) rotate(163.346304) translate(-19.342386, -34.166742) " points="8.89028756 32.1457005 29.7888548 32.1748892 29.7944834 36.1877831 8.89591624 36.1585944"></polygon>
                    <polygon transform="translate(22.252125, 43.848938) rotate(163.346304) translate(-22.252125, -43.848938) " points="11.8000275 41.8278971 32.6985947 41.8570858 32.7042234 45.8699797 11.8056562 45.840791"></polygon>
                    <polygon transform="translate(25.153612, 53.503714) rotate(163.346304) translate(-25.153612, -53.503714) " points="14.7015143 51.4826727 35.6000815 51.5118614 35.6057102 55.5247552 14.707143 55.4955665"></polygon>
                    <polygon transform="translate(28.063323, 63.185939) rotate(163.346304) translate(-28.063323, -63.185939) " points="17.6112255 61.1648979 38.5097927 61.1940866 38.5154213 65.2069805 17.6168541 65.1777918"></polygon>
                </g>
                <polygon id="Path" fill="#871FFF" points="166.588109 74.8055096 178.279513 71.338843 160.88639 13.522865 157.718768 14.4683196"></polygon>
                <polygon id="Path" fill="#871FFF" points="89.989255 84.9190083 98.3402579 82.4264463 87.9734957 47.9030303 84.6906877 48.9057851"></polygon>
                <polygon id="Path" fill="#871FFF" points="36.9747851 92.3107438 42.1005731 90.7922865 36.3700573 71.6826446 33.7783668 72.4275482"></polygon>
                <polygon id="Rectangle" fill="#B3DDF9" transform="translate(125.025846, 66.202131) rotate(-16.653696) translate(-125.025846, -66.202131) " points="105.213021 50.1229148 144.793641 50.1781965 144.83867 82.2813474 105.258051 82.2260658"></polygon>
                <ellipse id="Oval" fill="#80C7F5" cx="136.870057" cy="50.6247934" rx="1.8717765" ry="1.86225895"></ellipse>
                <ellipse id="Oval" fill="#80C7F5" cx="106.403295" cy="59.6782369" rx="1.8717765" ry="1.86225895"></ellipse>
                <ellipse id="Oval" fill="#80C7F5" cx="143.608453" cy="73.0292011" rx="1.8717765" ry="1.86225895"></ellipse>
                <ellipse id="Oval" fill="#80C7F5" cx="113.141691" cy="82.0826446" rx="1.8717765" ry="1.86225895"></ellipse>
            </g>
            <g id="Group" transform="translate(223.000000, 113.000000)" fill="#FFFFFF">
                <rect id="Rectangle" x="92.8220211" y="0.114551804" width="4.2413273" height="244.940396"></rect>
                <polygon id="Rectangle" transform="translate(145.140771, 130.227911) rotate(-20.364926) translate(-145.140771, -130.227911) " points="142.992835 7.74642578 147.233831 7.74737533 147.288707 252.709396 143.04771 252.708447"></polygon>
                <polygon id="Rectangle" transform="translate(44.694974, 130.224058) rotate(-69.627708) translate(-44.694974, -130.224058) " points="-77.7792994 128.07624 167.168297 128.131129 167.169247 132.371875 -77.7783496 132.316987"></polygon>
            </g>
            <polygon id="Path" fill="#871FFF" points="296.804933 104 296.804933 117.909175 292.088004 117.909175 292.088004 114.557924 288 114.557924 288 125.442076 292.088004 125.442076 292.088004 122.120482 296.804933 122.120482 296.804933 136 339 136 339 104"></polygon>
            <path d="M317.5,121 L317.5,121 C322.761076,121 327,116.954896 327,111.99822 L327,82.0017804 C327,77.0166172 322.731013,73 317.5,73 L317.5,73 C312.238924,73 308,77.0451039 308,82.0017804 L308,111.99822 C308,116.983383 312.238924,121 317.5,121 Z" id="Path" fill="#80C7F5"></path>
            <circle id="Oval" fill="#871FFF" cx="318" cy="114" r="3"></circle>
            <circle id="Oval" fill="#871FFF" cx="318" cy="82" r="3"></circle>
            <rect id="Rectangle" fill="#000000" x="315" y="348" width="7" height="13"></rect>
            <rect id="Rectangle" fill="#D7219C" x="315" y="254" width="7" height="11"></rect>
            <polygon id="Rectangle" fill="#000000" transform="translate(409.575748, 354.848923) rotate(-20.364926) translate(-409.575748, -354.848923) " points="405.847906 347.870908 413.30896 347.868035 413.30359 361.826937 405.842537 361.82981"></polygon>
            <polygon id="Rectangle" fill="#D7219C" transform="translate(372.585936, 254.969865) rotate(-20.364926) translate(-372.585936, -254.969865) " points="368.857636 249.183814 376.318689 249.180941 376.314237 260.755916 368.853184 260.758788"></polygon>
            <polygon id="Rectangle" fill="#000000" transform="translate(226.605150, 354.613105) rotate(-69.640446) translate(-226.605150, -354.613105) " points="219.799703 350.885326 233.413469 350.880091 233.410597 358.340884 219.796832 358.34612"></polygon>
            <polygon id="Rectangle" fill="#D7219C" transform="translate(263.573777, 254.905372) rotate(-69.640446) translate(-263.573777, -254.905372) " points="257.787927 251.177201 269.362499 251.17275 269.359628 258.633543 257.785055 258.637994"></polygon>
            <path d="M243.379584,150 C228.491576,150 216.046581,160.791334 213,175.22919 C216.535183,175.673888 220.012884,175.91106 223.433102,176 C225.99108,167.106043 233.952428,160.613455 243.408325,160.613455 C250.852329,160.613455 257.347869,164.645382 261.026759,170.693273 C264.50446,169.655644 267.838454,168.49943 271,167.283922 C265.79782,157.026226 255.393459,150 243.379584,150 Z" id="Path" fill="#B3DDF9"></path>
            <path d="M261,170.806857 C257.379205,164.922743 250.957951,161 243.659786,161 C234.353211,161 226.517584,167.316769 224,175.969878 C237.408257,176.287159 249.96789,174.066194 261,170.806857 Z" id="Path" fill="#871FFF"></path>
        </g>
        <g id="Group" transform="translate(946.000000, 84.000000)" fill-rule="nonzero">
            <path d="M88.9924005,29.7980197 C48.2300408,3.82237712 8.82509551,-7.25312693 1,4.97773545 L21.8403054,18.2444363 C26.6311802,10.7545271 54.7775697,20.0770737 84.6406893,39.1205663 C114.543733,58.1640588 134.865027,79.6776278 130.074152,87.167537 L148.638792,99 C156.463887,86.7292977 129.75476,55.7736623 88.9924005,29.7980197 Z" id="Path" fill="#FFFFFF"></path>
            <circle id="Oval" fill="url(#linearGradient-5)" cx="74" cy="55" r="51"></circle>
            <path d="M67.6349763,66.3136717 C37.7319327,47.2701791 17.4106388,25.7566101 22.2015136,18.2667009 L1.36120818,5 C-6.46388733,17.2707023 20.2452397,48.2263377 61.0075995,74.2019803 C101.769959,100.177623 141.174904,111.253127 149,99.0222645 L130.43536,87.1898016 C125.644485,94.7195507 97.5380198,85.3571642 67.6349763,66.3136717 Z" id="Path" fill="#FFFFFF"></path>
        </g>
        <g id="Group" transform="translate(1278.000000, 152.000000)" fill="#FFFFFF" fill-rule="nonzero">
            <g id="Path">
                <path d="M35.7248677,53.625 L2.4973545,53.625 C1.65079365,53.625 0.846560847,53.5402174 0.0423280423,53.3282609 C1.77777778,57.3554348 5.7989418,60.1532609 10.4550265,60.1532609 L43.6402116,60.1532609 L35.7248677,53.625 Z"></path>
                <path d="M70.8994709,0.29673913 C71.4920635,1.69565217 71.8306878,3.22173913 71.8306878,4.8326087 L71.8306878,42.3065217 C71.8306878,48.5380435 66.7089947,53.6673913 60.4867725,53.6673913 L56.8888889,53.6673913 L56.8888889,71.2173913 L64.8465608,77.8304348 L64.8465608,60.1956522 L68.4444444,60.1956522 C74.6666667,60.1956522 79.7883598,55.0663043 79.7883598,48.8347826 L79.7883598,11.3608696 C79.7883598,5.97717391 75.9365079,1.39891304 70.8994709,0.29673913 Z"></path>
            </g>
            <ellipse id="Oval" cx="14.2222222" cy="24.8413043" rx="5.67195767" ry="5.68043478"></ellipse>
            <ellipse id="Oval" cx="31.4920635" cy="24.8413043" rx="5.67195767" ry="5.68043478"></ellipse>
            <ellipse id="Oval" cx="49.1851852" cy="24.8413043" rx="5.67195767" ry="5.68043478"></ellipse>
        </g>
        <g id="Group" transform="translate(1567.000000, 123.000000)" fill="#FFFFFF" fill-rule="nonzero">
            <g id="Path">
                <path d="M35.8095238,53.0163934 L2.58201058,53.0163934 C1.73544974,53.0163934 0.931216931,52.9322404 0.126984127,52.7218579 C1.86243386,56.7191257 5.88359788,59.4961749 10.5396825,59.4961749 L43.7248677,59.4961749 L35.8095238,53.0163934 Z"></path>
                <path d="M70.984127,0.0420765027 C71.5767196,1.43060109 71.9153439,2.94535519 71.9153439,4.5442623 L71.9153439,41.7398907 C71.9153439,47.9251366 66.7936508,53.0163934 60.5714286,53.0163934 L56.973545,53.0163934 L56.973545,70.4360656 L64.9312169,77 L64.9312169,59.5382514 L68.5291005,59.5382514 C74.7513228,59.5382514 79.8730159,54.4469945 79.8730159,48.2617486 L79.8730159,11.0661202 C79.8730159,5.68032787 76.0634921,1.17814208 70.984127,0.0420765027 Z"></path>
            </g>
            <path d="M11.2592593,20.1546448 L11.2592593,37.6584699 C11.2592593,39.5519126 12.7830688,41.0666667 14.6878307,41.0666667 L44.2751323,41.0666667 C46.1798942,41.0666667 47.7037037,39.5519126 47.7037037,37.6584699 L47.7037037,34.3765027 L55.7883598,40.9404372 C56.5502646,41.5715847 57.7354497,41.0245902 57.7354497,40.0147541 L57.7354497,17.7562842 C57.7354497,16.7464481 56.5502646,16.1994536 55.7883598,16.8306011 L47.7037037,23.3945355 L47.7037037,20.1125683 C47.7037037,18.2612022 46.2222222,16.7885246 44.4021164,16.7043716 C45.9259259,15.063388 46.8148148,12.8754098 46.8148148,10.4770492 C46.8148148,5.34371585 42.5820106,1.13606557 37.4179894,1.13606557 C34.0740741,1.13606557 31.1534392,2.90327869 29.4603175,5.51202186 C27.8095238,2.90327869 24.8465608,1.13606557 21.5026455,1.13606557 C16.3386243,1.13606557 12.1058201,5.34371585 12.1058201,10.4770492 C12.1058201,12.8754098 13.037037,15.063388 14.5185185,16.7043716 C12.7407407,16.7885246 11.2592593,18.3032787 11.2592593,20.1546448 Z M27.1746032,10.4770492 C27.1746032,13.5486339 24.6349206,16.073224 21.5449735,16.073224 C18.4550265,16.073224 15.9153439,13.5486339 15.9153439,10.4770492 C15.9153439,7.40546448 18.4550265,4.88087432 21.5449735,4.88087432 C24.6349206,4.92295082 27.1746032,7.40546448 27.1746032,10.4770492 Z M43.047619,10.4770492 C43.047619,13.5486339 40.5079365,16.073224 37.4179894,16.073224 C34.3280423,16.073224 31.7883598,13.5486339 31.7883598,10.4770492 C31.7883598,7.40546448 34.3280423,4.88087432 37.4179894,4.88087432 C40.5079365,4.88087432 43.047619,7.40546448 43.047619,10.4770492 Z" id="Shape"></path>
        </g>
        <g id="Group" transform="translate(1761.000000, 258.000000)" fill="#FFFFFF" fill-rule="nonzero">
            <g id="Path">
                <path d="M35.8315789,53.4978261 L2.77894737,53.4978261 C1.93684211,53.4978261 1.13684211,53.4130435 0.336842105,53.201087 C2.06315789,57.2282609 6.06315789,60.026087 10.6947368,60.026087 L43.7052632,60.026087 L35.8315789,53.4978261 Z"></path>
                <path d="M70.8210526,0.169565217 C71.4105263,1.56847826 71.7473684,3.09456522 71.7473684,4.70543478 L71.7473684,42.1793478 C71.7473684,48.4108696 66.6526316,53.5402174 60.4631579,53.5402174 L56.8842105,53.5402174 L56.8842105,71.0902174 L64.8,77.7032609 L64.8,60.1108696 L68.3789474,60.1108696 C74.5684211,60.1108696 79.6631579,54.9815217 79.6631579,48.75 L79.6631579,11.276087 C79.6631579,5.85 75.8736842,1.27173913 70.8210526,0.169565217 Z"></path>
            </g>
            <g transform="translate(8.421053, 2.119565)">
                <ellipse id="Oval" cx="25.8526316" cy="37.05" rx="5.05263158" ry="5.08695652"></ellipse>
                <g id="Path">
                    <path d="M47.6631579,14.5826087 C41.8105263,8.775 34.0210526,5.59565217 25.8105263,5.59565217 C17.6,5.59565217 9.85263158,8.775 3.95789474,14.5826087 L0.252631579,10.7673913 C7.11578947,3.98478261 16.2105263,0.254347826 25.8105263,0.254347826 C35.4105263,0.254347826 44.5052632,3.98478261 51.3684211,10.7673913 L47.6631579,14.5826087 Z"></path>
                    <path d="M40.6736842,21.7891304 C36.6736842,17.8467391 31.4105263,15.6847826 25.8526316,15.6847826 C20.2947368,15.6847826 15.0315789,17.8467391 11.0315789,21.7891304 L7.32631579,17.973913 C12.3368421,13.0565217 18.9052632,10.3434783 25.8947368,10.3434783 C32.8842105,10.3434783 39.4526316,13.0565217 44.4631579,17.973913 L40.6736842,21.7891304 Z"></path>
                    <path d="M33.5157895,29.1652174 C31.4526316,27.1304348 28.7157895,25.9858696 25.8526316,25.9858696 C22.9894737,25.9858696 20.2526316,27.0880435 18.1473684,29.1652174 L14.4421053,25.35 C17.5157895,22.3402174 21.5578947,20.6445652 25.8526316,20.6445652 C30.1473684,20.6445652 34.1894737,22.2978261 37.2631579,25.35 L33.5157895,29.1652174 Z"></path>
                </g>
            </g>
        </g>
        <path d="M1801,513.541667 C1801,513.541667 1801,513.5 1801,513.5 C1801,513.5 1801,513.458333 1801,513.458333 C1784.08333,513.166667 1781.83333,510.958333 1781.54167,494 C1781.54167,494 1781.5,494 1781.5,494 C1781.5,494 1781.45833,494 1781.45833,494 C1781.16667,510.916667 1778.95833,513.166667 1762,513.458333 C1762,513.458333 1762,513.5 1762,513.5 C1762,513.5 1762,513.541667 1762,513.541667 C1778.91667,513.833333 1781.16667,516.041667 1781.45833,533 C1781.45833,533 1781.5,533 1781.5,533 C1781.5,533 1781.54167,533 1781.54167,533 C1781.875,516.041667 1784.08333,513.791667 1801,513.541667 Z" id="Path" fill="url(#radialGradient-6)" fill-rule="nonzero"></path>
        <path d="M1814,82.0417755 C1814,82.0417755 1814,82.0417755 1814,82.0417755 C1814,82 1814,82 1814,81.9582245 C1800.13055,81.7075718 1798.29243,79.9112272 1798.04178,66 C1798.04178,66 1798,66 1798,66 C1798,66 1797.95822,66 1797.95822,66 C1797.70757,79.8694517 1795.91123,81.7075718 1782,81.9582245 C1782,81.9582245 1782,82 1782,82 C1782,82 1782,82.0417755 1782,82.0417755 C1795.86945,82.2924282 1797.70757,84.0887728 1797.95822,98 C1797.95822,98 1798,98 1798,98 C1798,98 1798.04178,98 1798.04178,98 C1798.29243,84.1305483 1800.13055,82.2924282 1814,82.0417755 Z" id="Path" fill="url(#radialGradient-7)" fill-rule="nonzero"></path>
        <path d="M400,62.0417755 C400,62.0417755 400,62.0417755 400,62.0417755 C400,62 400,62 400,61.9582245 C386.130548,61.7075718 384.292428,59.9112272 384.041775,46 C384.041775,46 384,46 384,46 C384,46 383.958225,46 383.958225,46 C383.707572,59.8694517 381.911227,61.7075718 368,61.9582245 C368,61.9582245 368,62 368,62 C368,62 368,62.0417755 368,62.0417755 C381.869452,62.2924282 383.707572,64.0887728 383.958225,78 C383.958225,78 384,78 384,78 C384,78 384.041775,78 384.041775,78 C384.292428,64.1305483 386.130548,62.2924282 400,62.0417755 Z" id="Path" fill="url(#radialGradient-7)" fill-rule="nonzero"></path>
        <circle id="Oval" fill="#FFFFFF" fill-rule="nonzero" cx="689.5" cy="84.5" r="2.5"></circle>
        <g id="Group" transform="translate(813.000000, 162.000000)" fill-rule="nonzero">
            <g transform="translate(139.125964, 82.145669)" id="Oval">
                <ellipse fill="#FFFFFF" cx="12.3105398" cy="12.5114173" rx="2.36092545" ry="2.35905512"></ellipse>
                <ellipse fill="url(#radialGradient-8)" cx="12.3105398" cy="12.5114173" rx="12.3105398" ry="12.3007874"></ellipse>
            </g>
            <path d="M0.42159383,0.168503937 L38.7023136,22.9586614 L76.8565553,45.9173228 C89.5465296,53.584252 102.48946,60.9562992 114.884319,69.0866142 C127.321337,77.2169291 139.631877,85.515748 151.562982,94.4464567 L151.310026,94.8255906 C138.02982,88.0433071 125.171208,80.6291339 112.396915,73.0464567 C99.6226221,65.4637795 87.3542416,57.1228346 74.8750643,49.0767717 L37.4796915,24.8964567 L0.168637532,0.547637795 L0.42159383,0.168503937 Z" id="Path" fill="url(#linearGradient-9)"></path>
        </g>
    </g>
</svg>
