<svg width="336" height="107" viewBox="0 0 336 107" fill="none" xmlns="http://www.w3.org/2000/svg">
<path d="M0 0H336V107H0V0Z" fill="#FB8FD8"/>
<mask id="mask0" mask-type="alpha" maskUnits="userSpaceOnUse" x="0" y="0" width="336" height="107">
<path d="M0 0H336V107H0V0Z" fill="#FA7454"/>
</mask>
<g mask="url(#mask0)">
<rect width="336" height="24" fill="#4D4D4D"/>
<circle cx="15.6923" cy="11.6923" r="3.69231" fill="#E61D1D"/>
<circle cx="28" cy="11.6923" r="3.69231" fill="#FA9F00"/>
<circle cx="40.3077" cy="11.6923" r="3.69231" fill="#32AF4C"/>
<g clip-path="url(#clip0)">
<path fill-rule="evenodd" clip-rule="evenodd" d="M155.121 58.546C155.213 59.4886 154.935 60.4814 154.358 61.5716C153.534 63.037 151.857 63.9246 149.398 64.467C147.48 64.8902 146.28 65.1429 145.735 65.2364C144.945 65.4186 144.198 65.4063 143.501 65.1251C142.809 64.8454 142.248 64.3544 141.859 63.7083L141.755 63.5121L141.084 62.053C140.41 60.5868 140.395 58.9641 140.993 57.2566C141.531 55.788 142.656 54.5611 144.287 53.5532C145.723 52.6666 147.379 51.9376 149.254 51.3612C151.072 50.8023 152.963 50.3786 154.925 50.0899C156.883 49.8019 158.666 49.6604 160.279 49.6677C161.892 49.6749 163.677 49.8325 165.637 50.1381C167.602 50.4444 169.497 50.8851 171.32 51.4604C173.2 52.0536 174.863 52.7976 176.306 53.6971C177.947 54.7198 179.083 55.9568 179.634 57.4303C180.247 59.1433 180.248 60.7659 179.587 62.2261L178.929 63.6792L178.827 63.8745C178.443 64.5172 177.887 65.0031 177.197 65.2766C176.48 65.5607 175.706 65.5572 174.944 65.3624C174.509 65.2659 173.301 64.9965 171.318 64.5538C168.826 63.9973 167.127 63.077 166.336 61.5972C165.736 60.5422 165.433 59.5456 165.518 58.5888C165.128 58.34 164.384 58.1299 163.3 58.0239C161.942 57.8911 160.948 57.8239 160.344 57.8212C159.707 57.8183 158.705 57.8806 157.362 58.0099C156.299 58.1122 155.543 58.3098 155.121 58.546ZM149.121 67.8787C149.684 67.3161 150.447 67 151.243 67H168.757C169.553 67 170.316 67.3161 170.879 67.8787L179.121 76.1213C179.684 76.6839 180 77.447 180 78.2426V84.5C180 86 179 87 177.5 87H142.5C141 87 140 86 140 84.5V78.2426C140 77.447 140.316 76.6839 140.879 76.1213L149.121 67.8787ZM155 77C155 79.75 157.25 82 160 82C162.75 82 165 79.75 165 77C165 74.25 162.75 72 160 72C157.25 72 155 74.25 155 77Z" fill="white"/>
</g>
<g filter="url(#filter0_d)">
<path fill-rule="evenodd" clip-rule="evenodd" d="M194.582 80.0676L205 76.3707L177 61L185.163 91.8456L191.276 82.6467L198.595 92L201.901 89.4209L194.582 80.0676V80.0676Z" fill="#363B3E"/>
<path d="M205.167 76.8419L206.218 76.469L205.241 75.9324L177.241 60.5617L176.218 60.0005L176.517 61.1279L184.68 91.9735L184.964 93.0483L185.579 92.1223L191.309 83.5004L198.201 92.3081L198.508 92.7013L198.902 92.3942L202.208 89.8151L202.603 89.5071L202.294 89.1127L195.404 80.3065L205.167 76.8419Z" stroke="white" stroke-opacity="0.8"/>
</g>
</g>
<defs>
<filter id="filter0_d" x="172.437" y="57.001" width="37.9996" height="41.2501" filterUnits="userSpaceOnUse" color-interpolation-filters="sRGB">
<feFlood flood-opacity="0" result="BackgroundImageFix"/>
<feColorMatrix in="SourceAlpha" type="matrix" values="0 0 0 0 0 0 0 0 0 0 0 0 0 0 0 0 0 0 127 0"/>
<feOffset dy="1"/>
<feGaussianBlur stdDeviation="1.5"/>
<feColorMatrix type="matrix" values="0 0 0 0 0 0 0 0 0 0 0 0 0 0 0 0 0 0 0.25 0"/>
<feBlend mode="normal" in2="BackgroundImageFix" result="effect1_dropShadow"/>
<feBlend mode="normal" in="SourceGraphic" in2="effect1_dropShadow" result="shape"/>
</filter>
<clipPath id="clip0">
<rect width="40" height="40" fill="white" transform="translate(140 47)"/>
</clipPath>
</defs>
</svg>
