<svg width="336" height="107" viewBox="0 0 336 107" fill="none" xmlns="http://www.w3.org/2000/svg">
<path d="M0 0H336V107H0V0Z" fill="#FA9F00"/>
<mask id="mask0" mask-type="alpha" maskUnits="userSpaceOnUse" x="0" y="0" width="336" height="107">
<path d="M0 0H336V107H0V0Z" fill="#FA9F00"/>
</mask>
<g mask="url(#mask0)">
<path d="M168.33 66.8257H167.634L-32.2715 160.138H368.271L168.33 66.8257Z" fill="white"/>
<path d="M174.649 12.3127C171.935 10.7747 165.568 15.3293 155.553 16.8706C144.549 21.8499 146.178 36.8122 146.178 36.8122C151.565 32.9558 153.584 25.0741 153.584 25.0741H177.484C179.582 32.811 185.395 36.8122 185.395 36.8122C185.485 24.2954 179.973 14.4975 174.649 12.3127ZM289.573 220.769C275.039 221.489 262.68 210.318 261.965 195.836C260.936 174.955 255.556 157.194 245.976 143.044C238.424 131.89 228.048 122.631 215.14 115.528C210.297 112.864 205.434 110.685 200.756 108.904L234.401 213.105H105.764L130.721 107.173C120.963 110.899 112.678 116.339 105.764 123.575C79.7799 150.774 81.2122 195.013 81.2332 195.452C81.9517 209.933 70.7537 222.252 56.2197 222.968C55.7772 222.989 55.3348 223 54.8956 223C40.9413 223 29.2992 212.084 28.6033 198.045C28.4692 195.334 25.7872 131.14 67.5953 87.3764C87.868 66.1542 114.425 53.5666 146.719 49.7971L148.307 44.105H148.313C151.593 50.365 158.163 54.6429 165.742 54.6429C171.873 54.6429 177.347 51.8436 180.951 47.4611L181.741 49.9097C194.825 51.8548 216.291 56.6475 238.461 68.4066C271.243 85.7933 311.06 121.569 314.594 193.261C315.31 207.742 304.107 220.057 289.573 220.769Z" fill="white"/>
<path d="M165.019 53.4748L152.502 125.096L165.019 133.345L177.536 125.096L165.019 53.4748Z" fill="#FA9F00"/>
<path d="M159.026 47.8627V49.1345H149.317C147.697 49.1345 146.377 47.7581 146.377 46.0678V32H144V46.0678C144 49.1264 146.385 51.6136 149.317 51.6136H159.026V53H168V47.8647H159.026V47.8627Z" fill="black"/>
<path d="M107.509 77.127L111.066 84.3329L119.017 85.488L113.263 91.0965L114.621 99.0161L107.509 95.2771L100.396 99.0161L101.754 91.0965L96 85.488L103.952 84.3329L107.509 77.127ZM132.801 84.4169L124.85 85.572L130.604 91.1805L129.246 99.1001L136.358 95.3611L143.471 99.1001L142.113 91.1805L147.867 85.572L139.915 84.4169L136.358 77.2117L132.801 84.4169ZM162.207 84.4169L154.255 85.572L160.009 91.1805L158.651 99.1001L165.764 95.3611L172.876 99.1001L171.518 91.1805L177.272 85.572L169.321 84.4169L165.764 77.211L162.207 84.4169ZM191.055 84.5015L183.103 85.6567L188.858 91.2652L187.5 99.1847L194.612 95.4457L201.724 99.1847L200.366 91.2652L206.121 85.6567L198.169 84.5015L194.611 77.2957L191.055 84.5015ZM218.676 84.2059L210.724 85.361L216.479 90.9695L215.121 98.8891L222.233 95.15L229.346 98.8891L227.988 90.9695L233.742 85.361L225.79 84.2059L222.232 77L218.676 84.2059Z" fill="#A64C03"/>
</g>
</svg>
