<svg width="336" height="107" viewBox="0 0 336 107" fill="none" xmlns="http://www.w3.org/2000/svg">
<g clip-path="url(#clip0)">
<path d="M0 8C0 3.58172 3.58172 0 8 0H328C332.418 0 336 3.58172 336 8V107H0V8Z" fill="#FE9696"/>
<path d="M0 0H336V107H0V0Z" fill="#FE9696"/>
<mask id="mask0" mask-type="alpha" maskUnits="userSpaceOnUse" x="0" y="0" width="336" height="107">
<path d="M0 0H336V107H0V0Z" fill="#F89B85"/>
</mask>
<g mask="url(#mask0)">
<path fill-rule="evenodd" clip-rule="evenodd" d="M239.099 381.754L97.768 381.67C80.77 381.662 66.997 367.876 67 350.879L67.07 -3.441C67.073 -20.448 80.866 -34.231 97.874 -34.221L239.206 -34.138C256.203 -34.128 269.976 -20.343 269.973 -3.346L269.904 350.974C269.9 367.982 256.107 381.765 239.099 381.754Z" fill="#333333"/>
<path fill-rule="evenodd" clip-rule="evenodd" d="M239.055 -21.606L211.654 -21.622C207.979 -21.624 204.999 -18.511 204.999 -14.67L204.996 -9.699C204.997 -5.858 202.017 -2.745 198.342 -2.748L144.931 -2.779C141.256 -2.781 138.277 -5.898 138.278 -9.739L138.279 -14.709C138.28 -18.551 135.301 -21.667 131.627 -21.669L121.989 -21.675L98.006 -21.689C86.096 -21.695 76.435 -12.043 76.433 -0.131998L76.365 345.709C76.363 357.616 86.009 367.269 97.913 367.276L238.962 367.358C250.872 367.366 260.533 357.713 260.536 345.802L260.603 -0.0409985C260.605 -11.945 250.959 -21.599 239.055 -21.606Z" fill="#FFFFFE"/>
<rect x="76" y="1" width="185" height="63" fill="#FFEEF2"/>
<rect x="97.5" y="74.5" width="27" height="27" stroke="#E6E6E6"/>
<path d="M113.134 83.293H111.698C111.042 84.1064 110.16 84.6123 109.046 84.7969V86.5605C110.092 86.376 110.892 85.9863 111.432 85.4189V93H113.134V83.293Z" fill="#333333"/>
<rect x="155.5" y="74.5" width="27" height="27" stroke="#E6E6E6"/>
<path d="M173.007 93V91.4141H168.023C168.263 90.9355 168.762 90.4707 169.274 90.1084L170.45 89.2812C171.578 88.4883 172.809 87.627 172.809 85.9111C172.809 84.2979 171.715 83.1289 169.712 83.1289C167.47 83.1289 166.103 84.5986 166.062 86.5674L167.736 86.7314C167.757 85.46 168.468 84.6602 169.596 84.6602C170.525 84.6602 171.079 85.2139 171.079 85.9863C171.079 86.9434 170.245 87.5518 169.555 88.0371L168.352 88.8848C166.643 90.0879 165.938 91.2432 165.938 92.4121V93H173.007Z" fill="#333333"/>
<rect x="213.5" y="74.5" width="27" height="27" stroke="#E6E6E6"/>
<path d="M224.082 83.293V84.8789H228.587L225.538 87.5859L226.331 88.9189C226.666 88.8164 227.172 88.7207 227.644 88.7207C228.724 88.7207 229.359 89.2129 229.359 90.0742C229.359 90.9902 228.642 91.5781 227.575 91.5781C226.488 91.5781 225.791 90.9424 225.572 90.0811L223.904 90.5801C224.335 92.1387 225.736 93.1094 227.589 93.1094C229.735 93.1094 231.089 91.8242 231.089 90.0537C231.089 88.2627 229.667 87.3125 227.883 87.3877L230.781 84.8242V83.293H224.082Z" fill="#333333"/>
<path d="M98.3408 39.334H97.4932C96.8027 40.1543 95.9004 40.7012 94.7998 40.9404V41.9385C95.9072 41.6924 96.7754 41.2275 97.3906 40.5439V49H98.3408V39.334ZM111.542 49V48.0977H106.012C106.183 47.3799 106.839 46.6416 107.714 46.0127L109.081 45.0352C110.147 44.2695 111.31 43.4287 111.31 41.7812C111.31 40.2705 110.332 39.1973 108.452 39.1973C106.319 39.1973 105.116 40.5576 105.068 42.4443L106.032 42.5264C106.073 40.9883 106.989 40.0859 108.384 40.0859C109.607 40.0859 110.332 40.7832 110.332 41.8086C110.332 43.0391 109.279 43.7979 108.541 44.3242L107.283 45.2266C105.861 46.2451 104.897 47.4414 104.897 48.665V49H111.542ZM123.294 39.1836C119.78 39.2588 117.47 41.2754 117.47 44.7959C117.47 47.7217 119.069 49.1094 121.12 49.1094C123.068 49.1094 124.552 47.8652 124.552 45.8623C124.552 44.085 123.39 42.7656 121.414 42.7656C120.115 42.7656 118.816 43.3467 118.427 44.543C118.522 41.8428 120.225 40.168 123.355 40.0996L123.294 39.1836ZM121.161 48.2139C119.705 48.2139 118.632 47.2773 118.632 45.9102C118.632 44.4678 119.835 43.6201 121.229 43.6201C122.672 43.6201 123.574 44.5293 123.574 45.9033C123.574 47.373 122.542 48.2139 121.161 48.2139ZM130.534 39.334V40.2363H135.654L132.086 43.7158L132.599 44.5156C132.975 44.3926 133.515 44.29 134.027 44.29C135.374 44.29 136.201 45.001 136.201 46.1631C136.201 47.4004 135.265 48.2207 133.884 48.2207C132.592 48.2207 131.662 47.5029 131.368 46.3887L130.425 46.6758C130.862 48.2002 132.154 49.1094 133.87 49.1094C135.88 49.1094 137.179 47.8584 137.179 46.1494C137.179 44.4746 135.941 43.4766 134.253 43.4766C133.986 43.4766 133.713 43.5039 133.433 43.5518L136.885 40.2432V39.334H130.534ZM148.794 45.9512V39.334H147.639L142.751 46.0264V46.8535H147.844V49H148.794V46.8535H150.64V45.9512H148.794ZM147.844 45.9512H143.865L147.844 40.5303V45.9512ZM159.138 39.334H158.29C157.6 40.1543 156.697 40.7012 155.597 40.9404V41.9385C156.704 41.6924 157.572 41.2275 158.188 40.5439V49H159.138V39.334Z" fill="#333333"/>
<path d="M121.724 12.0732C121.47 10.6426 120.376 9.83691 118.838 9.83691C116.753 9.83691 115.527 11.3066 115.527 13.5479C115.527 15.7842 116.748 17.1611 118.77 17.1611C120.425 17.1611 121.523 16.2383 121.768 14.7734L120.547 14.5195C120.396 15.4766 119.771 16.0039 118.799 16.0039C117.524 16.0039 116.787 15.0908 116.787 13.5137C116.787 11.9658 117.495 10.9941 118.843 10.9941C119.761 10.9941 120.376 11.4434 120.498 12.332L121.724 12.0732ZM127.5 17V11.7559H126.299V14.71C126.299 15.4424 125.854 16.0039 125.132 16.0039C124.507 16.0039 124.219 15.5693 124.219 14.8857V11.7559H123.018V15.2764C123.018 16.3652 123.638 17.0781 124.741 17.0781C125.557 17.0781 126.025 16.6826 126.299 16.1699V17H127.5ZM133.232 13.1182C133.022 12.2734 132.31 11.6582 131.021 11.6582C129.717 11.6582 128.877 12.2832 128.877 13.333C128.877 14.5146 129.956 14.6807 130.869 14.8174C131.538 14.9199 132.134 15.0029 132.134 15.4863C132.134 15.8574 131.782 16.1162 131.191 16.1162C130.571 16.1162 130.093 15.8281 129.937 15.2617L128.809 15.5498C129.087 16.5068 130.005 17.0781 131.172 17.0781C132.471 17.0781 133.33 16.3652 133.33 15.3154C133.33 14.1338 132.241 14.002 131.328 13.8799C130.649 13.7871 130.063 13.709 130.063 13.2207C130.063 12.874 130.356 12.625 130.977 12.625C131.626 12.625 131.978 12.9033 132.119 13.4014L133.232 13.1182ZM137.437 11.7559H136.182V10.208L134.98 10.5449V11.7559H134.023V12.8252H134.98V15.623C134.98 16.751 135.605 17.0781 136.538 17.0781C136.86 17.0781 137.212 17.0342 137.529 16.9561L137.476 15.9697C137.266 16.0039 137.07 16.0234 136.914 16.0234C136.182 16.0234 136.182 15.5693 136.182 15.3105V12.8252H137.437V11.7559ZM140.854 11.6582C139.331 11.6582 138.369 12.708 138.369 14.3682C138.369 16.0283 139.331 17.0781 140.854 17.0781C142.383 17.0781 143.345 16.0283 143.345 14.3682C143.345 12.708 142.383 11.6582 140.854 11.6582ZM140.854 12.6836C141.67 12.6836 142.144 13.2744 142.144 14.3682C142.144 15.4668 141.67 16.0527 140.854 16.0527C140.044 16.0527 139.57 15.4668 139.57 14.3682C139.57 13.2744 140.044 12.6836 140.854 12.6836ZM144.648 11.7559V17H145.85V13.9482C145.85 13.25 146.245 12.7324 146.943 12.7324C147.549 12.7324 147.847 13.123 147.847 13.8213V17H149.053V13.9482C149.053 13.2451 149.438 12.7324 150.132 12.7324C150.737 12.7324 151.05 13.1182 151.05 13.8213V17H152.251V13.416C152.251 12.3467 151.655 11.6582 150.513 11.6582C149.624 11.6582 149.082 12.0781 148.789 12.7275C148.574 12.0635 148.13 11.6582 147.334 11.6582C146.553 11.6582 146.123 12.0293 145.85 12.5615V11.7559H144.648ZM158.325 14.0703C158.325 12.5908 157.441 11.6582 155.996 11.6582C154.463 11.6582 153.506 12.7129 153.506 14.4023C153.506 16.0088 154.365 17.0781 155.972 17.0781C157.129 17.0781 157.876 16.5166 158.252 15.7402L157.202 15.3691C157.007 15.7354 156.665 16.0674 156.011 16.0674C155.171 16.0674 154.751 15.4961 154.712 14.7832H158.325V14.0703ZM155.977 12.6689C156.646 12.6689 157.09 13.0303 157.114 13.8896H154.717C154.8 13.1719 155.22 12.6689 155.977 12.6689ZM159.629 11.7559V17H160.83V14.4414C160.83 13.3623 161.372 12.8643 162.256 12.8643C162.417 12.8643 162.573 12.8789 162.744 12.9033L162.778 11.7461C162.627 11.7168 162.49 11.7021 162.339 11.7021C161.685 11.7021 161.108 11.9414 160.83 12.7178V11.7559H159.629ZM171.968 12.0732C171.714 10.6426 170.62 9.83691 169.082 9.83691C166.997 9.83691 165.771 11.3066 165.771 13.5479C165.771 15.7842 166.992 17.1611 169.014 17.1611C170.669 17.1611 171.768 16.2383 172.012 14.7734L170.791 14.5195C170.64 15.4766 170.015 16.0039 169.043 16.0039C167.769 16.0039 167.031 15.0908 167.031 13.5137C167.031 11.9658 167.739 10.9941 169.087 10.9941C170.005 10.9941 170.62 11.4434 170.742 12.332L171.968 12.0732ZM175.474 11.6582C174.175 11.6582 173.359 12.249 173.062 13.2256L174.224 13.5186C174.38 12.9863 174.771 12.6689 175.435 12.6689C176.055 12.6689 176.338 12.9424 176.338 13.2988C176.338 13.7773 175.835 13.8457 175.112 13.9238C174.175 14.0264 172.969 14.1484 172.969 15.4961C172.969 16.4824 173.608 17.0781 174.688 17.0781C175.386 17.0781 175.972 16.8291 176.357 16.1992V17H177.539V13.3965C177.539 12.293 176.816 11.6582 175.474 11.6582ZM174.976 16.0674C174.468 16.0674 174.165 15.8721 174.165 15.4277C174.165 14.8662 174.644 14.8174 175.249 14.7393C175.64 14.6904 176.006 14.6318 176.338 14.5195V14.9395C176.338 15.6426 175.737 16.0674 174.976 16.0674ZM179.131 11.7559V17H180.332V14.4414C180.332 13.3623 180.874 12.8643 181.758 12.8643C181.919 12.8643 182.075 12.8789 182.246 12.9033L182.28 11.7461C182.129 11.7168 181.992 11.7021 181.841 11.7021C181.187 11.7021 180.61 11.9414 180.332 12.7178V11.7559H179.131ZM187.71 14.0703C187.71 12.5908 186.826 11.6582 185.381 11.6582C183.848 11.6582 182.891 12.7129 182.891 14.4023C182.891 16.0088 183.75 17.0781 185.356 17.0781C186.514 17.0781 187.261 16.5166 187.637 15.7402L186.587 15.3691C186.392 15.7354 186.05 16.0674 185.396 16.0674C184.556 16.0674 184.136 15.4961 184.097 14.7832H187.71V14.0703ZM185.361 12.6689C186.03 12.6689 186.475 13.0303 186.499 13.8896H184.102C184.185 13.1719 184.604 12.6689 185.361 12.6689Z" fill="#333333"/>
<g filter="url(#filter0_d)">
<path fill-rule="evenodd" clip-rule="evenodd" d="M95.0098 6.03235C95.2219 5.97931 95.4402 5.98988 95.6473 6.07863C95.8755 6.17645 96.0385 6.36393 96.1573 6.56019C96.2555 6.71302 96.519 7.12405 96.9475 7.7928C97.1773 8.15153 97.3476 8.49116 97.4427 8.80823C97.5371 9.12282 97.5651 9.44178 97.4756 9.74023C97.3617 10.1476 97.1722 10.5298 96.8314 10.7304C96.8267 10.7565 96.823 10.8192 96.8483 10.9348L96.8506 10.9452C96.8934 11.1664 97.0507 11.4787 97.3915 11.8897C97.7496 12.3215 98.0138 12.6203 98.1888 12.7953C98.3736 12.9801 98.677 13.2464 99.1079 13.5985C99.5187 13.9342 99.8361 14.0996 100.067 14.152C100.182 14.177 100.244 14.1733 100.27 14.1686C100.468 13.8312 100.847 13.6348 101.254 13.5103L101.265 13.507C101.842 13.3467 102.518 13.6082 103.205 14.0433C103.859 14.4569 104.279 14.7281 104.449 14.8483C104.642 14.9665 104.825 15.128 104.922 15.3527C105.01 15.5598 105.021 15.7782 104.968 15.9904L104.962 16.0144L104.731 16.6326C104.535 17.1587 104.132 17.5444 103.588 17.8044L103.582 17.8071C103.072 18.0414 102.475 18.0503 101.83 17.8992C101.201 17.7518 100.555 17.5017 99.8931 17.1543C99.238 16.8104 98.6004 16.4097 97.9804 15.9529C97.364 15.4987 96.8334 15.0509 96.3914 14.6089C95.9494 14.1669 95.5015 13.6363 95.0473 13.0198C94.5905 12.3999 94.1898 11.7623 93.8459 11.1072C93.4985 10.4456 93.2484 9.79979 93.101 9.17043C92.9499 8.52541 92.9588 7.92821 93.1931 7.41825L93.1958 7.4124C93.4558 6.86768 93.8415 6.46553 94.3676 6.26912L94.9857 6.03836L95.0098 6.03235Z" fill="#131415"/>
</g>
</g>
<g filter="url(#filter1_d)">
<rect x="5" y="25" width="28" height="28" rx="8" fill="#FFEEF2"/>
<rect x="5.5" y="25.5" width="27" height="27" rx="7.5" stroke="#E6E6E6"/>
</g>
<path fill-rule="evenodd" clip-rule="evenodd" d="M23.3797 39.3832H24.9755C24.9755 35.8724 22.1031 33 18.5923 33V34.5958C21.2254 34.5958 23.3797 36.7501 23.3797 39.3832ZM20.1881 39.3832H21.7839C21.7839 37.6278 20.3477 36.1916 18.5923 36.1916V37.7874C19.47 37.7874 20.1881 38.5055 20.1881 39.3832ZM22.2629 41.3778C22.8214 41.7767 23.2203 42.0161 23.3799 42.0959C23.4198 42.1358 23.4597 42.1707 23.4996 42.2056C23.6193 42.3103 23.739 42.415 23.8587 42.6544C23.9384 42.814 24.0182 43.0533 23.9384 43.2129L23.6991 43.7715C23.5395 44.2502 23.1405 44.5694 22.6618 44.8087C22.1831 45.0481 21.6245 45.0481 21.066 44.8885C20.5075 44.8087 19.9489 44.5694 19.3106 44.2502C18.6723 43.931 18.1138 43.5321 17.5552 43.1331C16.9967 42.7342 16.518 42.3352 16.119 41.9363C15.7201 41.5373 15.3211 41.0586 14.9222 40.5001C14.5291 40.0415 14.2436 39.5291 13.9773 39.0512C13.9193 38.9471 13.8622 38.8446 13.8051 38.7447C13.4859 38.1064 13.2466 37.5478 13.087 36.9893C12.9274 36.4308 13.0072 35.8722 13.1668 35.3935C13.4061 34.9148 13.8051 34.5158 14.2838 34.3562L14.8424 34.1169C15.0019 34.1169 15.2413 34.1169 15.4009 34.1966C15.5784 34.2558 15.6682 34.3589 15.7678 34.4733C15.8025 34.5131 15.8384 34.5544 15.8796 34.5956C15.9594 34.7552 16.1988 35.1541 16.5978 35.7127L17.0765 36.6701C17.1563 36.9893 17.1563 37.3085 17.0765 37.5478C16.9967 37.867 16.8371 38.2659 16.518 38.4255V38.5851C16.518 38.8245 16.6775 39.0638 16.9967 39.4628C17.3159 39.8617 17.5552 40.1011 17.7946 40.2607L17.7946 40.2607C17.9542 40.4203 18.1936 40.6596 18.5925 40.9788C18.9915 41.298 19.2308 41.3778 19.4702 41.4575H19.6298C19.7894 41.2182 20.1085 40.9788 20.5075 40.899C20.9862 40.7394 21.6245 40.9788 22.2629 41.3778Z" fill="#893000"/>
<path d="M6.13672 12.3984V18H6.69141V15.832H8.23438C9.38672 15.832 10.0977 15.0742 10.0977 14.043C10.0977 13.0625 9.44922 12.3984 8.375 12.3984H6.13672ZM6.69141 12.9297H8.28125C9.03125 12.9297 9.53125 13.3477 9.53125 14.0664C9.53125 14.8164 8.98828 15.3008 8.20703 15.3008H6.69141V12.9297ZM11.2461 13.9062V18H11.7812V15.9219C11.7812 14.9453 12.2461 14.3867 13.0781 14.3867C13.1953 14.3867 13.3047 14.3984 13.4258 14.4141L13.457 13.9023C13.3398 13.8789 13.2227 13.8672 13.1094 13.8672C12.5078 13.8672 11.9961 14.1445 11.7812 14.8125V13.9062H11.2461ZM17.5625 15.6211C17.5625 14.4766 16.8906 13.8281 15.8828 13.8281C14.7383 13.8281 14.043 14.6562 14.043 15.9766C14.043 17.207 14.6406 18.0625 15.8438 18.0625C16.6992 18.0625 17.2383 17.6211 17.5117 17.0039L17.0703 16.793C16.8867 17.2461 16.5039 17.5781 15.8711 17.5781C15.0156 17.5781 14.5938 16.9688 14.5742 16.1133H17.5625V15.6211ZM15.8672 14.3125C16.5625 14.3125 17.0195 14.7227 17.0195 15.5781V15.6562H14.582C14.6445 14.8828 15.0703 14.3125 15.8672 14.3125ZM21.6367 14.8984C21.4766 14.2695 20.9727 13.8281 20.0703 13.8281C19.168 13.8281 18.5625 14.2734 18.5625 15.0352C18.5625 15.8789 19.3164 16.0195 20.0117 16.1445C20.6172 16.2539 21.1836 16.3477 21.1836 16.8789C21.1836 17.3086 20.8125 17.6055 20.2031 17.6055C19.625 17.6055 19.1367 17.3359 18.9844 16.7227L18.4805 16.8711C18.6758 17.6406 19.3555 18.0625 20.1953 18.0625C21.1133 18.0625 21.7148 17.5586 21.7148 16.8047C21.7148 15.9531 20.9492 15.8281 20.2539 15.7148C19.6484 15.6133 19.0938 15.5195 19.0938 14.9844C19.0938 14.5625 19.4375 14.2891 20.0508 14.2891C20.6484 14.2891 21.0117 14.5547 21.1562 15.043L21.6367 14.8984ZM25.7852 14.8984C25.625 14.2695 25.1211 13.8281 24.2188 13.8281C23.3164 13.8281 22.7109 14.2734 22.7109 15.0352C22.7109 15.8789 23.4648 16.0195 24.1602 16.1445C24.7656 16.2539 25.332 16.3477 25.332 16.8789C25.332 17.3086 24.9609 17.6055 24.3516 17.6055C23.7734 17.6055 23.2852 17.3359 23.1328 16.7227L22.6289 16.8711C22.8242 17.6406 23.5039 18.0625 24.3438 18.0625C25.2617 18.0625 25.8633 17.5586 25.8633 16.8047C25.8633 15.9531 25.0977 15.8281 24.4023 15.7148C23.7969 15.6133 23.2422 15.5195 23.2422 14.9844C23.2422 14.5625 23.5859 14.2891 24.1992 14.2891C24.7969 14.2891 25.1602 14.5547 25.3047 15.043L25.7852 14.8984ZM30.7461 12.4766H30.2617C29.8672 12.9453 29.3516 13.2578 28.7227 13.3945V13.9648C29.3555 13.8242 29.8516 13.5586 30.2031 13.168V18H30.7461V12.4766Z" fill="white"/>
<g filter="url(#filter2_d)">
<rect x="304" y="25" width="28" height="28" rx="8" fill="#FFEEF2"/>
<rect x="304.5" y="25.5" width="27" height="27" rx="7.5" stroke="#E6E6E6"/>
</g>
<path fill-rule="evenodd" clip-rule="evenodd" d="M324 35.25V36.75H312V35.25C312 34.8 312.3 34.5 312.75 34.5H323.25C323.7 34.5 324 34.8 324 35.25ZM312 42.75V38.25H324V42.75C324 43.2 323.7 43.5 323.25 43.5H312.75C312.3 43.5 312 43.2 312 42.75ZM313.5 41.25H316.5V40.5H313.5V41.25ZM321 41.25H322.5V40.5H321V41.25Z" fill="#9F0202"/>
<path d="M304.184 12.3984V18H304.738V15.832H306.281C307.434 15.832 308.145 15.0742 308.145 14.043C308.145 13.0625 307.496 12.3984 306.422 12.3984H304.184ZM304.738 12.9297H306.328C307.078 12.9297 307.578 13.3477 307.578 14.0664C307.578 14.8164 307.035 15.3008 306.254 15.3008H304.738V12.9297ZM309.293 13.9062V18H309.828V15.9219C309.828 14.9453 310.293 14.3867 311.125 14.3867C311.242 14.3867 311.352 14.3984 311.473 14.4141L311.504 13.9023C311.387 13.8789 311.27 13.8672 311.156 13.8672C310.555 13.8672 310.043 14.1445 309.828 14.8125V13.9062H309.293ZM315.609 15.6211C315.609 14.4766 314.938 13.8281 313.93 13.8281C312.785 13.8281 312.09 14.6562 312.09 15.9766C312.09 17.207 312.688 18.0625 313.891 18.0625C314.746 18.0625 315.285 17.6211 315.559 17.0039L315.117 16.793C314.934 17.2461 314.551 17.5781 313.918 17.5781C313.062 17.5781 312.641 16.9688 312.621 16.1133H315.609V15.6211ZM313.914 14.3125C314.609 14.3125 315.066 14.7227 315.066 15.5781V15.6562H312.629C312.691 14.8828 313.117 14.3125 313.914 14.3125ZM319.684 14.8984C319.523 14.2695 319.02 13.8281 318.117 13.8281C317.215 13.8281 316.609 14.2734 316.609 15.0352C316.609 15.8789 317.363 16.0195 318.059 16.1445C318.664 16.2539 319.23 16.3477 319.23 16.8789C319.23 17.3086 318.859 17.6055 318.25 17.6055C317.672 17.6055 317.184 17.3359 317.031 16.7227L316.527 16.8711C316.723 17.6406 317.402 18.0625 318.242 18.0625C319.16 18.0625 319.762 17.5586 319.762 16.8047C319.762 15.9531 318.996 15.8281 318.301 15.7148C317.695 15.6133 317.141 15.5195 317.141 14.9844C317.141 14.5625 317.484 14.2891 318.098 14.2891C318.695 14.2891 319.059 14.5547 319.203 15.043L319.684 14.8984ZM323.832 14.8984C323.672 14.2695 323.168 13.8281 322.266 13.8281C321.363 13.8281 320.758 14.2734 320.758 15.0352C320.758 15.8789 321.512 16.0195 322.207 16.1445C322.812 16.2539 323.379 16.3477 323.379 16.8789C323.379 17.3086 323.008 17.6055 322.398 17.6055C321.82 17.6055 321.332 17.3359 321.18 16.7227L320.676 16.8711C320.871 17.6406 321.551 18.0625 322.391 18.0625C323.309 18.0625 323.91 17.5586 323.91 16.8047C323.91 15.9531 323.145 15.8281 322.449 15.7148C321.844 15.6133 321.289 15.5195 321.289 14.9844C321.289 14.5625 321.633 14.2891 322.246 14.2891C322.844 14.2891 323.207 14.5547 323.352 15.043L323.832 14.8984ZM330.129 16.2578V12.4766H329.469L326.676 16.3008V16.7734H329.586V18H330.129V16.7734H331.184V16.2578H330.129ZM329.586 16.2578H327.312L329.586 13.1602V16.2578Z" fill="white"/>
<g filter="url(#filter3_d)">
<rect x="34" y="72" width="28" height="28" rx="8" fill="#FFEEF2"/>
<rect x="34.5" y="72.5" width="27" height="27" rx="7.5" stroke="#E6E6E6"/>
</g>
<path d="M51.975 83.9L52.8 82.325L51.75 81.275L50.175 82.1C49.95 81.95 49.65 81.875 49.35 81.8L48.75 80H47.25L46.65 81.725C46.425 81.8 46.125 81.875 45.9 82.025L44.325 81.2L43.2 82.325L44.025 83.9C43.875 84.125 43.8 84.425 43.725 84.65L42 85.25V86.75L43.725 87.35C43.8 87.65 43.95 87.875 44.025 88.175L43.2 89.75L44.25 90.8L45.825 89.975C46.05 90.125 46.35 90.2 46.65 90.275L47.25 92H48.75L49.35 90.275C49.65 90.2 49.875 90.05 50.175 89.975L51.75 90.8L52.8 89.75L51.975 88.175C52.125 87.95 52.2 87.65 52.275 87.35L54 86.75V85.25L52.275 84.65C52.2 84.425 52.125 84.125 51.975 83.9ZM48 88.25C46.725 88.25 45.75 87.275 45.75 86C45.75 84.725 46.725 83.75 48 83.75C49.275 83.75 50.25 84.725 50.25 86C50.25 87.275 49.275 88.25 48 88.25Z" fill="#9F0202"/>
<path d="M33.8906 59.3984V65H34.4453V62.832H35.9883C37.1406 62.832 37.8516 62.0742 37.8516 61.043C37.8516 60.0625 37.2031 59.3984 36.1289 59.3984H33.8906ZM34.4453 59.9297H36.0352C36.7852 59.9297 37.2852 60.3477 37.2852 61.0664C37.2852 61.8164 36.7422 62.3008 35.9609 62.3008H34.4453V59.9297ZM39 60.9062V65H39.5352V62.9219C39.5352 61.9453 40 61.3867 40.832 61.3867C40.9492 61.3867 41.0586 61.3984 41.1797 61.4141L41.2109 60.9023C41.0938 60.8789 40.9766 60.8672 40.8633 60.8672C40.2617 60.8672 39.75 61.1445 39.5352 61.8125V60.9062H39ZM45.3164 62.6211C45.3164 61.4766 44.6445 60.8281 43.6367 60.8281C42.4922 60.8281 41.7969 61.6562 41.7969 62.9766C41.7969 64.207 42.3945 65.0625 43.5977 65.0625C44.4531 65.0625 44.9922 64.6211 45.2656 64.0039L44.8242 63.793C44.6406 64.2461 44.2578 64.5781 43.625 64.5781C42.7695 64.5781 42.3477 63.9688 42.3281 63.1133H45.3164V62.6211ZM43.6211 61.3125C44.3164 61.3125 44.7734 61.7227 44.7734 62.5781V62.6562H42.3359C42.3984 61.8828 42.8242 61.3125 43.6211 61.3125ZM49.3906 61.8984C49.2305 61.2695 48.7266 60.8281 47.8242 60.8281C46.9219 60.8281 46.3164 61.2734 46.3164 62.0352C46.3164 62.8789 47.0703 63.0195 47.7656 63.1445C48.3711 63.2539 48.9375 63.3477 48.9375 63.8789C48.9375 64.3086 48.5664 64.6055 47.957 64.6055C47.3789 64.6055 46.8906 64.3359 46.7383 63.7227L46.2344 63.8711C46.4297 64.6406 47.1094 65.0625 47.9492 65.0625C48.8672 65.0625 49.4688 64.5586 49.4688 63.8047C49.4688 62.9531 48.7031 62.8281 48.0078 62.7148C47.4023 62.6133 46.8477 62.5195 46.8477 61.9844C46.8477 61.5625 47.1914 61.2891 47.8047 61.2891C48.4023 61.2891 48.7656 61.5547 48.9102 62.043L49.3906 61.8984ZM53.5391 61.8984C53.3789 61.2695 52.875 60.8281 51.9727 60.8281C51.0703 60.8281 50.4648 61.2734 50.4648 62.0352C50.4648 62.8789 51.2188 63.0195 51.9141 63.1445C52.5195 63.2539 53.0859 63.3477 53.0859 63.8789C53.0859 64.3086 52.7148 64.6055 52.1055 64.6055C51.5273 64.6055 51.0391 64.3359 50.8867 63.7227L50.3828 63.8711C50.5781 64.6406 51.2578 65.0625 52.0977 65.0625C53.0156 65.0625 53.6172 64.5586 53.6172 63.8047C53.6172 62.9531 52.8516 62.8281 52.1562 62.7148C51.5508 62.6133 50.9961 62.5195 50.9961 61.9844C50.9961 61.5625 51.3398 61.2891 51.9531 61.2891C52.5508 61.2891 52.9141 61.5547 53.0586 62.043L53.5391 61.8984ZM60.3516 65V64.4844H57.1914C57.2891 64.0742 57.6641 63.6523 58.1641 63.293L58.9453 62.7344C59.5547 62.2969 60.2188 61.8164 60.2188 60.875C60.2188 60.0117 59.6602 59.3984 58.5859 59.3984C57.3672 59.3984 56.6797 60.1758 56.6523 61.2539L57.2031 61.3008C57.2266 60.4219 57.75 59.9062 58.5469 59.9062C59.2461 59.9062 59.6602 60.3047 59.6602 60.8906C59.6602 61.5938 59.0586 62.0273 58.6367 62.3281L57.918 62.8438C57.1055 63.4258 56.5547 64.1094 56.5547 64.8086V65H60.3516Z" fill="white"/>
<g filter="url(#filter4_d)">
<rect x="276" y="72" width="28" height="28" rx="8" fill="#FFEEF2"/>
<rect x="276.5" y="72.5" width="27" height="27" rx="7.5" stroke="#E6E6E6"/>
</g>
<path d="M290 80C287.239 80 285 82.1982 285 84.9091V88.7273C285 89.6327 285.744 90.3636 286.667 90.3636H288.333V86H286.111V84.9091C286.111 82.7982 287.85 81.0909 290 81.0909C292.15 81.0909 293.889 82.7982 293.889 84.9091V86H291.667V90.3636H293.889V91H290V92H293.333C294.256 92 295 91.2691 295 90.3636V84.9091C295 82.1982 292.761 80 290 80Z" fill="#893000"/>
<path d="M275.875 59.3984V65H276.43V62.832H277.973C279.125 62.832 279.836 62.0742 279.836 61.043C279.836 60.0625 279.188 59.3984 278.113 59.3984H275.875ZM276.43 59.9297H278.02C278.77 59.9297 279.27 60.3477 279.27 61.0664C279.27 61.8164 278.727 62.3008 277.945 62.3008H276.43V59.9297ZM280.984 60.9062V65H281.52V62.9219C281.52 61.9453 281.984 61.3867 282.816 61.3867C282.934 61.3867 283.043 61.3984 283.164 61.4141L283.195 60.9023C283.078 60.8789 282.961 60.8672 282.848 60.8672C282.246 60.8672 281.734 61.1445 281.52 61.8125V60.9062H280.984ZM287.301 62.6211C287.301 61.4766 286.629 60.8281 285.621 60.8281C284.477 60.8281 283.781 61.6562 283.781 62.9766C283.781 64.207 284.379 65.0625 285.582 65.0625C286.438 65.0625 286.977 64.6211 287.25 64.0039L286.809 63.793C286.625 64.2461 286.242 64.5781 285.609 64.5781C284.754 64.5781 284.332 63.9688 284.312 63.1133H287.301V62.6211ZM285.605 61.3125C286.301 61.3125 286.758 61.7227 286.758 62.5781V62.6562H284.32C284.383 61.8828 284.809 61.3125 285.605 61.3125ZM291.375 61.8984C291.215 61.2695 290.711 60.8281 289.809 60.8281C288.906 60.8281 288.301 61.2734 288.301 62.0352C288.301 62.8789 289.055 63.0195 289.75 63.1445C290.355 63.2539 290.922 63.3477 290.922 63.8789C290.922 64.3086 290.551 64.6055 289.941 64.6055C289.363 64.6055 288.875 64.3359 288.723 63.7227L288.219 63.8711C288.414 64.6406 289.094 65.0625 289.934 65.0625C290.852 65.0625 291.453 64.5586 291.453 63.8047C291.453 62.9531 290.688 62.8281 289.992 62.7148C289.387 62.6133 288.832 62.5195 288.832 61.9844C288.832 61.5625 289.176 61.2891 289.789 61.2891C290.387 61.2891 290.75 61.5547 290.895 62.043L291.375 61.8984ZM295.523 61.8984C295.363 61.2695 294.859 60.8281 293.957 60.8281C293.055 60.8281 292.449 61.2734 292.449 62.0352C292.449 62.8789 293.203 63.0195 293.898 63.1445C294.504 63.2539 295.07 63.3477 295.07 63.8789C295.07 64.3086 294.699 64.6055 294.09 64.6055C293.512 64.6055 293.023 64.3359 292.871 63.7227L292.367 63.8711C292.562 64.6406 293.242 65.0625 294.082 65.0625C295 65.0625 295.602 64.5586 295.602 63.8047C295.602 62.9531 294.836 62.8281 294.141 62.7148C293.535 62.6133 292.98 62.5195 292.98 61.9844C292.98 61.5625 293.324 61.2891 293.938 61.2891C294.535 61.2891 294.898 61.5547 295.043 62.043L295.523 61.8984ZM298.602 59.4766V59.9922H301.527L299.488 61.9805L299.781 62.4375C299.996 62.3672 300.305 62.3086 300.598 62.3086C301.367 62.3086 301.84 62.7148 301.84 63.3789C301.84 64.0859 301.305 64.5547 300.516 64.5547C299.777 64.5547 299.246 64.1445 299.078 63.5078L298.539 63.6719C298.789 64.543 299.527 65.0625 300.508 65.0625C301.656 65.0625 302.398 64.3477 302.398 63.3711C302.398 62.4141 301.691 61.8438 300.727 61.8438C300.574 61.8438 300.418 61.8594 300.258 61.8867L302.23 59.9961V59.4766H298.602Z" fill="white"/>
</g>
<defs>
<filter id="filter0_d" x="53" y="-14" width="92" height="92.0002" filterUnits="userSpaceOnUse" color-interpolation-filters="sRGB">
<feFlood flood-opacity="0" result="BackgroundImageFix"/>
<feColorMatrix in="SourceAlpha" type="matrix" values="0 0 0 0 0 0 0 0 0 0 0 0 0 0 0 0 0 0 127 0"/>
<feOffset dy="20"/>
<feGaussianBlur stdDeviation="20"/>
<feColorMatrix type="matrix" values="0 0 0 0 1 0 0 0 0 1 0 0 0 0 1 0 0 0 0.1 0"/>
<feBlend mode="normal" in2="BackgroundImageFix" result="effect1_dropShadow"/>
<feBlend mode="normal" in="SourceGraphic" in2="effect1_dropShadow" result="shape"/>
</filter>
<filter id="filter1_d" x="-10" y="15" width="58" height="58" filterUnits="userSpaceOnUse" color-interpolation-filters="sRGB">
<feFlood flood-opacity="0" result="BackgroundImageFix"/>
<feColorMatrix in="SourceAlpha" type="matrix" values="0 0 0 0 0 0 0 0 0 0 0 0 0 0 0 0 0 0 127 0"/>
<feOffset dy="5"/>
<feGaussianBlur stdDeviation="7.5"/>
<feColorMatrix type="matrix" values="0 0 0 0 0.775 0 0 0 0 0.0161458 0 0 0 0 0.0161458 0 0 0 0.3 0"/>
<feBlend mode="normal" in2="BackgroundImageFix" result="effect1_dropShadow"/>
<feBlend mode="normal" in="SourceGraphic" in2="effect1_dropShadow" result="shape"/>
</filter>
<filter id="filter2_d" x="289" y="15" width="58" height="58" filterUnits="userSpaceOnUse" color-interpolation-filters="sRGB">
<feFlood flood-opacity="0" result="BackgroundImageFix"/>
<feColorMatrix in="SourceAlpha" type="matrix" values="0 0 0 0 0 0 0 0 0 0 0 0 0 0 0 0 0 0 127 0"/>
<feOffset dy="5"/>
<feGaussianBlur stdDeviation="7.5"/>
<feColorMatrix type="matrix" values="0 0 0 0 0.775 0 0 0 0 0.0161458 0 0 0 0 0.0161458 0 0 0 0.3 0"/>
<feBlend mode="normal" in2="BackgroundImageFix" result="effect1_dropShadow"/>
<feBlend mode="normal" in="SourceGraphic" in2="effect1_dropShadow" result="shape"/>
</filter>
<filter id="filter3_d" x="19" y="62" width="58" height="58" filterUnits="userSpaceOnUse" color-interpolation-filters="sRGB">
<feFlood flood-opacity="0" result="BackgroundImageFix"/>
<feColorMatrix in="SourceAlpha" type="matrix" values="0 0 0 0 0 0 0 0 0 0 0 0 0 0 0 0 0 0 127 0"/>
<feOffset dy="5"/>
<feGaussianBlur stdDeviation="7.5"/>
<feColorMatrix type="matrix" values="0 0 0 0 0.775 0 0 0 0 0.0161458 0 0 0 0 0.0161458 0 0 0 0.3 0"/>
<feBlend mode="normal" in2="BackgroundImageFix" result="effect1_dropShadow"/>
<feBlend mode="normal" in="SourceGraphic" in2="effect1_dropShadow" result="shape"/>
</filter>
<filter id="filter4_d" x="261" y="62" width="58" height="58" filterUnits="userSpaceOnUse" color-interpolation-filters="sRGB">
<feFlood flood-opacity="0" result="BackgroundImageFix"/>
<feColorMatrix in="SourceAlpha" type="matrix" values="0 0 0 0 0 0 0 0 0 0 0 0 0 0 0 0 0 0 127 0"/>
<feOffset dy="5"/>
<feGaussianBlur stdDeviation="7.5"/>
<feColorMatrix type="matrix" values="0 0 0 0 0.775 0 0 0 0 0.0161458 0 0 0 0 0.0161458 0 0 0 0.3 0"/>
<feBlend mode="normal" in2="BackgroundImageFix" result="effect1_dropShadow"/>
<feBlend mode="normal" in="SourceGraphic" in2="effect1_dropShadow" result="shape"/>
</filter>
<clipPath id="clip0">
<rect width="336" height="107" fill="white"/>
</clipPath>
</defs>
</svg>
