<svg width="336" height="107" viewBox="0 0 336 107" fill="none" xmlns="http://www.w3.org/2000/svg">
<g clip-path="url(#clip0)">
<path d="M0 0H336V107H0V0Z" fill="#65BAFF"/>
<path d="M119.797 60.0469H116.953V57.0469H115.203V60.0469H112.367V61.7656H115.203V64.7578H116.953V61.7656H119.797V60.0469ZM132.703 62.0312V54.9062H130.336L125.258 62.2891V63.8438H130.758V66H132.703V63.8438H134.625V62.0312H132.703ZM130.758 62.0312H127.422L130.758 57.1562V62.0312ZM143.5 62.0312V54.9062H141.133L136.055 62.2891V63.8438H141.555V66H143.5V63.8438H145.422V62.0312H143.5ZM141.555 62.0312H138.219L141.555 57.1562V62.0312ZM155.281 54.9062H153.641C152.891 55.8359 151.883 56.4141 150.609 56.625V58.6406C151.805 58.4297 152.719 57.9844 153.336 57.3359V66H155.281V54.9062ZM162.086 54.7188C159.633 54.7188 158.156 55.9688 158.156 57.8125C158.156 58.9219 158.695 59.8672 159.781 60.3125C158.484 60.6875 157.906 61.7344 157.906 62.9375C157.906 64.8594 159.391 66.125 162.086 66.125C164.742 66.125 166.266 64.8906 166.266 62.9219C166.266 61.7344 165.688 60.6875 164.391 60.3125C165.477 59.8672 166.016 58.9219 166.016 57.8125C166.016 55.9688 164.531 54.7188 162.086 54.7188ZM162.086 56.4688C163.367 56.4688 164.039 57.0781 164.039 58.0312C164.039 58.9609 163.391 59.5938 162.086 59.5938C160.781 59.5938 160.133 58.9609 160.133 58.0391C160.133 57.0859 160.797 56.4688 162.086 56.4688ZM162.086 60.9375C163.57 60.9375 164.297 61.5938 164.297 62.625C164.297 63.6719 163.523 64.375 162.086 64.375C160.641 64.375 159.875 63.6719 159.875 62.625C159.875 61.5938 160.602 60.9375 162.086 60.9375ZM172.305 54.7188C169.578 54.7188 168.109 56.6172 168.109 60.1484V60.6953C168.109 64.2266 169.578 66.125 172.305 66.125C175.039 66.125 176.508 64.2266 176.508 60.6953V60.1484C176.508 56.6172 175.039 54.7188 172.305 54.7188ZM172.305 56.5156C173.805 56.5156 174.531 57.6562 174.531 60.125V60.7188C174.531 63.1875 173.805 64.3281 172.305 64.3281C170.812 64.3281 170.086 63.1875 170.086 60.7188V60.125C170.086 57.6562 170.812 56.5156 172.305 56.5156ZM185.555 54.7188C180.758 54.7969 178.359 57.4531 178.359 61.1484C178.359 64.4922 180.312 66.125 182.82 66.125C185.062 66.125 187.016 64.7891 187.016 62.3203C187.016 60.2891 185.711 58.7812 183.383 58.7812C182.047 58.7812 180.852 59.2969 180.312 60.0859C180.703 57.9688 182.445 56.6016 185.703 56.5547L185.555 54.7188ZM182.844 64.3828C181.484 64.3828 180.523 63.5469 180.523 62.3672C180.523 61.1172 181.617 60.375 182.906 60.375C184.25 60.375 185.062 61.1875 185.062 62.3828C185.062 63.6797 184.102 64.3828 182.844 64.3828ZM196.68 54.7188C193.953 54.7188 192.484 56.6172 192.484 60.1484V60.6953C192.484 64.2266 193.953 66.125 196.68 66.125C199.414 66.125 200.883 64.2266 200.883 60.6953V60.1484C200.883 56.6172 199.414 54.7188 196.68 54.7188ZM196.68 56.5156C198.18 56.5156 198.906 57.6562 198.906 60.125V60.7188C198.906 63.1875 198.18 64.3281 196.68 64.3281C195.188 64.3281 194.461 63.1875 194.461 60.7188V60.125C194.461 57.6562 195.188 56.5156 196.68 56.5156ZM209.93 54.7188C205.133 54.7969 202.734 57.4531 202.734 61.1484C202.734 64.4922 204.688 66.125 207.195 66.125C209.438 66.125 211.391 64.7891 211.391 62.3203C211.391 60.2891 210.086 58.7812 207.758 58.7812C206.422 58.7812 205.227 59.2969 204.688 60.0859C205.078 57.9688 206.82 56.6016 210.078 56.5547L209.93 54.7188ZM207.219 64.3828C205.859 64.3828 204.898 63.5469 204.898 62.3672C204.898 61.1172 205.992 60.375 207.281 60.375C208.625 60.375 209.438 61.1875 209.438 62.3828C209.438 63.6797 208.477 64.3828 207.219 64.3828ZM214.227 66.125C219.023 66.0469 221.422 63.3906 221.422 59.6953C221.422 56.3594 219.469 54.7188 216.961 54.7188C214.727 54.7188 212.766 56.0547 212.766 58.5312C212.766 60.5547 214.07 62.0625 216.406 62.0625C217.742 62.0625 218.93 61.5547 219.477 60.7578C219.078 62.8828 217.344 64.25 214.086 64.2891L214.227 66.125ZM216.938 56.4688C218.305 56.4688 219.258 57.2969 219.258 58.4766C219.258 59.7344 218.164 60.4688 216.875 60.4688C215.539 60.4688 214.719 59.6562 214.719 58.4609C214.719 57.1641 215.688 56.4688 216.938 56.4688ZM227.445 54.7188C224.992 54.7188 223.516 55.9688 223.516 57.8125C223.516 58.9219 224.055 59.8672 225.141 60.3125C223.844 60.6875 223.266 61.7344 223.266 62.9375C223.266 64.8594 224.75 66.125 227.445 66.125C230.102 66.125 231.625 64.8906 231.625 62.9219C231.625 61.7344 231.047 60.6875 229.75 60.3125C230.836 59.8672 231.375 58.9219 231.375 57.8125C231.375 55.9688 229.891 54.7188 227.445 54.7188ZM227.445 56.4688C228.727 56.4688 229.398 57.0781 229.398 58.0312C229.398 58.9609 228.75 59.5938 227.445 59.5938C226.141 59.5938 225.492 58.9609 225.492 58.0391C225.492 57.0859 226.156 56.4688 227.445 56.4688ZM227.445 60.9375C228.93 60.9375 229.656 61.5938 229.656 62.625C229.656 63.6719 228.883 64.375 227.445 64.375C226 64.375 225.234 63.6719 225.234 62.625C225.234 61.5938 225.961 60.9375 227.445 60.9375ZM237.664 54.7188C234.938 54.7188 233.469 56.6172 233.469 60.1484V60.6953C233.469 64.2266 234.938 66.125 237.664 66.125C240.398 66.125 241.867 64.2266 241.867 60.6953V60.1484C241.867 56.6172 240.398 54.7188 237.664 54.7188ZM237.664 56.5156C239.164 56.5156 239.891 57.6562 239.891 60.125V60.7188C239.891 63.1875 239.164 64.3281 237.664 64.3281C236.172 64.3281 235.445 63.1875 235.445 60.7188V60.125C235.445 57.6562 236.172 56.5156 237.664 56.5156ZM250.875 62.0312V54.9062H248.508L243.43 62.2891V63.8438H248.93V66H250.875V63.8438H252.797V62.0312H250.875ZM248.93 62.0312H245.594L248.93 57.1562V62.0312Z" fill="black"/>
<path d="M95.6466 38.9732H72.4135C72.1833 38.9732 72 38.7946 72 38.5804V24.3929C72 24.1741 72.188 24 72.4135 24H95.6419C95.8722 24 96.0555 24.1786 96.0555 24.3929V38.5804C96.0602 38.7991 95.8722 38.9732 95.6466 38.9732Z" fill="#65BAFF"/>
<g opacity="0.35">
<path d="M94.6117 37.946H73.3779C73.1675 37.946 73 37.7798 73 37.5804V24.378C73 24.1745 73.1718 24.0125 73.3779 24.0125H94.6074C94.8179 24.0125 94.9854 24.1786 94.9854 24.378V37.5804C94.9897 37.784 94.8179 37.946 94.6117 37.946Z" fill="#73AF00"/>
<path d="M83.7973 25.9608L75.8088 30.6677C75.564 30.8089 75.564 31.1496 75.8088 31.295L83.8016 36.0018C83.9218 36.0724 84.0765 36.0724 84.1967 36.0018L92.1895 31.295C92.4343 31.1537 92.4343 30.8131 92.1895 30.6677L84.1924 25.9608C84.0722 25.8902 83.9176 25.8902 83.7973 25.9608Z" fill="#FFE15A"/>
<path d="M83.9948 33.9122C85.6694 33.9122 87.027 32.599 87.027 30.9792C87.027 29.3594 85.6694 28.0463 83.9948 28.0463C82.3202 28.0463 80.9626 29.3594 80.9626 30.9792C80.9626 32.599 82.3202 33.9122 83.9948 33.9122Z" fill="#41479B"/>
<path d="M81.3922 29.4795C81.2505 29.7122 81.1388 29.9614 81.0658 30.2315C82.7451 30.111 85.2361 30.5638 86.8166 32.051C86.9197 31.7976 86.9884 31.5234 87.0142 31.2409C85.3778 29.9074 83.1187 29.4338 81.3922 29.4795Z" fill="#F5F5F5"/>
</g>
<path d="M95.6466 96.9732H72.4135C72.1833 96.9732 72 96.7946 72 96.5804V82.3929C72 82.1741 72.188 82 72.4135 82H95.6419C95.8722 82 96.0555 82.1786 96.0555 82.3929V96.5804C96.0602 96.7991 95.8722 96.9732 95.6466 96.9732Z" fill="#65BAFF"/>
<g opacity="0.35">
<path d="M95.6466 96.9866H72.4135C72.1833 96.9866 72 96.808 72 96.5937V82.4062C72 82.1875 72.188 82.0134 72.4135 82.0134H95.6419C95.8722 82.0134 96.0555 82.192 96.0555 82.4062V96.5937C96.0602 96.8125 95.8722 96.9866 95.6466 96.9866Z" fill="#FF4B55"/>
<path d="M75.9943 84.3527L76.3891 85.4777L77.6391 85.4866C77.7988 85.4866 77.8693 85.683 77.7377 85.7768L76.7321 86.4821L77.108 87.6161C77.155 87.7634 76.9812 87.8839 76.8496 87.7946L75.8346 87.1027L74.8195 87.7946C74.6879 87.8839 74.5141 87.7634 74.5611 87.6161L74.937 86.4821L73.9314 85.7768C73.7998 85.6875 73.8703 85.4911 74.03 85.4866L75.28 85.4777L75.6748 84.3527C75.7265 84.2098 75.9426 84.2098 75.9943 84.3527Z" fill="#FFE15A"/>
<path d="M80.5338 84.6339L80.8157 85L81.2715 84.8661C81.3326 84.8482 81.3796 84.9107 81.342 84.9598L81.0601 85.3304L81.3373 85.7009C81.3749 85.75 81.3232 85.8125 81.2668 85.7946L80.811 85.6563L80.5244 86.0223C80.4868 86.0714 80.4069 86.0446 80.4069 85.9866V85.5313L79.9511 85.3839C79.89 85.3661 79.8947 85.2857 79.9511 85.2679L80.4069 85.125L80.4116 84.6696C80.4163 84.6071 80.4962 84.5848 80.5338 84.6339Z" fill="#FFE15A"/>
<path d="M78.8092 83.5357L79.2839 83.5848L79.4859 83.1741C79.5141 83.1205 79.594 83.1295 79.6081 83.1875L79.7068 83.6339L80.1814 83.692C80.2425 83.7009 80.2613 83.7768 80.2049 83.808L79.7867 84.0357L79.876 84.4821C79.8854 84.5402 79.8149 84.5804 79.7679 84.5402L79.4107 84.2321L78.9925 84.4509C78.9361 84.4777 78.875 84.4241 78.9032 84.3705L79.1006 83.9554L78.7481 83.6429C78.7105 83.6027 78.7434 83.5313 78.8092 83.5357Z" fill="#FFE15A"/>
<path d="M79.5611 87.9509L79.2791 88.317L78.8233 88.183C78.7622 88.1652 78.7152 88.2277 78.7528 88.2768L79.0348 88.6473L78.7575 89.0179C78.7199 89.067 78.7716 89.1295 78.828 89.1116L79.2838 88.9732L79.5705 89.3393C79.6081 89.3884 79.688 89.3616 79.688 89.3036V88.8482L80.1438 88.7009C80.2049 88.683 80.2002 88.6027 80.1438 88.5848L79.688 88.442L79.6833 87.9866C79.6786 87.9286 79.5987 87.9018 79.5611 87.9509Z" fill="#FFE15A"/>
<path d="M81.2857 86.9241L80.8111 86.9732L80.609 86.5625C80.5808 86.5089 80.5009 86.5179 80.4868 86.5759L80.3882 87.0223L79.9135 87.0804C79.8524 87.0893 79.8336 87.1652 79.89 87.1964L80.3083 87.4241L80.219 87.8705C80.2096 87.9286 80.2801 87.9688 80.3271 87.9286L80.6842 87.6205L81.1024 87.8393C81.1588 87.8661 81.2199 87.8125 81.1917 87.7589L80.9944 87.3438L81.3468 87.0313C81.3844 86.9866 81.3468 86.9152 81.2857 86.9241Z" fill="#FFE15A"/>
</g>
<rect x="68" y="31" width="32" height="20" fill="#65BAFF"/>
<g opacity="0.35" filter="url(#filter0_ddd)">
<path d="M99.5288 50.9821H68.5514C68.2444 50.9821 68 50.744 68 50.4583V31.5417C68 31.25 68.2506 31.0179 68.5514 31.0179H99.5226C99.8296 31.0179 100.074 31.256 100.074 31.5417V50.4583C100.08 50.75 99.8296 50.9821 99.5288 50.9821Z" fill="#F5F5F5"/>
<path d="M100.08 32.5536H68V31.5417C68 31.25 68.2506 31.0179 68.5514 31.0179H99.5226C99.8296 31.0179 100.074 31.256 100.074 31.5417L100.08 32.5536V32.5536Z" fill="#FF4B55"/>
<rect x="68" y="37.1607" width="32.0802" height="1.53572" fill="#FF4B55"/>
<rect x="68" y="34.0893" width="32.0802" height="1.53572" fill="#FF4B55"/>
<path d="M100.08 41.7679H68.5514C68.2444 41.7679 68 41.5298 68 41.244V40.2321H100.08V41.7679Z" fill="#FF4B55"/>
<rect x="68" y="46.375" width="32.0802" height="1.53572" fill="#FF4B55"/>
<path d="M99.5288 50.9821H68.5514C68.2444 50.9821 68 50.744 68 50.4583V49.4464H100.08V50.4583C100.08 50.75 99.8296 50.9821 99.5288 50.9821Z" fill="#FF4B55"/>
<rect x="68" y="43.3036" width="32.0802" height="1.53572" fill="#FF4B55"/>
<path d="M82.3797 31.0179H68.5514C68.2444 31.0179 68 31.256 68 31.5417V41.244C68 41.5357 68.2506 41.7679 68.5514 41.7679H82.3797C82.6867 41.7679 82.9311 41.5298 82.9311 41.244V31.5417C82.9311 31.25 82.6867 31.0179 82.3797 31.0179Z" fill="#41479B"/>
<path d="M69.485 33.3214C69.7584 33.3214 69.98 33.1109 69.98 32.8512C69.98 32.5915 69.7584 32.381 69.485 32.381C69.2116 32.381 68.99 32.5915 68.99 32.8512C68.99 33.1109 69.2116 33.3214 69.485 33.3214Z" fill="#F5F5F5"/>
<path d="M69.485 35.1488C69.7584 35.1488 69.98 34.9383 69.98 34.6786C69.98 34.4189 69.7584 34.2083 69.485 34.2083C69.2116 34.2083 68.99 34.4189 68.99 34.6786C68.99 34.9383 69.2116 35.1488 69.485 35.1488Z" fill="#F5F5F5"/>
<path d="M69.485 36.9702C69.7584 36.9702 69.98 36.7597 69.98 36.5C69.98 36.2403 69.7584 36.0298 69.485 36.0298C69.2116 36.0298 68.99 36.2403 68.99 36.5C68.99 36.7597 69.2116 36.9702 69.485 36.9702Z" fill="#F5F5F5"/>
<path d="M69.485 38.7976C69.7584 38.7976 69.98 38.5871 69.98 38.3274C69.98 38.0677 69.7584 37.8571 69.485 37.8571C69.2116 37.8571 68.99 38.0677 68.99 38.3274C68.99 38.5871 69.2116 38.7976 69.485 38.7976Z" fill="#F5F5F5"/>
<path d="M71.0452 34.2262C71.3185 34.2262 71.5401 34.0157 71.5401 33.756C71.5401 33.4962 71.3185 33.2857 71.0452 33.2857C70.7718 33.2857 70.5502 33.4962 70.5502 33.756C70.5502 34.0157 70.7718 34.2262 71.0452 34.2262Z" fill="#F5F5F5"/>
<path d="M71.0452 36.0476C71.3185 36.0476 71.5401 35.8371 71.5401 35.5774C71.5401 35.3177 71.3185 35.1071 71.0452 35.1071C70.7718 35.1071 70.5502 35.3177 70.5502 35.5774C70.5502 35.8371 70.7718 36.0476 71.0452 36.0476Z" fill="#F5F5F5"/>
<path d="M71.0452 37.875C71.3185 37.875 71.5401 37.6645 71.5401 37.4048C71.5401 37.1451 71.3185 36.9345 71.0452 36.9345C70.7718 36.9345 70.5502 37.1451 70.5502 37.4048C70.5502 37.6645 70.7718 37.875 71.0452 37.875Z" fill="#F5F5F5"/>
<path d="M71.0452 39.7024C71.3185 39.7024 71.5401 39.4918 71.5401 39.2321C71.5401 38.9724 71.3185 38.7619 71.0452 38.7619C70.7718 38.7619 70.5502 38.9724 70.5502 39.2321C70.5502 39.4918 70.7718 39.7024 71.0452 39.7024Z" fill="#F5F5F5"/>
<path d="M74.059 34.2262C74.3323 34.2262 74.5539 34.0157 74.5539 33.756C74.5539 33.4962 74.3323 33.2857 74.059 33.2857C73.7856 33.2857 73.564 33.4962 73.564 33.756C73.564 34.0157 73.7856 34.2262 74.059 34.2262Z" fill="#F5F5F5"/>
<path d="M74.059 36.0476C74.3323 36.0476 74.5539 35.8371 74.5539 35.5774C74.5539 35.3177 74.3323 35.1071 74.059 35.1071C73.7856 35.1071 73.564 35.3177 73.564 35.5774C73.564 35.8371 73.7856 36.0476 74.059 36.0476Z" fill="#F5F5F5"/>
<path d="M74.059 37.875C74.3323 37.875 74.5539 37.6645 74.5539 37.4048C74.5539 37.1451 74.3323 36.9345 74.059 36.9345C73.7856 36.9345 73.564 37.1451 73.564 37.4048C73.564 37.6645 73.7856 37.875 74.059 37.875Z" fill="#F5F5F5"/>
<path d="M74.059 39.7024C74.3323 39.7024 74.5539 39.4918 74.5539 39.2321C74.5539 38.9724 74.3323 38.7619 74.059 38.7619C73.7856 38.7619 73.564 38.9724 73.564 39.2321C73.564 39.4918 73.7856 39.7024 74.059 39.7024Z" fill="#F5F5F5"/>
<path d="M77.0664 34.2262C77.3398 34.2262 77.5614 34.0157 77.5614 33.756C77.5614 33.4962 77.3398 33.2857 77.0664 33.2857C76.793 33.2857 76.5714 33.4962 76.5714 33.756C76.5714 34.0157 76.793 34.2262 77.0664 34.2262Z" fill="#F5F5F5"/>
<path d="M77.0664 36.0476C77.3398 36.0476 77.5614 35.8371 77.5614 35.5774C77.5614 35.3177 77.3398 35.1071 77.0664 35.1071C76.793 35.1071 76.5714 35.3177 76.5714 35.5774C76.5714 35.8371 76.793 36.0476 77.0664 36.0476Z" fill="#F5F5F5"/>
<path d="M77.0664 37.875C77.3398 37.875 77.5614 37.6645 77.5614 37.4048C77.5614 37.1451 77.3398 36.9345 77.0664 36.9345C76.793 36.9345 76.5714 37.1451 76.5714 37.4048C76.5714 37.6645 76.793 37.875 77.0664 37.875Z" fill="#F5F5F5"/>
<path d="M77.0664 39.7024C77.3398 39.7024 77.5614 39.4918 77.5614 39.2321C77.5614 38.9724 77.3398 38.7619 77.0664 38.7619C76.793 38.7619 76.5714 38.9724 76.5714 39.2321C76.5714 39.4918 76.793 39.7024 77.0664 39.7024Z" fill="#F5F5F5"/>
<path d="M80.0802 34.2262C80.3536 34.2262 80.5752 34.0157 80.5752 33.756C80.5752 33.4962 80.3536 33.2857 80.0802 33.2857C79.8068 33.2857 79.5852 33.4962 79.5852 33.756C79.5852 34.0157 79.8068 34.2262 80.0802 34.2262Z" fill="#F5F5F5"/>
<path d="M80.0802 36.0476C80.3536 36.0476 80.5752 35.8371 80.5752 35.5774C80.5752 35.3177 80.3536 35.1071 80.0802 35.1071C79.8068 35.1071 79.5852 35.3177 79.5852 35.5774C79.5852 35.8371 79.8068 36.0476 80.0802 36.0476Z" fill="#F5F5F5"/>
<path d="M80.0802 37.875C80.3536 37.875 80.5752 37.6645 80.5752 37.4048C80.5752 37.1451 80.3536 36.9345 80.0802 36.9345C79.8068 36.9345 79.5852 37.1451 79.5852 37.4048C79.5852 37.6645 79.8068 37.875 80.0802 37.875Z" fill="#F5F5F5"/>
<path d="M80.0802 39.7024C80.3536 39.7024 80.5752 39.4918 80.5752 39.2321C80.5752 38.9724 80.3536 38.7619 80.0802 38.7619C79.8068 38.7619 79.5852 38.9724 79.5852 39.2321C79.5852 39.4918 79.8068 39.7024 80.0802 39.7024Z" fill="#F5F5F5"/>
<path d="M69.485 40.625C69.7584 40.625 69.98 40.4145 69.98 40.1548C69.98 39.8951 69.7584 39.6845 69.485 39.6845C69.2116 39.6845 68.99 39.8951 68.99 40.1548C68.99 40.4145 69.2116 40.625 69.485 40.625Z" fill="#F5F5F5"/>
<path d="M72.5112 33.3214C72.7846 33.3214 73.0062 33.1109 73.0062 32.8512C73.0062 32.5915 72.7846 32.381 72.5112 32.381C72.2378 32.381 72.0162 32.5915 72.0162 32.8512C72.0162 33.1109 72.2378 33.3214 72.5112 33.3214Z" fill="#F5F5F5"/>
<path d="M72.5112 35.1488C72.7846 35.1488 73.0062 34.9383 73.0062 34.6786C73.0062 34.4189 72.7846 34.2083 72.5112 34.2083C72.2378 34.2083 72.0162 34.4189 72.0162 34.6786C72.0162 34.9383 72.2378 35.1488 72.5112 35.1488Z" fill="#F5F5F5"/>
<path d="M72.5112 36.9702C72.7846 36.9702 73.0062 36.7597 73.0062 36.5C73.0062 36.2403 72.7846 36.0298 72.5112 36.0298C72.2378 36.0298 72.0162 36.2403 72.0162 36.5C72.0162 36.7597 72.2378 36.9702 72.5112 36.9702Z" fill="#F5F5F5"/>
<path d="M72.5112 38.7976C72.7846 38.7976 73.0062 38.5871 73.0062 38.3274C73.0062 38.0677 72.7846 37.8571 72.5112 37.8571C72.2378 37.8571 72.0162 38.0677 72.0162 38.3274C72.0162 38.5871 72.2378 38.7976 72.5112 38.7976Z" fill="#F5F5F5"/>
<path d="M72.5112 40.625C72.7846 40.625 73.0062 40.4145 73.0062 40.1548C73.0062 39.8951 72.7846 39.6845 72.5112 39.6845C72.2378 39.6845 72.0162 39.8951 72.0162 40.1548C72.0162 40.4145 72.2378 40.625 72.5112 40.625Z" fill="#F5F5F5"/>
<path d="M75.5438 33.3214C75.8172 33.3214 76.0388 33.1109 76.0388 32.8512C76.0388 32.5915 75.8172 32.381 75.5438 32.381C75.2704 32.381 75.0488 32.5915 75.0488 32.8512C75.0488 33.1109 75.2704 33.3214 75.5438 33.3214Z" fill="#F5F5F5"/>
<path d="M75.5438 35.1488C75.8172 35.1488 76.0388 34.9383 76.0388 34.6786C76.0388 34.4189 75.8172 34.2083 75.5438 34.2083C75.2704 34.2083 75.0488 34.4189 75.0488 34.6786C75.0488 34.9383 75.2704 35.1488 75.5438 35.1488Z" fill="#F5F5F5"/>
<path d="M75.5438 36.9702C75.8172 36.9702 76.0388 36.7597 76.0388 36.5C76.0388 36.2403 75.8172 36.0298 75.5438 36.0298C75.2704 36.0298 75.0488 36.2403 75.0488 36.5C75.0488 36.7597 75.2704 36.9702 75.5438 36.9702Z" fill="#F5F5F5"/>
<path d="M75.5438 38.7976C75.8172 38.7976 76.0388 38.5871 76.0388 38.3274C76.0388 38.0677 75.8172 37.8571 75.5438 37.8571C75.2704 37.8571 75.0488 38.0677 75.0488 38.3274C75.0488 38.5871 75.2704 38.7976 75.5438 38.7976Z" fill="#F5F5F5"/>
<path d="M75.5438 40.625C75.8172 40.625 76.0388 40.4145 76.0388 40.1548C76.0388 39.8951 75.8172 39.6845 75.5438 39.6845C75.2704 39.6845 75.0488 39.8951 75.0488 40.1548C75.0488 40.4145 75.2704 40.625 75.5438 40.625Z" fill="#F5F5F5"/>
<path d="M78.5702 33.3214C78.8436 33.3214 79.0652 33.1109 79.0652 32.8512C79.0652 32.5915 78.8436 32.381 78.5702 32.381C78.2968 32.381 78.0752 32.5915 78.0752 32.8512C78.0752 33.1109 78.2968 33.3214 78.5702 33.3214Z" fill="#F5F5F5"/>
<path d="M78.5702 35.1488C78.8436 35.1488 79.0652 34.9383 79.0652 34.6786C79.0652 34.4189 78.8436 34.2083 78.5702 34.2083C78.2968 34.2083 78.0752 34.4189 78.0752 34.6786C78.0752 34.9383 78.2968 35.1488 78.5702 35.1488Z" fill="#F5F5F5"/>
<path d="M78.5702 36.9702C78.8436 36.9702 79.0652 36.7597 79.0652 36.5C79.0652 36.2403 78.8436 36.0298 78.5702 36.0298C78.2968 36.0298 78.0752 36.2403 78.0752 36.5C78.0752 36.7597 78.2968 36.9702 78.5702 36.9702Z" fill="#F5F5F5"/>
<path d="M78.5702 38.7976C78.8436 38.7976 79.0652 38.5871 79.0652 38.3274C79.0652 38.0677 78.8436 37.8571 78.5702 37.8571C78.2968 37.8571 78.0752 38.0677 78.0752 38.3274C78.0752 38.5871 78.2968 38.7976 78.5702 38.7976Z" fill="#F5F5F5"/>
<path d="M78.5702 40.625C78.8436 40.625 79.0652 40.4145 79.0652 40.1548C79.0652 39.8951 78.8436 39.6845 78.5702 39.6845C78.2968 39.6845 78.0752 39.8951 78.0752 40.1548C78.0752 40.4145 78.2968 40.625 78.5702 40.625Z" fill="#F5F5F5"/>
<path d="M81.6028 33.3214C81.8761 33.3214 82.0978 33.1109 82.0978 32.8512C82.0978 32.5915 81.8761 32.381 81.6028 32.381C81.3294 32.381 81.1078 32.5915 81.1078 32.8512C81.1078 33.1109 81.3294 33.3214 81.6028 33.3214Z" fill="#F5F5F5"/>
<path d="M81.6028 35.1488C81.8761 35.1488 82.0978 34.9383 82.0978 34.6786C82.0978 34.4189 81.8761 34.2083 81.6028 34.2083C81.3294 34.2083 81.1078 34.4189 81.1078 34.6786C81.1078 34.9383 81.3294 35.1488 81.6028 35.1488Z" fill="#F5F5F5"/>
<path d="M81.6028 36.9702C81.8761 36.9702 82.0978 36.7597 82.0978 36.5C82.0978 36.2403 81.8761 36.0298 81.6028 36.0298C81.3294 36.0298 81.1078 36.2403 81.1078 36.5C81.1078 36.7597 81.3294 36.9702 81.6028 36.9702Z" fill="#F5F5F5"/>
<path d="M81.6028 38.7976C81.8761 38.7976 82.0978 38.5871 82.0978 38.3274C82.0978 38.0677 81.8761 37.8571 81.6028 37.8571C81.3294 37.8571 81.1078 38.0677 81.1078 38.3274C81.1078 38.5871 81.3294 38.7976 81.6028 38.7976Z" fill="#F5F5F5"/>
<path d="M81.6028 40.625C81.8761 40.625 82.0978 40.4145 82.0978 40.1548C82.0978 39.8951 81.8761 39.6845 81.6028 39.6845C81.3294 39.6845 81.1078 39.8951 81.1078 40.1548C81.1078 40.4145 81.3294 40.625 81.6028 40.625Z" fill="#F5F5F5"/>
</g>
<rect x="68" y="69" width="32" height="20" fill="#65BAFF"/>
<g opacity="0.35" filter="url(#filter1_ddd)">
<path d="M100.08 75.6726H68V69.5417C68 69.25 68.2506 69.0179 68.5514 69.0179H99.5226C99.8296 69.0179 100.074 69.256 100.074 69.5417L100.08 75.6726V75.6726Z" fill="#FAB446"/>
<path d="M99.5288 88.9821H68.5514C68.2444 88.9821 68 88.744 68 88.4583V82.3274H100.08V88.4583C100.08 88.75 99.8296 88.9821 99.5288 88.9821Z" fill="#73AF00"/>
<rect x="68" y="75.6726" width="32.0802" height="6.65476" fill="#F5F5F5"/>
<path d="M84.0402 79.4345C84.2928 79.4345 84.4976 79.24 84.4976 79C84.4976 78.76 84.2928 78.5655 84.0402 78.5655C83.7875 78.5655 83.5828 78.76 83.5828 79C83.5828 79.24 83.7875 79.4345 84.0402 79.4345Z" fill="#F5F5F5"/>
<path fill-rule="evenodd" clip-rule="evenodd" d="M84.0401 76.1786C82.4048 76.1786 81.0702 77.4464 81.0702 79C81.0702 80.5536 82.3985 81.8214 84.0401 81.8214C85.6817 81.8214 87.01 80.5536 87.01 79C87.01 77.4464 85.6754 76.1786 84.0401 76.1786ZM86.4587 78.9405L84.8985 78.869L84.51 78.9048C84.4975 78.8452 84.4724 78.7976 84.4411 78.75L84.7419 78.5179L85.7945 77.4167C86.1892 77.8155 86.4399 78.3512 86.4587 78.9405ZM84.1404 78.5536C84.1967 78.5655 84.2531 78.5893 84.3033 78.619L84.5476 78.3333L85.7068 77.3333C85.287 76.9524 84.7231 76.7202 84.1028 76.7024L84.178 78.1845L84.1404 78.5536ZM83.9399 78.5536C83.8772 78.5655 83.8271 78.5893 83.777 78.619L83.5326 78.3333L82.3734 77.3333C82.7932 76.9524 83.3572 76.7202 83.9775 76.7024L83.9023 78.1845L83.9399 78.5536ZM83.9399 79.4464C83.8835 79.4345 83.8271 79.4107 83.777 79.381L83.5326 79.6667L82.3734 80.6667C82.7932 81.0476 83.3572 81.2798 83.9775 81.2976L83.9023 79.8155L83.9399 79.4464ZM84.1404 79.4464C84.203 79.4345 84.2531 79.4107 84.3033 79.381L84.5476 79.6667L85.7068 80.6667C85.287 81.0476 84.7231 81.2798 84.1028 81.2976L84.178 79.8155L84.1404 79.4464ZM83.3384 78.5179L82.2857 77.4167C81.891 77.8155 81.6404 78.3512 81.6216 78.9405L83.1817 78.869L83.5702 78.9048C83.5827 78.8512 83.6078 78.7976 83.6391 78.75L83.3384 78.5179ZM81.6216 79.0595L83.1817 79.131L83.5702 79.0952C83.5827 79.1548 83.6078 79.2024 83.6391 79.25L83.3384 79.4821L82.2857 80.5833C81.891 80.1845 81.6404 79.6488 81.6216 79.0595ZM84.7419 79.4821L85.7945 80.5833C86.1892 80.1845 86.4399 79.6488 86.4587 79.0595L84.8985 79.131L84.51 79.0952C84.4975 79.1488 84.4724 79.2024 84.4411 79.25L84.7419 79.4821Z" fill="#41479B"/>
</g>
<g filter="url(#filter2_ddd)">
<path d="M102.44 71.9786H65.6548C65.2902 71.9786 65 71.6929 65 71.35V48.65C65 48.3 65.2976 48.0214 65.6548 48.0214H102.433C102.798 48.0214 103.088 48.3071 103.088 48.65V71.35C103.095 71.7 102.798 71.9786 102.44 71.9786Z" fill="#41479B"/>
<path d="M103.095 48.65C103.095 48.3 102.798 48.0214 102.44 48.0214H99.5015L87.3289 55.6714V48.0214H80.7589V55.6714L68.5938 48.0214H65.6548C65.2902 48.0214 65 48.3071 65 48.65V50.2786L75.439 56.8429H65V63.15H75.439L65 69.7214V71.35C65 71.7 65.2976 71.9786 65.6548 71.9786H68.5938L80.7589 64.3286V71.9786H87.3289V64.3286L99.494 71.9786H102.433C102.798 71.9786 103.088 71.6929 103.088 71.35V69.7214L92.6488 63.1571H103.095V56.85H92.6562L103.095 50.2786V48.65Z" fill="#F5F5F5"/>
<path d="M103.095 58.1071H86.0193V48.0214H82.0759V58.1071H65V61.8929H82.0759V71.9786H86.0193V61.8929H103.095V58.1071Z" fill="#FF4B55"/>
<path d="M78.311 63.15L65.0149 71.4357C65.0595 71.7429 65.32 71.9786 65.6548 71.9786H66.5625L80.7292 63.15H78.311V63.15Z" fill="#FF4B55"/>
<path d="M90.7738 63.15H88.363L102.507 71.9643C102.835 71.9286 103.095 71.6714 103.095 71.35V70.8286L90.7738 63.15Z" fill="#FF4B55"/>
<path d="M65 49.3429L77.0387 56.8429H79.4494L65.3795 48.0786C65.1563 48.1786 65 48.3929 65 48.65V49.3429Z" fill="#FF4B55"/>
<path d="M89.747 56.85L103.073 48.5429C103.021 48.25 102.76 48.0214 102.44 48.0214H101.503L87.3289 56.85H89.747Z" fill="#FF4B55"/>
</g>
</g>
<defs>
<filter id="filter0_ddd" x="36" y="5" width="96.0802" height="86" filterUnits="userSpaceOnUse" color-interpolation-filters="sRGB">
<feFlood flood-opacity="0" result="BackgroundImageFix"/>
<feColorMatrix in="SourceAlpha" type="matrix" values="0 0 0 0 0 0 0 0 0 0 0 0 0 0 0 0 0 0 127 0"/>
<feOffset dy="6"/>
<feGaussianBlur stdDeviation="16"/>
<feColorMatrix type="matrix" values="0 0 0 0 0 0 0 0 0 0 0 0 0 0 0 0 0 0 0.1 0"/>
<feBlend mode="normal" in2="BackgroundImageFix" result="effect1_dropShadow"/>
<feColorMatrix in="SourceAlpha" type="matrix" values="0 0 0 0 0 0 0 0 0 0 0 0 0 0 0 0 0 0 127 0"/>
<feOffset dy="16"/>
<feGaussianBlur stdDeviation="12"/>
<feColorMatrix type="matrix" values="0 0 0 0 0 0 0 0 0 0 0 0 0 0 0 0 0 0 0.05 0"/>
<feBlend mode="normal" in2="effect1_dropShadow" result="effect2_dropShadow"/>
<feColorMatrix in="SourceAlpha" type="matrix" values="0 0 0 0 0 0 0 0 0 0 0 0 0 0 0 0 0 0 127 0"/>
<feOffset dy="8"/>
<feGaussianBlur stdDeviation="6"/>
<feColorMatrix type="matrix" values="0 0 0 0 0 0 0 0 0 0 0 0 0 0 0 0 0 0 0.05 0"/>
<feBlend mode="normal" in2="effect2_dropShadow" result="effect3_dropShadow"/>
<feBlend mode="normal" in="SourceGraphic" in2="effect3_dropShadow" result="shape"/>
</filter>
<filter id="filter1_ddd" x="36" y="43" width="96.0802" height="86" filterUnits="userSpaceOnUse" color-interpolation-filters="sRGB">
<feFlood flood-opacity="0" result="BackgroundImageFix"/>
<feColorMatrix in="SourceAlpha" type="matrix" values="0 0 0 0 0 0 0 0 0 0 0 0 0 0 0 0 0 0 127 0"/>
<feOffset dy="6"/>
<feGaussianBlur stdDeviation="16"/>
<feColorMatrix type="matrix" values="0 0 0 0 0 0 0 0 0 0 0 0 0 0 0 0 0 0 0.1 0"/>
<feBlend mode="normal" in2="BackgroundImageFix" result="effect1_dropShadow"/>
<feColorMatrix in="SourceAlpha" type="matrix" values="0 0 0 0 0 0 0 0 0 0 0 0 0 0 0 0 0 0 127 0"/>
<feOffset dy="16"/>
<feGaussianBlur stdDeviation="12"/>
<feColorMatrix type="matrix" values="0 0 0 0 0 0 0 0 0 0 0 0 0 0 0 0 0 0 0.05 0"/>
<feBlend mode="normal" in2="effect1_dropShadow" result="effect2_dropShadow"/>
<feColorMatrix in="SourceAlpha" type="matrix" values="0 0 0 0 0 0 0 0 0 0 0 0 0 0 0 0 0 0 127 0"/>
<feOffset dy="8"/>
<feGaussianBlur stdDeviation="6"/>
<feColorMatrix type="matrix" values="0 0 0 0 0 0 0 0 0 0 0 0 0 0 0 0 0 0 0.05 0"/>
<feBlend mode="normal" in2="effect2_dropShadow" result="effect3_dropShadow"/>
<feBlend mode="normal" in="SourceGraphic" in2="effect3_dropShadow" result="shape"/>
</filter>
<filter id="filter2_ddd" x="33" y="22" width="102.095" height="90" filterUnits="userSpaceOnUse" color-interpolation-filters="sRGB">
<feFlood flood-opacity="0" result="BackgroundImageFix"/>
<feColorMatrix in="SourceAlpha" type="matrix" values="0 0 0 0 0 0 0 0 0 0 0 0 0 0 0 0 0 0 127 0"/>
<feOffset dy="6"/>
<feGaussianBlur stdDeviation="16"/>
<feColorMatrix type="matrix" values="0 0 0 0 0 0 0 0 0 0 0 0 0 0 0 0 0 0 0.1 0"/>
<feBlend mode="normal" in2="BackgroundImageFix" result="effect1_dropShadow"/>
<feColorMatrix in="SourceAlpha" type="matrix" values="0 0 0 0 0 0 0 0 0 0 0 0 0 0 0 0 0 0 127 0"/>
<feOffset dy="16"/>
<feGaussianBlur stdDeviation="12"/>
<feColorMatrix type="matrix" values="0 0 0 0 0 0 0 0 0 0 0 0 0 0 0 0 0 0 0.05 0"/>
<feBlend mode="normal" in2="effect1_dropShadow" result="effect2_dropShadow"/>
<feColorMatrix in="SourceAlpha" type="matrix" values="0 0 0 0 0 0 0 0 0 0 0 0 0 0 0 0 0 0 127 0"/>
<feOffset dy="8"/>
<feGaussianBlur stdDeviation="6"/>
<feColorMatrix type="matrix" values="0 0 0 0 0 0 0 0 0 0 0 0 0 0 0 0 0 0 0.05 0"/>
<feBlend mode="normal" in2="effect2_dropShadow" result="effect3_dropShadow"/>
<feBlend mode="normal" in="SourceGraphic" in2="effect3_dropShadow" result="shape"/>
</filter>
<clipPath id="clip0">
<rect width="336" height="107" fill="white"/>
</clipPath>
</defs>
</svg>
