<svg width="336" height="107" viewBox="0 0 336 107" fill="none" xmlns="http://www.w3.org/2000/svg">
<path d="M0 0H336V107H0V0Z" fill="#B77EF9"/>
<mask id="mask0" mask-type="alpha" maskUnits="userSpaceOnUse" x="0" y="0" width="336" height="107">
<path d="M0 8C0 3.58172 3.58172 0 8 0H328C332.418 0 336 3.58172 336 8V107H0V8Z" fill="#9941FF"/>
</mask>
<g mask="url(#mask0)">
<path fill-rule="evenodd" clip-rule="evenodd" d="M239.099 429.754L97.768 429.67C80.77 429.662 66.997 415.876 67 398.879L67.07 44.559C67.073 27.552 80.866 13.769 97.874 13.779L239.206 13.862C256.203 13.872 269.976 27.657 269.973 44.654L269.904 398.974C269.9 415.982 256.107 429.765 239.099 429.754Z" fill="#333333"/>
<path fill-rule="evenodd" clip-rule="evenodd" d="M239.055 26.394L211.654 26.378C207.979 26.376 204.999 29.489 204.999 33.33L204.996 38.301C204.997 42.142 202.017 45.255 198.342 45.252L144.931 45.221C141.256 45.219 138.277 42.102 138.278 38.261L138.279 33.291C138.28 29.449 135.301 26.333 131.627 26.331L121.989 26.325L98.006 26.311C86.096 26.305 76.435 35.957 76.433 47.868L76.365 393.709C76.363 405.616 86.009 415.269 97.913 415.276L238.962 415.358C250.872 415.366 260.533 405.713 260.536 393.802L260.603 47.959C260.605 36.055 250.959 26.401 239.055 26.394Z" fill="#FFFFFE"/>
<rect x="90.5" y="78.5" width="159" height="35" rx="7.5" stroke="#B3B3B3"/>
<path d="M109.363 99V96.4492H112.438V99H112.992V93.3984H112.438V95.918H109.363V93.3984H108.809V99H109.363ZM117.773 96.6211C117.773 95.4766 117.102 94.8281 116.094 94.8281C114.949 94.8281 114.254 95.6562 114.254 96.9766C114.254 98.207 114.852 99.0625 116.055 99.0625C116.91 99.0625 117.449 98.6211 117.723 98.0039L117.281 97.793C117.098 98.2461 116.715 98.5781 116.082 98.5781C115.227 98.5781 114.805 97.9688 114.785 97.1133H117.773V96.6211ZM116.078 95.3125C116.773 95.3125 117.23 95.7227 117.23 96.5781V96.6562H114.793C114.855 95.8828 115.281 95.3125 116.078 95.3125ZM118.965 93.2695V99H119.5V93.2695H118.965ZM120.965 93.2695V99H121.5V93.2695H120.965ZM124.535 94.8281C123.398 94.8281 122.691 95.6289 122.691 96.9453C122.691 98.2656 123.398 99.0625 124.535 99.0625C125.672 99.0625 126.383 98.2656 126.383 96.9453C126.383 95.6289 125.672 94.8281 124.535 94.8281ZM124.535 95.3125C125.355 95.3125 125.848 95.8984 125.848 96.9453C125.848 97.9961 125.355 98.5781 124.535 98.5781C123.719 98.5781 123.227 97.9961 123.227 96.9453C123.227 95.8984 123.719 95.3125 124.535 95.3125ZM128.465 93.3984H127.922V96.3984L127.953 97.4766H128.438L128.465 96.3984V93.3984ZM128.539 98.1328H127.848V99H128.539V98.1328ZM135.48 93.3984L133.902 96.1211L132.332 93.3984H131.676L133.629 96.6836V99H134.184V96.6836L136.133 93.3984H135.48ZM138.191 94.8281C137.055 94.8281 136.348 95.6289 136.348 96.9453C136.348 98.2656 137.055 99.0625 138.191 99.0625C139.328 99.0625 140.039 98.2656 140.039 96.9453C140.039 95.6289 139.328 94.8281 138.191 94.8281ZM138.191 95.3125C139.012 95.3125 139.504 95.8984 139.504 96.9453C139.504 97.9961 139.012 98.5781 138.191 98.5781C137.375 98.5781 136.883 97.9961 136.883 96.9453C136.883 95.8984 137.375 95.3125 138.191 95.3125ZM144.43 99V94.9062H143.895V97.2109C143.895 97.9727 143.426 98.5625 142.672 98.5625C142.051 98.5625 141.727 98.1523 141.727 97.4414V94.9062H141.191V97.6406C141.191 98.5195 141.688 99.0625 142.547 99.0625C143.199 99.0625 143.648 98.7461 143.895 98.207V99H144.43ZM145.895 94.9062V99H146.43V96.9219C146.43 95.9453 146.895 95.3867 147.727 95.3867C147.844 95.3867 147.953 95.3984 148.074 95.4141L148.105 94.9023C147.988 94.8789 147.871 94.8672 147.758 94.8672C147.156 94.8672 146.645 95.1445 146.43 95.8125V94.9062H145.895ZM154.344 99V93.2695H153.805V95.7227C153.547 95.0781 153.027 94.8281 152.41 94.8281C151.262 94.8281 150.676 95.6875 150.676 96.9453C150.676 98.1992 151.254 99.0625 152.418 99.0625C153.035 99.0625 153.535 98.8242 153.812 98.1523V99H154.344ZM152.504 98.5781C151.691 98.5781 151.211 97.9648 151.211 96.9453C151.211 95.9219 151.695 95.3125 152.504 95.3125C153.312 95.3125 153.805 95.918 153.805 96.9453C153.805 97.9688 153.316 98.5781 152.504 98.5781ZM155.801 94.9062V99H156.336V96.9219C156.336 95.9453 156.801 95.3867 157.633 95.3867C157.75 95.3867 157.859 95.3984 157.98 95.4141L158.012 94.9023C157.895 94.8789 157.777 94.8672 157.664 94.8672C157.062 94.8672 156.551 95.1445 156.336 95.8125V94.9062H155.801ZM159.523 93.3828H158.91V94.1719H159.523V93.3828ZM159.484 94.9062H158.949V99H159.484V94.9062ZM163.672 94.9062L162.367 98.3594L161.055 94.9062H160.48L162.086 99H162.645L164.25 94.9062H163.672ZM168.414 96.6211C168.414 95.4766 167.742 94.8281 166.734 94.8281C165.59 94.8281 164.895 95.6562 164.895 96.9766C164.895 98.207 165.492 99.0625 166.695 99.0625C167.551 99.0625 168.09 98.6211 168.363 98.0039L167.922 97.793C167.738 98.2461 167.355 98.5781 166.723 98.5781C165.867 98.5781 165.445 97.9688 165.426 97.1133H168.414V96.6211ZM166.719 95.3125C167.414 95.3125 167.871 95.7227 167.871 96.5781V96.6562H165.434C165.496 95.8828 165.922 95.3125 166.719 95.3125ZM169.605 94.9062V99H170.141V96.9219C170.141 95.9453 170.605 95.3867 171.438 95.3867C171.555 95.3867 171.664 95.3984 171.785 95.4141L171.816 94.9023C171.699 94.8789 171.582 94.8672 171.469 94.8672C170.867 94.8672 170.355 95.1445 170.141 95.8125V94.9062H169.605ZM175.273 93.3828H174.66V94.1719H175.273V93.3828ZM175.234 94.9062H174.699V99H175.234V94.9062ZM179.582 95.8984C179.422 95.2695 178.918 94.8281 178.016 94.8281C177.113 94.8281 176.508 95.2734 176.508 96.0352C176.508 96.8789 177.262 97.0195 177.957 97.1445C178.562 97.2539 179.129 97.3477 179.129 97.8789C179.129 98.3086 178.758 98.6055 178.148 98.6055C177.57 98.6055 177.082 98.3359 176.93 97.7227L176.426 97.8711C176.621 98.6406 177.301 99.0625 178.141 99.0625C179.059 99.0625 179.66 98.5586 179.66 97.8047C179.66 96.9531 178.895 96.8281 178.199 96.7148C177.594 96.6133 177.039 96.5195 177.039 95.9844C177.039 95.5625 177.383 95.2891 177.996 95.2891C178.594 95.2891 178.957 95.5547 179.102 96.043L179.582 95.8984ZM184.402 94.8281C183.266 94.8281 182.559 95.6289 182.559 96.9453C182.559 98.2656 183.266 99.0625 184.402 99.0625C185.539 99.0625 186.25 98.2656 186.25 96.9453C186.25 95.6289 185.539 94.8281 184.402 94.8281ZM184.402 95.3125C185.223 95.3125 185.715 95.8984 185.715 96.9453C185.715 97.9961 185.223 98.5781 184.402 98.5781C183.586 98.5781 183.094 97.9961 183.094 96.9453C183.094 95.8984 183.586 95.3125 184.402 95.3125ZM187.441 94.9062V99H187.977V96.6797C187.977 95.918 188.445 95.3281 189.238 95.3281C189.898 95.3281 190.223 95.7383 190.223 96.4453V99H190.758V96.25C190.758 95.3789 190.27 94.8281 189.359 94.8281C188.672 94.8281 188.223 95.1445 187.977 95.6836V94.9062H187.441ZM196.016 94.9062H194.938V93.6328L194.402 93.7734V94.9062H193.594V95.3984H194.402V98.0273C194.402 98.3086 194.402 99.0625 195.406 99.0625C195.637 99.0625 195.887 99.0234 196.125 98.957L196.07 98.5078C195.895 98.5547 195.727 98.582 195.574 98.582C195.035 98.582 194.938 98.2656 194.938 97.9141V95.3984H196.016V94.9062ZM197.223 93.2695V99H197.758V96.6797C197.758 95.918 198.227 95.3281 199.02 95.3281C199.68 95.3281 200.004 95.7383 200.004 96.4453V99H200.539V96.25C200.539 95.3789 200.051 94.8281 199.141 94.8281C198.453 94.8281 198.004 95.1445 197.758 95.6836V93.2695H197.223ZM205.211 96.6211C205.211 95.4766 204.539 94.8281 203.531 94.8281C202.387 94.8281 201.691 95.6562 201.691 96.9766C201.691 98.207 202.289 99.0625 203.492 99.0625C204.348 99.0625 204.887 98.6211 205.16 98.0039L204.719 97.793C204.535 98.2461 204.152 98.5781 203.52 98.5781C202.664 98.5781 202.242 97.9688 202.223 97.1133H205.211V96.6211ZM203.516 95.3125C204.211 95.3125 204.668 95.7227 204.668 96.5781V96.6562H202.23C202.293 95.8828 202.719 95.3125 203.516 95.3125ZM206.977 93.3828H206.363V94.1719H206.977V93.3828ZM206.938 94.9062H206.402V99H206.938V94.9062ZM208.402 94.9062V99H208.938V96.9219C208.938 95.9453 209.402 95.3867 210.234 95.3867C210.352 95.3867 210.461 95.3984 210.582 95.4141L210.613 94.9023C210.496 94.8789 210.379 94.8672 210.266 94.8672C209.664 94.8672 209.152 95.1445 208.938 95.8125V94.9062H208.402ZM218.047 94.9062L217.098 98.3555L216.062 94.9062H215.496L214.461 98.3555L213.512 94.9062H212.949L214.168 99H214.734L215.781 95.6875L216.828 99H217.391L218.609 94.9062H218.047ZM221.176 94.8281C220.246 94.8281 219.637 95.2617 219.406 95.957L219.918 96.1094C220.09 95.6016 220.512 95.3125 221.168 95.3125C221.82 95.3125 222.152 95.5938 222.152 96.0078C222.152 96.5195 221.645 96.5977 220.996 96.6836C220.234 96.7812 219.332 96.8867 219.332 97.8945C219.332 98.6211 219.805 99.0625 220.648 99.0625C221.23 99.0625 221.816 98.8594 222.156 98.2539V99H222.688V96.0703C222.688 95.2773 222.125 94.8281 221.176 94.8281ZM220.75 98.5781C220.211 98.5781 219.867 98.3672 219.867 97.8789C219.867 97.2656 220.418 97.1953 221.023 97.1094C221.453 97.0469 221.883 96.9766 222.152 96.793V97.3906C222.152 98.1406 221.531 98.5781 220.75 98.5781ZM226.754 94.9062L225.508 98.4141L224.191 94.9062H223.605L225.23 99.0547C225.055 99.6289 224.777 99.9375 224.27 99.9375C224.094 99.9375 223.926 99.8984 223.754 99.8477L223.648 100.309C223.871 100.379 224.113 100.422 224.332 100.422C224.953 100.422 225.418 100.09 225.668 99.4141L227.328 94.9062H226.754ZM228.625 98.1328H227.934V99H228.625V98.1328Z" fill="#333333"/>
<path d="M121.598 61.5352H119.465V59.2852H118.152V61.5352H116.025V62.8242H118.152V65.0684H119.465V62.8242H121.598V61.5352ZM131.277 63.0234V57.6797H129.502L125.693 63.2168V64.3828H129.818V66H131.277V64.3828H132.719V63.0234H131.277ZM129.818 63.0234H127.316L129.818 59.3672V63.0234ZM139.375 63.0234V57.6797H137.6L133.791 63.2168V64.3828H137.916V66H139.375V64.3828H140.816V63.0234H139.375ZM137.916 63.0234H135.414L137.916 59.3672V63.0234ZM150.016 59.502L149.646 58.3887L147.953 59.0332L147.982 57.1875H146.746L146.793 59.0332L145.088 58.3887L144.707 59.502L146.465 60.0996L145.34 61.5176L146.312 62.2383L147.367 60.7266L148.422 62.2383L149.389 61.5176L148.264 60.0996L150.016 59.502ZM156.473 59.502L156.104 58.3887L154.41 59.0332L154.439 57.1875H153.203L153.25 59.0332L151.545 58.3887L151.164 59.502L152.922 60.0996L151.797 61.5176L152.77 62.2383L153.824 60.7266L154.879 62.2383L155.846 61.5176L154.721 60.0996L156.473 59.502ZM162.93 59.502L162.561 58.3887L160.867 59.0332L160.896 57.1875H159.66L159.707 59.0332L158.002 58.3887L157.621 59.502L159.379 60.0996L158.254 61.5176L159.227 62.2383L160.281 60.7266L161.336 62.2383L162.303 61.5176L161.178 60.0996L162.93 59.502ZM169.387 59.502L169.018 58.3887L167.324 59.0332L167.354 57.1875H166.117L166.164 59.0332L164.459 58.3887L164.078 59.502L165.836 60.0996L164.711 61.5176L165.684 62.2383L166.738 60.7266L167.793 62.2383L168.76 61.5176L167.635 60.0996L169.387 59.502ZM178.562 59.502L178.193 58.3887L176.5 59.0332L176.529 57.1875H175.293L175.34 59.0332L173.635 58.3887L173.254 59.502L175.012 60.0996L173.887 61.5176L174.859 62.2383L175.914 60.7266L176.969 62.2383L177.936 61.5176L176.811 60.0996L178.562 59.502ZM185.02 59.502L184.65 58.3887L182.957 59.0332L182.986 57.1875H181.75L181.797 59.0332L180.092 58.3887L179.711 59.502L181.469 60.0996L180.344 61.5176L181.316 62.2383L182.371 60.7266L183.426 62.2383L184.393 61.5176L183.268 60.0996L185.02 59.502ZM191.477 59.502L191.107 58.3887L189.414 59.0332L189.443 57.1875H188.207L188.254 59.0332L186.549 58.3887L186.168 59.502L187.926 60.0996L186.801 61.5176L187.773 62.2383L188.828 60.7266L189.883 62.2383L190.85 61.5176L189.725 60.0996L191.477 59.502ZM197.934 59.502L197.564 58.3887L195.871 59.0332L195.9 57.1875H194.664L194.711 59.0332L193.006 58.3887L192.625 59.502L194.383 60.0996L193.258 61.5176L194.23 62.2383L195.285 60.7266L196.34 62.2383L197.307 61.5176L196.182 60.0996L197.934 59.502ZM204.391 59.502L204.021 58.3887L202.328 59.0332L202.357 57.1875H201.121L201.168 59.0332L199.463 58.3887L199.082 59.502L200.84 60.0996L199.715 61.5176L200.688 62.2383L201.742 60.7266L202.797 62.2383L203.764 61.5176L202.639 60.0996L204.391 59.502ZM210.848 59.502L210.479 58.3887L208.785 59.0332L208.814 57.1875H207.578L207.625 59.0332L205.92 58.3887L205.539 59.502L207.297 60.0996L206.172 61.5176L207.145 62.2383L208.199 60.7266L209.254 62.2383L210.221 61.5176L209.096 60.0996L210.848 59.502ZM217.305 59.502L216.936 58.3887L215.242 59.0332L215.271 57.1875H214.035L214.082 59.0332L212.377 58.3887L211.996 59.502L213.754 60.0996L212.629 61.5176L213.602 62.2383L214.656 60.7266L215.711 62.2383L216.678 61.5176L215.553 60.0996L217.305 59.502Z" fill="#333333"/>
<g filter="url(#filter0_d)">
<path d="M99 53C96.8 53 95 54.8 95 57V58H93C92.4 58 92 58.4 92 59V68C92 68.6 92.4 69 93 69H105C105.6 69 106 68.6 106 68V59C106 58.4 105.6 58 105 58H103V57C103 54.8 101.2 53 99 53ZM100 64.7V66H98V64.7C97.4 64.4 97 63.7 97 63C97 61.9 97.9 61 99 61C100.1 61 101 61.9 101 63C101 63.7 100.6 64.4 100 64.7ZM101 58H97V57C97 55.9 97.9 55 99 55C100.1 55 101 55.9 101 57V58Z" fill="#333333"/>
</g>
</g>
<defs>
<filter id="filter0_d" x="51" y="33" width="96" height="96" filterUnits="userSpaceOnUse" color-interpolation-filters="sRGB">
<feFlood flood-opacity="0" result="BackgroundImageFix"/>
<feColorMatrix in="SourceAlpha" type="matrix" values="0 0 0 0 0 0 0 0 0 0 0 0 0 0 0 0 0 0 127 0"/>
<feOffset dy="20"/>
<feGaussianBlur stdDeviation="20"/>
<feColorMatrix type="matrix" values="0 0 0 0 1 0 0 0 0 1 0 0 0 0 1 0 0 0 0.1 0"/>
<feBlend mode="normal" in2="BackgroundImageFix" result="effect1_dropShadow"/>
<feBlend mode="normal" in="SourceGraphic" in2="effect1_dropShadow" result="shape"/>
</filter>
</defs>
</svg>
