<svg width="336" height="107" viewBox="0 0 336 107" fill="none" xmlns="http://www.w3.org/2000/svg">
<path d="M0 0H336V107H0V0Z" fill="#65BAFF"/>
<path d="M0 0H336V107H0V0Z" fill="#65BAFF"/>
<mask id="mask0" mask-type="alpha" maskUnits="userSpaceOnUse" x="0" y="0" width="336" height="107">
<path d="M0 0H336V107H0V0Z" fill="#65BAFF"/>
</mask>
<g mask="url(#mask0)">
<path d="M343.897 -6.10078V79.5508C343.897 82.3101 341.671 84.536 338.912 84.536H225.905C223.146 84.536 220.92 82.3101 220.92 79.5508V-6.10078" fill="#65BAFF"/>
<path d="M338.911 85.4559H225.905C224.323 85.4559 222.833 84.8488 221.729 83.7267C220.607 82.6045 220 81.1328 220 79.5508V-6.10074H222.84V79.5508C222.84 81.7951 223.661 82.6163 225.905 82.6163H338.911C341.156 82.6163 341.977 81.7951 341.977 79.5508V-6.10074H344.817V79.5508C344.817 82.8069 342.167 85.4559 338.911 85.4559Z" fill="#333333"/>
<circle cx="255.983" cy="23.6741" r="11.4086" fill="white"/>
<path d="M252.662 16.4489C252.662 16.4489 258.323 23.0995 268.283 24.6933C268.283 24.6933 269.404 15.8758 261.17 12.8593C261.327 12.3593 261.413 11.8271 261.413 11.2751C261.413 8.36161 259.051 6 256.138 6C253.224 6 250.862 8.36161 250.862 11.2751C250.862 11.828 250.948 12.3603 251.106 12.8613C242.801 15.4171 243.947 23.5837 243.947 23.5837C246.929 16.5633 252.662 16.4489 252.662 16.4489Z" fill="black"/>
<path d="M266.192 31.567C273.202 32.6127 283.647 35.2493 295.524 41.5721C313.087 50.9214 327 58.0001 333 82.5001H306.5C305.949 71.2719 307.013 54.983 270.015 47.9501L286 82.5001H232.5L241.271 50.3954C233.627 51.6185 222.511 76.187 203.966 76.187C187.798 76.187 180.589 60.7164 177.399 48.1574C175.365 40.1475 181.361 32.355 189.625 32.355C196.749 32.355 202.378 38.2431 202.247 45.3659C202.144 50.9373 203.217 56.1355 207.636 55.8999C221.992 55.134 229.072 33.5935 246.374 31.567C246.374 31.567 248.534 36.3945 256.565 36.2537C263.097 36.1392 266.192 31.567 266.192 31.567Z" fill="#0E65C2"/>
<path d="M132.897 84.8992V170.551C132.897 173.31 130.671 175.536 127.912 175.536H14.9052C12.1458 175.536 9.91992 173.31 9.91992 170.551V84.8992" fill="#65BAFF"/>
<path d="M127.911 176.456H14.9051C13.323 176.456 11.833 175.849 10.7292 174.727C9.60707 173.605 9 172.133 9 170.551V84.8993H11.8396V170.551C11.8396 172.795 12.6608 173.616 14.9051 173.616H127.911C130.156 173.616 130.977 172.795 130.977 170.551V84.8993H133.817V170.551C133.817 173.807 131.167 176.456 127.911 176.456Z" fill="#333333"/>
<path d="M132.087 68.7292C130.965 67.6071 129.493 67 127.911 67H14.9051C11.649 67 9 69.649 9 72.9051V85.8191H133.817V72.9051C133.817 71.323 133.209 69.833 132.087 68.7292Z" fill="#333333"/>
<path d="M19.1366 79.638C20.9247 79.638 22.3743 78.1884 22.3743 76.4003C22.3743 74.6122 20.9247 73.1626 19.1366 73.1626C17.3485 73.1626 15.8989 74.6122 15.8989 76.4003C15.8989 78.1884 17.3485 79.638 19.1366 79.638Z" fill="#E61D1D"/>
<path d="M30.1928 79.638C31.9809 79.638 33.4304 78.1885 33.4304 76.4004C33.4304 74.6122 31.9809 73.1627 30.1928 73.1627C28.4046 73.1627 26.9551 74.6122 26.9551 76.4004C26.9551 78.1885 28.4046 79.638 30.1928 79.638Z" fill="#FA9F00"/>
<path d="M41.267 79.638C43.0551 79.638 44.5047 78.1885 44.5047 76.4004C44.5047 74.6122 43.0551 73.1627 41.267 73.1627C39.4789 73.1627 38.0293 74.6122 38.0293 76.4004C38.0293 78.1885 39.4789 79.638 41.267 79.638Z" fill="#53CA6A"/>
<path d="M16.198 145.197L39.5481 110.296C40.1277 109.426 40.8315 108.723 41.6181 108.143L42.3219 107.646L84.5922 77.4236C90.6781 73.0766 99.1652 74.4842 103.512 80.5701C107.859 86.656 106.452 95.1432 100.366 99.4903L58.0956 129.713L60.8695 127.063L31.7647 158.818L16.198 145.197Z" fill="white"/>
<path d="M112.632 124.829C115.737 111.457 106.422 109.925 112.053 101.769C117.683 93.6128 116.565 80.0747 106.298 77.6734C98.3902 75.8104 97.9348 75.355 94.5814 74.6098C84.0241 72.1257 74.2535 81.1925 74.916 91.9981C74.916 91.9981 75.1644 94.4822 74.4192 97.463C73.6325 100.485 65.1868 103.176 63.0339 112.367L112.632 124.829Z" fill="#871EFF"/>
<path d="M175.39 80.3581L149.582 111.989C146.715 115.504 142.243 116.928 138.068 116.095L137.058 115.904L95.4708 107.435C88.1317 105.96 83.3867 98.7967 84.8977 91.4374C86.3725 84.0983 93.536 79.3533 100.895 80.8642L142.482 89.3331L129.994 93.2274L158.267 68.0003L175.39 80.3581Z" fill="white"/>
<path d="M105.591 111.073L114.994 81.3953L103.651 77.4352L97.0218 77.4723C95.2096 77.7535 91.3981 78.4212 90.6499 78.8423C89.7147 79.3688 85.6469 82.6439 85.0857 82.9598C84.6368 83.2125 82.1488 88.3898 80.9609 90.9469L83.4779 101.107L90.4369 107.781L105.591 111.073Z" fill="#871EFF"/>
<path d="M157.114 69.426L164.644 62.7165C168.693 59.1069 174.884 59.4703 178.474 63.4835C181.711 67.1247 181.753 72.517 178.746 76.2052L174.217 81.7478L157.114 69.426Z" fill="white"/>
<mask id="mask1" mask-type="alpha" maskUnits="userSpaceOnUse" x="94" y="46" width="27" height="27">
<ellipse cx="107.364" cy="59.0413" rx="12.9068" ry="13.0413" fill="#C4C4C4"/>
</mask>
<g mask="url(#mask1)">
<ellipse cx="107.364" cy="59.0413" rx="12.9068" ry="13.0413" fill="white"/>
<path d="M117.286 56.917L115.673 57.0515C113.199 57.2666 111.155 59.0682 110.645 61.5151L109.65 66.1131L105.912 65.5485L98.5982 69.4205C96.9042 70.3079 94.9144 70.4423 93.1397 69.797L88.4341 68.0761L96.7697 50.9208C99.3242 45.6774 105.562 43.3649 110.913 45.7042L113.495 46.8336C117.394 48.5545 119.088 53.0988 117.286 56.917Z" fill="#F89B85"/>
</g>
<path d="M109.623 55.3305L117.179 57.5623C119.115 58.127 121.159 57.2666 122.127 55.4919L122.987 53.8785C124.197 51.6467 123.202 48.8771 120.863 47.9091C119.976 47.5327 119.008 47.4789 118.066 47.7478L115.136 48.5813L109.623 55.3305Z" fill="#F89B85"/>
<path d="M106.45 66.9467C105.697 66.7585 105.213 65.9787 105.401 65.2258L106.423 61.0848C106.611 60.3319 107.391 59.8479 108.144 60.0362C108.897 60.2244 109.381 61.0042 109.193 61.7571L108.171 65.898C108.01 66.6509 107.23 67.1349 106.45 66.9467Z" fill="white"/>
<path d="M69.824 87.1127L74.5851 100.361L82.2442 86.9057L80.1742 80.4886L69.824 87.1127Z" fill="#871EFF"/>
</g>
</svg>
