<?xml version="1.0" encoding="utf-8"?>
<!-- Generator: Adobe Illustrator 24.1.0, SVG Export Plug-In . SVG Version: 6.00 Build 0)  -->
<svg version="1.1" id="Layer_1" xmlns="http://www.w3.org/2000/svg" xmlns:xlink="http://www.w3.org/1999/xlink" x="0px" y="0px"
	 viewBox="0 0 1223.1 1738.6" style="enable-background:new 0 0 1223.1 1738.6;" xml:space="preserve">
<style type="text/css">
	.st0{fill:#FFFFFF;}
	.st1{fill:#80C7F5;}
	.st2{fill:#D7219C;}
	.st3{fill:#FA7554;}
	.st4{fill:#FFA68C;}
	.st5{fill:#871FFF;}
	.st6{fill:#B3DDF9;}
	.st7{fill:#FFB8A3;}
	.st8{fill:#99D2F7;}
	.st9{fill:#CCE9FB;}
	.st10{fill:url(#SVGID_1_);}
	.st11{fill:none;}
	.st12{fill:#E6F4FD;}
	.st13{fill:url(#SVGID_2_);}
	.st14{fill:#FCAC98;}
	.st15{fill:url(#SVGID_3_);}
	.st16{fill:#CFA5FF;}
	.st17{fill:#FDC8BB;}
	.st18{fill:#FB9176;}
	.st19{fill:none;stroke:#FA7554;stroke-miterlimit:10;}
	.st20{fill:url(#SVGID_4_);}
	.st21{fill:url(#SVGID_5_);}
	.st22{clip-path:url(#SVGID_7_);}
	.st23{fill:url(#SVGID_8_);}
	.st24{fill:url(#SVGID_9_);}
	.st25{fill:url(#SVGID_12_);}
	.st26{fill:url(#SVGID_13_);}
	.st27{fill:url(#SVGID_14_);}
	.st28{fill:url(#SVGID_15_);}
	.st29{fill:url(#SVGID_16_);}
	.st30{fill:url(#SVGID_17_);}
	.st31{fill:url(#SVGID_18_);}
	.st32{fill:url(#SVGID_19_);}
	.st33{fill:url(#SVGID_20_);}
	.st34{fill:url(#SVGID_21_);}
	.st35{fill:url(#SVGID_22_);}
	.st36{fill:url(#SVGID_23_);}
	.st37{fill:url(#SVGID_26_);}
	.st38{fill:url(#SVGID_27_);}
	.st39{fill:url(#SVGID_28_);}
	.st40{fill:url(#SVGID_29_);}
	.st41{fill:url(#SVGID_30_);}
	.st42{fill:url(#SVGID_31_);}
	.st43{fill:url(#SVGID_32_);}
	.st44{fill:url(#SVGID_33_);}
	.st45{fill:url(#SVGID_34_);}
	.st46{fill:url(#SVGID_35_);}
	.st47{fill:url(#SVGID_36_);}
	.st48{fill:url(#SVGID_37_);}
	.st49{fill:url(#SVGID_38_);}
	.st50{fill:url(#SVGID_39_);}
	.st51{fill:url(#SVGID_40_);}
	.st52{fill:url(#SVGID_41_);}
	.st53{fill:url(#SVGID_42_);}
	.st54{fill:url(#SVGID_43_);}
	.st55{fill:url(#SVGID_44_);}
	.st56{fill:url(#SVGID_45_);}
	.st57{fill:url(#SVGID_48_);}
	.st58{fill:url(#SVGID_49_);}
	.st59{fill:url(#SVGID_50_);}
	.st60{fill:url(#SVGID_51_);}
	.st61{fill:url(#SVGID_52_);}
	.st62{fill:url(#SVGID_53_);}
	.st63{fill:url(#SVGID_54_);}
	.st64{fill:url(#SVGID_55_);}
</style>
<g>
	<path class="st2" d="M1122.3,102.6c-6.5-27-20.9-52.8-44.3-71.4C1041.1,2,992.7-6.4,956.6,4.7c-11,3.4-21.9,7.5-32,13.3
		c-9.5,5.5-18.4,12.3-26.5,20.2l0,0c0,0-0.2,0.2-0.6,0.6c-0.2,0.2-0.4,0.4-0.6,0.6c-10.7,10.4-95.9,86.6-232.7,30.7l0,0
		c-27-11.9-56.4-14-79.9-6.7c-9.8,3-19.5,6.6-28.5,11.9c-11.7,6.8-22.4,15.7-31.6,26.6c-42.3,50.5-35.6,125.8,15,168.1
		c7,5.9,15.8,10.8,24.3,14.9c14.4,7,32.3,12.3,50.4,15.5c61.3,10.8,275.7,38.1,435.1-44.9c4.7-2.2,9.4-4.7,13.8-7.5
		c0.1-0.1,0.2-0.1,0.3-0.2l0,0c11.7-7.3,22.4-16.5,31.7-27.6C1123.2,186.2,1131.9,142.5,1122.3,102.6z"/>
	<path class="st0" d="M557.1,119.1c-1.8,1.8-3.6,3.7-5.3,5.7c-29.5,35.3-24.8,87.8,10.4,117.3c14.7,12.3,32.4,18.6,50.1,19.3
		c24.9,1,50-9.2,67.2-29.8c8.8-10.5,14.6-22.6,17.4-35.1C621.2,186,578.4,146.8,557.1,119.1z"/>
	<path class="st1" d="M1220.9,762.1L1220.9,762.1c0,0-85.2-512.8-607.5-471.7c-55.9,4.4-105.5,38.6-128.6,89.7
		c-1.7,3.7-2.5,5.9-2.5,5.9S386,655.5,97.6,726.7l0,0c-22.6,4.9-44.2,16.1-62.1,34.2c-41.8,42.2-47.3,109.7-13.1,158.2
		c31.5,44.6,84.6,57.4,134.5,48.2l0,0c0,0,131.2-15.9,254.5-96.2l-223.9,735.4h-74.3c-35.5,0-66.1,27.3-67.8,62.8
		c-1.8,37.9,28.4,69.2,65.9,69.2h35.9H250h185.3l162.9-535.1v76c0,82,66.5,148.4,148.4,148.4h237v35.5c0,35.5,27.3,66.1,62.8,67.8
		c37.9,1.8,69.2-28.4,69.2-65.9v-37.4v-101.2v-188.4h-236V840.5c-6.9-172.8-11.9-253.2-38.4-318.1c49.6,45.1,119.8,133.1,135,279.2
		l0,0c3,22.9,12.4,45.4,28.9,64.7c38.6,45.1,105.4,56.2,156.6,26C1208.9,864.5,1230.3,811.7,1220.9,762.1z"/>
	<g>
		<path class="st6" d="M427.3,1200.6c0-55.8-31.1-104.4-76.8-129.3l-14.6,48c25.9,17.8,42.8,47.5,42.8,81.3
			c0,54.1-43.6,98-97.6,98.6l-14.6,48c4.5,0.4,9,0.7,13.6,0.7C361.4,1347.8,427.3,1281.9,427.3,1200.6z"/>
		<path class="st6" d="M638.5,1248.8c-14,0-27.5,2-40.3,5.6v25.1c0,9.4,0.9,18.5,2.6,27.4c11.6-4.9,24.4-7.6,37.7-7.6
			c53.5,0,96.8,43.3,96.8,96.8c0,10.9-1.9,21.3-5.2,31c5.4,0.6,10.9,0.9,16.5,0.9h35.6c2.3-10.3,3.5-21,3.5-31.9
			C785.7,1314.7,719.8,1248.8,638.5,1248.8z"/>
		<path class="st9" d="M378.7,1200.6c0-33.8-17-63.5-42.8-81.3l-54.8,179.9C335.1,1298.6,378.7,1254.7,378.7,1200.6z"/>
		<path class="st9" d="M730.1,1427c3.3-9.7,5.2-20.1,5.2-31c0-53.5-43.3-96.8-96.8-96.8c-13.4,0-26.1,2.7-37.7,7.6
			C612.6,1370.4,665,1419.8,730.1,1427z"/>
	</g>
	<rect x="927.3" y="1138.3" class="st2" width="21.7" height="289.6"/>
	<polygon class="st2" points="194.9,1582.6 201.4,1560.9 489.3,1560.9 482.7,1582.6 	"/>
	<rect x="498.7" y="448.1" class="st9" width="245.3" height="186.2"/>
	<rect x="668" y="712.4" class="st9" width="57.9" height="201.4"/>
	
		<rect x="725.9" y="712.4" transform="matrix(-1 -1.224647e-16 1.224647e-16 -1 1464.5059 1626.1611)" class="st6" width="12.7" height="201.4"/>
	
		<rect x="744" y="448.1" transform="matrix(-1 -1.224647e-16 1.224647e-16 -1 1501.1509 1082.4946)" class="st6" width="13.2" height="186.2"/>
	<path class="st6" d="M1101.5,593.7c19.5,0,38-4.2,54.8-11.6c-7-13.4-14.8-27.1-23.3-40.9c-9.8,3.7-20.3,5.9-31.4,5.9
		c-48.6,0-88.1-39.4-88.1-88.1c0-16.6,4.7-32.1,12.7-45.4c-11.6-10.2-23.8-20-36.8-29.3c-14.3,21.4-22.6,47.1-22.6,74.7
		C966.8,533.4,1027.1,593.7,1101.5,593.7z"/>
	<path class="st5" d="M1026.2,413.6c-8,13.3-12.7,28.8-12.7,45.4c0,48.6,39.4,88.1,88.1,88.1c11.1,0,21.7-2.1,31.4-5.9
		C1105.9,497.3,1070.9,452.8,1026.2,413.6z"/>
	<path class="st6" d="M444.3,765.4l17.4-56C399.7,722,353.3,777.3,354,843c0.2,19.5,4.6,38,12.3,54.6c13.4-7.2,27-15.1,40.6-23.8
		c-3.9-9.7-6.1-20.3-6.3-31.4C400.3,809.6,417.9,780.9,444.3,765.4z"/>
	<path class="st5" d="M400.7,842.4c0.1,11.1,2.4,21.6,6.3,31.4c1.5-1,3.1-2,4.6-3l32.7-105.3C417.9,780.9,400.3,809.6,400.7,842.4z"
		/>
	<rect x="621.4" y="382.7" class="st12" width="151.2" height="186.2"/>
	<rect x="668" y="274.5" class="st9" width="57.9" height="201.4"/>
	
		<rect x="725.9" y="274.5" transform="matrix(-1 -1.224647e-16 1.224647e-16 -1 1464.5059 750.3215)" class="st6" width="12.7" height="201.4"/>
	
		<rect x="772.5" y="382.7" transform="matrix(-1 -1.224647e-16 1.224647e-16 -1 1558.2358 951.6717)" class="st6" width="13.2" height="186.2"/>
	<circle class="st2" cx="697" cy="368.9" r="15.4"/>
	<circle class="st2" cx="697" cy="432.7" r="15.4"/>
	<circle class="st2" cx="534.2" cy="489" r="15.4"/>
	<circle class="st2" cx="534.2" cy="539.1" r="15.4"/>
	<circle class="st5" cx="534.2" cy="589.3" r="15.4"/>
	<rect x="643.6" y="495.7" class="st5" width="82.3" height="13.8"/>
	
		<rect x="509.9" y="532.5" transform="matrix(-1.836970e-16 1 -1 -1.836970e-16 1112.9753 -34.1067)" class="st1" width="127.2" height="13.8"/>
	
		<rect x="537.3" y="532.5" transform="matrix(-1.836970e-16 1 -1 -1.836970e-16 1140.3358 -61.4671)" class="st1" width="127.2" height="13.8"/>
	<rect x="740" y="495.7" class="st2" width="13.8" height="13.8"/>
	<rect x="643.6" y="527.4" class="st5" width="82.3" height="13.8"/>
	<rect x="740" y="527.4" class="st2" width="13.8" height="13.8"/>
	<path class="st11" d="M598.2,650.2v-3.9c-0.4,1.3-0.8,2.6-1.2,3.9H598.2z"/>
	<path class="st11" d="M841.2,534.3c6.7,16.4,12,33.8,16.3,53.4l17-19.1C863,555.2,851.7,543.8,841.2,534.3z"/>
	<g>
		<path class="st6" d="M791.1,822.2l83.4-93.8c-3.2-58-7.2-101.8-14-138l-69.4,78.1V822.2z"/>
		<path class="st6" d="M791.1,1003.3l88.5-99.5v-63.2c-1.3-31.6-2.4-60.1-3.7-86l-84.8,95V1003.3z"/>
	</g>
</g>
</svg>
