<?xml version="1.0" encoding="utf-8"?>
<!-- Generator: Adobe Illustrator 24.1.0, SVG Export Plug-In . SVG Version: 6.00 Build 0)  -->
<svg version="1.1" id="Layer_1" xmlns="http://www.w3.org/2000/svg" xmlns:xlink="http://www.w3.org/1999/xlink" x="0px" y="0px"
	 viewBox="0 0 2965.3 2000" style="enable-background:new 0 0 2965.3 2000;" xml:space="preserve">
<style type="text/css">
	.st0{fill:#FFFFFF;}
	.st1{fill:#80C7F5;}
	.st2{fill:#D7219C;}
	.st3{fill:#FA7554;}
	.st4{fill:#FFA68C;}
	.st5{fill:#871FFF;}
	.st6{fill:#B3DDF9;}
	.st7{fill:#FFB8A3;}
	.st8{fill:#99D2F7;}
	.st9{fill:#CCE9FB;}
	.st10{fill:url(#SVGID_1_);}
	.st11{fill:none;}
	.st12{fill:#E6F4FD;}
	.st13{fill:url(#SVGID_2_);}
	.st14{fill:#FCAC98;}
	.st15{fill:url(#SVGID_3_);}
	.st16{fill:#CFA5FF;}
	.st17{fill:#FDC8BB;}
	.st18{fill:#FB9176;}
	.st19{fill:none;stroke:#FA7554;stroke-miterlimit:10;}
	.st20{fill:url(#SVGID_4_);}
	.st21{fill:url(#SVGID_5_);}
	.st22{clip-path:url(#SVGID_7_);}
	.st23{fill:url(#SVGID_8_);}
	.st24{fill:url(#SVGID_9_);}
	.st25{fill:url(#SVGID_12_);}
	.st26{fill:url(#SVGID_13_);}
	.st27{fill:url(#SVGID_14_);}
	.st28{fill:url(#SVGID_15_);}
	.st29{fill:url(#SVGID_16_);}
	.st30{fill:url(#SVGID_17_);}
	.st31{fill:url(#SVGID_18_);}
	.st32{fill:url(#SVGID_19_);}
	.st33{fill:url(#SVGID_20_);}
	.st34{fill:url(#SVGID_21_);}
	.st35{fill:url(#SVGID_22_);}
	.st36{fill:url(#SVGID_23_);}
	.st37{fill:url(#SVGID_26_);}
	.st38{fill:url(#SVGID_27_);}
	.st39{fill:url(#SVGID_28_);}
	.st40{fill:url(#SVGID_29_);}
	.st41{fill:url(#SVGID_30_);}
	.st42{fill:url(#SVGID_31_);}
	.st43{fill:url(#SVGID_32_);}
	.st44{fill:url(#SVGID_33_);}
	.st45{fill:url(#SVGID_34_);}
	.st46{fill:url(#SVGID_35_);}
	.st47{fill:url(#SVGID_36_);}
	.st48{fill:url(#SVGID_37_);}
	.st49{fill:url(#SVGID_38_);}
	.st50{fill:url(#SVGID_39_);}
	.st51{fill:url(#SVGID_40_);}
	.st52{fill:url(#SVGID_41_);}
	.st53{fill:url(#SVGID_42_);}
	.st54{fill:url(#SVGID_43_);}
	.st55{fill:url(#SVGID_44_);}
	.st56{fill:url(#SVGID_45_);}
	.st57{fill:url(#SVGID_48_);}
	.st58{fill:url(#SVGID_49_);}
	.st59{fill:url(#SVGID_50_);}
	.st60{fill:url(#SVGID_51_);}
	.st61{fill:url(#SVGID_52_);}
	.st62{fill:url(#SVGID_53_);}
	.st63{fill:url(#SVGID_54_);}
	.st64{fill:url(#SVGID_55_);}
</style>
<g>
	<linearGradient id="SVGID_1_" gradientUnits="userSpaceOnUse" x1="1481.9718" y1="1845.5546" x2="1481.9718" y2="0">
		<stop  offset="0" style="stop-color:#871FFF"/>
		<stop  offset="8.411440e-02" style="stop-color:#831EF7"/>
		<stop  offset="0.2129" style="stop-color:#781BE2"/>
		<stop  offset="0.3704" style="stop-color:#6517BF"/>
		<stop  offset="0.5505" style="stop-color:#4B118E"/>
		<stop  offset="0.7497" style="stop-color:#2A0A50"/>
		<stop  offset="0.962" style="stop-color:#030106"/>
		<stop  offset="0.977" style="stop-color:#000000"/>
	</linearGradient>
	<rect x="-1.4" class="st10" width="2966.7" height="1845.6"/>
	<path class="st1" d="M393.7,1740.8L585,1586c53.3-43.1,78.1-112.3,64.5-179.4l-26.7-131.7L258,1568.2L393.7,1740.8z"/>
	<path class="st1" d="M416.2,1758.4l-153-194.4l-74.8,58.9l148.3,198.1c17.3,21.9,49,25.7,71,8.5l0,0
		C429.7,1812.2,433.5,1780.4,416.2,1758.4z"/>
	<polygon class="st2" points="426.5,1714.2 439.2,1703.8 300.6,1533.8 287.8,1544.1 	"/>
	<g>
		<path class="st2" d="M993.6,895c-6.8-8.2-14.9-14.8-23.6-19.9c-6.7-3.9-13.9-6.6-21.2-8.9c-17.6-5.4-39.5-3.8-59.6,5l0,0
			C787,913,723.5,856.2,715.5,848.4c-0.1-0.1-0.3-0.3-0.4-0.4c-0.3-0.3-0.5-0.5-0.5-0.5l0,0c-6-5.9-12.7-11-19.8-15.1
			c-7.6-4.4-15.7-7.4-23.9-10c-26.9-8.3-63-2.1-90.6,19.8c-17.5,13.8-28.2,33.1-33.1,53.2c-7.2,29.8-0.6,62.4,20.5,87.7
			c6.9,8.3,15,15.2,23.7,20.6l0,0c0.1,0,0.2,0.1,0.2,0.1c3.3,2.1,6.8,3.9,10.3,5.6c140.2,73,314.8,31.1,314.8,31.1l0,0
			c4,0.4,8,0.5,12,0.4c19-0.7,37.9-7.5,53.6-20.7C1020.1,988.9,1025.1,932.8,993.6,895z"/>
		<path class="st0" d="M973,912.2c-1.3-1.5-2.6-2.9-3.9-4.3c-15.9,20.7-47.8,49.9-104.3,57.9c2.1,9.3,6.4,18.3,13,26.2
			c12.8,15.4,31.5,22.9,50.1,22.2c13.3-0.5,26.4-5.2,37.4-14.4C991.5,977.7,995,938.5,973,912.2z"/>
	</g>
	<path class="st8" d="M1287.3,1016.1c-10.9-50.7-60.9-83-111.7-72.1c-15.1,3.2-28.5,9.9-39.6,19.1l0,0c-0.3,0.3-0.6,0.5-0.9,0.8
		c-0.4,0.4-0.9,0.7-1.3,1.1c-86.9,73.9-175.1,82.6-225.6,79.8c-0.1-7.9-2.5-15.6-9-22.1c-9.4-9.5-18.1-16.8-26.7-22.3l0.1,0
		c-339-266.7-606.9,53.4-606.9,53.4l0,0c-23.8,27.1-30.8,66.8-14.6,101.6c21.9,47.1,77.8,67.5,124.8,45.6c14-6.5,25.6-16,34.4-27.3
		l0,0c0.2-0.3,0.5-0.6,0.7-0.9c0.3-0.5,0.7-0.9,1-1.4c63.9-85.3,140.1-116.1,189.6-127.2c-58.5,27.3-119.7,68.7-169.3,131.6
		c-42.5,53.9-63,119.8-41.7,176.3c6.2,16.3,22.3,44.5,33.7,62.3l222.4,324.8l69.4,101.4h230.4c27.9,0,50.6-22.6,50.6-50.6
		c0-27.9-22.6-50.6-50.6-50.6l-35.9,0l-240-348L829,1173.9c218.5,92.9,421.6-61.9,421.6-61.9l0,0
		C1279.8,1090.8,1295.4,1053.6,1287.3,1016.1z"/>
	<polygon class="st2" points="892.7,1713.4 881.5,1696.9 618,1697 629.2,1713.4 	"/>
	<path class="st6" d="M787.6,1629.1c14.7,0,28.6-2.9,41.4-8.2l-21-30.5c-6.5,1.9-13.3,2.9-20.3,2.9c-40,0-72.5-32.5-72.5-72.5
		c0-16.4,5.5-31.5,14.7-43.7l-21-30.5c-18.2,19.4-29.4,45.5-29.4,74.2C679.4,1580.6,727.8,1629.1,787.6,1629.1z"/>
	<path class="st9" d="M715.1,1520.8c0,40,32.5,72.5,72.5,72.5c7.1,0,13.9-1.1,20.3-2.9l-78.1-113.2
		C720.6,1489.3,715.1,1504.4,715.1,1520.8z"/>
	<radialGradient id="SVGID_2_" cx="165.0813" cy="1386.792" r="29.2216" gradientUnits="userSpaceOnUse">
		<stop  offset="0.1572" style="stop-color:#FFFFFF"/>
		<stop  offset="0.1895" style="stop-color:#FFFFFF;stop-opacity:0.9"/>
		<stop  offset="0.3354" style="stop-color:#FFFFFF;stop-opacity:0.3"/>
		<stop  offset="0.9451" style="stop-color:#FFFFFF;stop-opacity:0"/>
	</radialGradient>
	<circle class="st13" cx="165.1" cy="1386.8" r="29.2"/>
	<g>
		<path class="st6" d="M436.3,1015.2c59.8,0,108.3-48.5,108.3-108.3c0-3-0.2-6-0.4-8.9c-12.1,1.7-24,4-35.5,6.8
			c0,0.7,0.1,1.4,0.1,2.1c0,40-32.5,72.5-72.5,72.5c-20.7,0-39.3-8.7-52.5-22.6c-10.8,6.5-20.9,13.1-30.4,19.7
			C373.3,1000.2,403,1015.2,436.3,1015.2z"/>
		<path class="st5" d="M436.3,979.4c40,0,72.5-32.5,72.5-72.5c0-0.7-0.1-1.4-0.1-2.1c-47.6,11.4-89.6,30.9-124.8,52
			C397,970.7,415.6,979.4,436.3,979.4z"/>
	</g>
	<g>
		
			<rect x="840.5" y="997.2" transform="matrix(-0.7954 -0.6061 0.6061 -0.7954 866.9785 2439.7405)" class="st6" width="9.6" height="152.7"/>
		
			<rect x="765.6" y="1042" transform="matrix(-0.7954 -0.6061 0.6061 -0.7954 709.2411 2464.6821)" class="st6" width="10" height="141.2"/>
		
			<rect x="661.7" y="1025.2" transform="matrix(-0.7954 -0.6061 0.6061 -0.7954 532.8649 2371.5139)" class="st6" width="10" height="141.2"/>
		
			<rect x="651.6" y="1084.6" transform="matrix(0.7954 0.6061 -0.6061 0.7954 852.468 -214.9616)" class="st9" width="186" height="141.2"/>
		
			<rect x="763" y="1079.9" transform="matrix(0.7954 0.6061 -0.6061 0.7954 865.0888 -261.7789)" class="st12" width="114.6" height="141.2"/>
		
			<rect x="844.6" y="1013.4" transform="matrix(0.7954 0.6061 -0.6061 0.7954 837.7514 -302.2444)" class="st9" width="43.9" height="152.7"/>
		<circle class="st2" cx="840.1" cy="1124.5" r="11.7"/>
		<circle class="st2" cx="716.1" cy="1083.6" r="11.7"/>
		<circle class="st2" cx="693.1" cy="1113.9" r="11.7"/>
		<circle class="st5" cx="670" cy="1144.1" r="11.7"/>
		
			<rect x="769.5" y="1155.8" transform="matrix(0.7954 0.6061 -0.6061 0.7954 867.4612 -247.7134)" class="st5" width="62.4" height="10.5"/>
		
			<rect x="668.4" y="1126.9" transform="matrix(-0.6061 0.7954 -0.7954 -0.6061 2051.4668 1248.2622)" class="st1" width="96.5" height="10.5"/>
		
			<rect x="684.9" y="1139.5" transform="matrix(-0.6061 0.7954 -0.7954 -0.6061 2087.9741 1255.3308)" class="st1" width="96.5" height="10.5"/>
		
			<rect x="832.9" y="1184.4" transform="matrix(0.7954 0.6061 -0.6061 0.7954 892.4274 -264.5799)" class="st2" width="10.5" height="10.5"/>
		
			<rect x="754.9" y="1175" transform="matrix(0.7954 0.6061 -0.6061 0.7954 876.0811 -234.9539)" class="st5" width="62.4" height="10.5"/>
		
			<rect x="818.3" y="1203.5" transform="matrix(0.7954 0.6061 -0.6061 0.7954 901.0474 -251.8204)" class="st2" width="10.5" height="10.5"/>
	</g>
	<path class="st9" d="M580.1,1109.1l2.4-55.5c-26.8,13.9-53.9,30.8-79.8,51.6l-3.9,87.6L580.1,1109.1z"/>
	<path class="st9" d="M480.9,1211.3l4-91.1c-18.4,16.4-36.1,34.8-52.5,55.6c-11.7,14.8-21.7,30.5-29.6,46.7l-3.2,72.4L480.9,1211.3z
		"/>
	<rect x="-1.4" y="1840.2" width="2966.7" height="159.8"/>
	<polygon class="st5" points="1339.2,906.8 1339.2,918 1304.9,918 1304.9,932.3 1339.2,932.3 1339.2,943.5 1353.4,943.5 
		1353.4,906.8 	"/>
	<polygon class="st2" points="1269.8,1484.4 1269.8,1491.9 1292.7,1491.9 1292.7,1501.5 1269.8,1501.5 1269.8,1509 1260.3,1509 
		1260.3,1484.4 	"/>
	<g>
		
			<rect x="1352.9" y="671.2" transform="matrix(-0.9581 0.2866 -0.2866 -0.9581 3161.8445 1090.202)" class="st0" width="296.4" height="210.6"/>
		
			<rect x="1167" y="778.9" transform="matrix(-0.9581 0.2866 -0.2866 -0.9581 2753.1729 1280.6045)" class="st0" width="231.7" height="125.8"/>
		
			<rect x="1077.7" y="843.4" transform="matrix(-0.9581 0.2866 -0.2866 -0.9581 2525.1868 1386.8245)" class="st0" width="166.8" height="69.6"/>
		
			<rect x="1623.6" y="596.9" transform="matrix(-0.9581 0.2866 -0.2866 -0.9581 3459.5657 955.5232)" class="st0" width="72.6" height="268.1"/>
		
			<rect x="1048.2" y="863" transform="matrix(0.9581 -0.2866 0.2866 0.9581 -215.2451 343.2845)" class="st5" width="33.7" height="87.9"/>
		<g>
			
				<rect x="1593.3" y="622.7" transform="matrix(-0.9581 0.2866 -0.2866 -0.9581 3371.2468 765.9591)" class="st6" width="72.6" height="14"/>
			
				<rect x="1603.4" y="656.4" transform="matrix(-0.9581 0.2866 -0.2866 -0.9581 3400.6863 829.1472)" class="st6" width="72.6" height="14"/>
			
				<rect x="1613.5" y="690.2" transform="matrix(-0.9581 0.2866 -0.2866 -0.9581 3430.126 892.3351)" class="st6" width="72.6" height="14"/>
			
				<rect x="1623.6" y="723.9" transform="matrix(-0.9581 0.2866 -0.2866 -0.9581 3459.5657 955.5232)" class="st6" width="72.6" height="14"/>
			
				<rect x="1633.7" y="757.7" transform="matrix(-0.9581 0.2866 -0.2866 -0.9581 3489.0054 1018.7112)" class="st6" width="72.6" height="14"/>
			
				<rect x="1643.7" y="791.4" transform="matrix(-0.9581 0.2866 -0.2866 -0.9581 3518.4451 1081.8993)" class="st6" width="72.6" height="14"/>
			
				<rect x="1653.8" y="825.2" transform="matrix(-0.9581 0.2866 -0.2866 -0.9581 3547.8848 1145.0873)" class="st6" width="72.6" height="14"/>
		</g>
		<polygon class="st5" points="1614.1,852.6 1654.7,840.5 1594.4,638.7 1583.4,642 		"/>
		<polygon class="st5" points="1348.1,887.9 1377.2,879.2 1341.1,758.7 1329.7,762.1 		"/>
		<polygon class="st5" points="1164,913.7 1181.9,908.3 1161.9,841.6 1153,844.3 		"/>
		
			<rect x="1401" y="766.4" transform="matrix(0.9581 -0.2866 0.2866 0.9581 -174.0405 455.7227)" class="st6" width="137.5" height="112"/>
		<circle class="st1" cx="1510.9" cy="768.2" r="6.5"/>
		<circle class="st1" cx="1405.2" cy="799.8" r="6.5"/>
		<circle class="st1" cx="1534.3" cy="846.4" r="6.5"/>
		<circle class="st1" cx="1428.6" cy="878" r="6.5"/>
	</g>
	<g>
		<g>
			<g>
				<rect x="1289.5" y="984.9" class="st0" width="14.8" height="855.3"/>
			</g>
		</g>
		<g>
			
				<rect x="1464.6" y="1011.6" transform="matrix(0.9375 -0.348 0.348 0.9375 -408.8477 602.1882)" class="st0" width="14.8" height="855.3"/>
		</g>
		<g>
			
				<rect x="694.2" y="1431.9" transform="matrix(0.3481 -0.9374 0.9374 0.3481 -617.9671 1989.9115)" class="st0" width="855.3" height="14.8"/>
		</g>
	</g>
	<polygon class="st5" points="1223.1,951.8 1223.1,998.6 1206.6,998.6 1206.6,987.4 1192.4,987.4 1192.4,1024.1 1206.6,1024.1 
		1206.6,1012.9 1223.1,1012.9 1223.1,1059.7 1370.7,1059.7 1370.7,951.8 	"/>
	<path class="st1" d="M1294.5,1016.5L1294.5,1016.5c17.5,0,31.6-14.2,31.6-31.6V879.6c0-17.5-14.2-31.6-31.6-31.6l0,0
		c-17.5,0-31.6,14.2-31.6,31.6v105.3C1262.9,1002.4,1277.1,1016.5,1294.5,1016.5z"/>
	<circle class="st5" cx="1294.7" cy="985.1" r="10.2"/>
	<circle class="st5" cx="1294.7" cy="880.7" r="10.2"/>
	<g>
		<rect x="1283.9" y="1803.1" width="26" height="42.2"/>
	</g>
	<g>
		<rect x="1285.4" y="1479.1" class="st2" width="23" height="35.2"/>
	</g>
	<g>
		<rect x="1602.9" y="1802.5" transform="matrix(0.9375 -0.348 0.348 0.9375 -534.7081 676.4888)" width="26" height="48.6"/>
	</g>
	<g>
		
			<rect x="1473.8" y="1458.9" transform="matrix(0.9375 -0.348 0.348 0.9375 -421.7722 609.8145)" class="st2" width="26" height="40.3"/>
	</g>
	<g>
		<rect x="954.5" y="1813.2" transform="matrix(0.3479 -0.9375 0.9375 0.3479 -1074.2253 2107.9001)" width="47.4" height="26"/>
	</g>
	<g>
		
			<rect x="1086.9" y="1466.1" transform="matrix(0.3479 -0.9375 0.9375 0.3479 -664.7998 2002.3536)" class="st2" width="40.3" height="26"/>
	</g>
	<path class="st6" d="M1035.9,1115.8c-51.8,0-95.1,36.4-105.7,85.1c12.3,1.5,24.4,2.3,36.3,2.6c8.9-30,36.6-51.9,69.5-51.9
		c25.9,0,48.5,13.6,61.3,34c12.1-3.5,23.7-7.4,34.7-11.5C1113.9,1139.5,1077.7,1115.8,1035.9,1115.8z"/>
	<path class="st5" d="M1097.2,1185.6c-12.8-20.4-35.5-34-61.3-34c-32.9,0-60.6,21.9-69.5,51.9
		C1013.9,1204.5,1058.3,1196.9,1097.2,1185.6z"/>
	<g>
		<g>
			<path class="st0" d="M2464.1,1332c-0.7-0.1-1.4-0.3-2.1-0.4c-4.5-0.8-8.7-2.4-12.6-4.9c-2.2-1.4-4.1-3-6-4.8
				c-11.7-11.7-23.4-23.4-35.1-35.1c-0.3-0.3-0.8-0.7-0.9-1.2c0.1,0.1,0.3,0.2,0.4,0.3c2.4,2.1,5.1,4,8,5.4c3.1,1.5,6.3,2.5,9.7,2.9
				c2.1,0.3,4.3,0.4,6.5,0.4c107.9,0,215.7,0,323.6,0c3.8,0,7.6-0.5,11.3-1.7c2.1-0.7,4.2-1.5,6.2-2.7c1.4-0.8,2.8-1.7,4-2.6
				c3.4-2.6,6.2-5.7,8.4-9.3c2.1-3.4,3.5-7.1,4.3-11c0.4-2.1,0.6-4.3,0.6-6.4c0-25.5,0-50.9,0-76.4c0-3.1,0-6.3,0-9.4
				c0-2.5-0.3-4.9-0.8-7.4c-0.7-3.2-1.9-6.3-3.6-9.2c-1.1-1.9-2.3-3.6-3.7-5.3c-0.1-0.1-0.1-0.2-0.2-0.4c0.2,0.1,0.3,0.1,0.4,0.1
				c0.3,0.3,0.6,0.5,0.8,0.8c11.6,11.6,23.2,23.2,34.8,34.8c2.2,2.2,4,4.6,5.5,7.3c1.8,3.3,3.1,6.8,3.8,10.5
				c0.1,0.5,0.1,0.9,0.2,1.4c0.1,0.4,0.1,0.8,0.2,1.1c0,25.4,0,50.7,0,76.1c-0.1,0.3-0.2,0.7-0.2,1c0,1.2-0.2,2.4-0.4,3.6
				c-0.7,3.8-1.7,7.6-3.3,11.2c-1.2,2.6-2.4,5.2-4,7.6c-1.4,2.2-3,4.2-4.7,6.2c-1.7,2.1-3.7,3.9-5.7,5.6c-1.8,1.5-3.7,2.8-5.6,4.1
				c-2.4,1.5-4.9,2.8-7.5,3.9c-4.7,1.9-9.5,3.2-14.5,3.6c-0.2,0-0.4,0.1-0.7,0.2C2675.5,1332,2569.8,1332,2464.1,1332z"/>
		</g>
	</g>
	<g>
		<g>
			<path class="st0" d="M1660.1,402h-78.5c-2,0-3.9-0.2-5.8-0.7c4.1,9.5,13.6,16.1,24.6,16.1h78.4L1660.1,402z"/>
			<path class="st0" d="M1743.1,276.2c1.4,3.3,2.2,6.9,2.2,10.7v88.4c0,14.7-12.1,26.8-26.8,26.8h-8.5v41.4l18.8,15.6v-41.5h8.5
				c14.7,0,26.8-12.1,26.8-26.8v-88.4C1764.1,289.6,1755.1,278.8,1743.1,276.2z"/>
		</g>
		<circle class="st0" cx="1609.2" cy="334.1" r="13.4"/>
		<circle class="st0" cx="1650.1" cy="334.1" r="13.4"/>
		<circle class="st0" cx="1691.9" cy="334.1" r="13.4"/>
	</g>
	<g>
		<g>
			<path class="st0" d="M2248.3,240.5h-78.5c-2,0-3.9-0.2-5.8-0.7c4.1,9.5,13.6,16.1,24.6,16.1h78.4L2248.3,240.5z"/>
			<path class="st0" d="M2331.3,114.6c1.4,3.3,2.2,6.9,2.2,10.7v88.4c0,14.7-12.1,26.8-26.8,26.8h-8.5v41.4l18.8,15.6V256h8.5
				c14.7,0,26.8-12.1,26.8-26.8v-88.4C2352.3,128,2343.3,117.3,2331.3,114.6z"/>
		</g>
		<path class="st0" d="M2190.3,162.4V204c0,4.5,3.6,8.1,8.1,8.1h69.9c4.5,0,8.1-3.6,8.1-8.1v-7.8l19.1,15.6c1.8,1.5,4.6,0.2,4.6-2.2
			v-52.9c0-2.4-2.8-3.7-4.6-2.2l-19.1,15.6v-7.8c0-4.4-3.5-7.9-7.8-8.1c3.6-3.9,5.7-9.1,5.7-14.8c0-12.2-10-22.2-22.2-22.2
			c-7.9,0-14.8,4.2-18.8,10.4c-3.9-6.2-10.9-10.4-18.8-10.4c-12.2,0-22.2,10-22.2,22.2c0,5.7,2.2,10.9,5.7,14.8
			C2193.8,154.4,2190.3,158,2190.3,162.4z M2227.8,139.4c0,7.3-6,13.3-13.3,13.3s-13.3-6-13.3-13.3c0-7.3,6-13.3,13.3-13.3
			S2227.8,132.1,2227.8,139.4z M2265.4,139.4c0,7.3-6,13.3-13.3,13.3s-13.3-6-13.3-13.3c0-7.3,6-13.3,13.3-13.3
			S2265.4,132.1,2265.4,139.4z"/>
	</g>
	<g>
		<g>
			<path class="st0" d="M2758.8,405.7h-78.5c-2,0-3.9-0.2-5.8-0.7c4.1,9.5,13.6,16.1,24.6,16.1h78.4L2758.8,405.7z"/>
			<path class="st0" d="M2841.8,279.9c1.4,3.3,2.2,6.9,2.2,10.7v88.4c0,14.7-12.1,26.8-26.8,26.8h-8.5v41.4l18.8,15.6v-41.5h8.5
				c14.7,0,26.8-12.1,26.8-26.8V306C2862.8,293.3,2853.8,282.5,2841.8,279.9z"/>
		</g>
		<g>
			<g>
				<circle class="st0" cx="2755" cy="371.9" r="12"/>
			</g>
			<g>
				<g>
					<path class="st0" d="M2806.9,318.9c-13.9-13.7-32.4-21.2-51.9-21.2c-19.5,0-37.9,7.5-51.9,21.2l-8.8-9
						c16.3-16,37.9-24.8,60.7-24.8c22.8,0,44.4,8.8,60.7,24.8L2806.9,318.9z"/>
				</g>
				<g>
					<path class="st0" d="M2790.2,335.9c-9.5-9.3-22-14.4-35.2-14.4c-13.2,0-25.7,5.1-35.2,14.4l-8.8-9c11.9-11.6,27.5-18,44.1-18
						c16.6,0,32.2,6.4,44.1,18L2790.2,335.9z"/>
				</g>
				<g>
					<path class="st0" d="M2773.3,353.3c-4.9-4.8-11.4-7.5-18.2-7.5c-6.9,0-13.3,2.6-18.3,7.5l-8.8-9c7.3-7.1,16.9-11.1,27.1-11.1
						s19.8,3.9,27.1,11.1L2773.3,353.3z"/>
				</g>
			</g>
		</g>
	</g>
	<path class="st0" d="M1125.9,312.5c-40.6,0-73.5-32.9-73.5-73.5s32.9-73.5,73.5-73.5c1.2,0,2.5,0,3.7,0.1
		c-14.7-10.2-32.5-16.3-51.7-16.3c-49.9,0-90.4,40.5-90.4,90.4s40.5,90.4,90.4,90.4c20.3,0,39-6.7,54.1-17.9
		C1129.9,312.4,1127.9,312.5,1125.9,312.5z"/>
	<g>
		<radialGradient id="SVGID_3_" cx="2711.5083" cy="907.896" r="37.5923" gradientUnits="userSpaceOnUse">
			<stop  offset="0" style="stop-color:#FFFFFF"/>
			<stop  offset="0.9451" style="stop-color:#FFFFFF;stop-opacity:0"/>
		</radialGradient>
		<path class="st15" d="M2749.1,908C2749.1,908,2749.1,907.9,2749.1,908c0-0.1,0-0.1,0-0.2c-32.6-0.6-36.9-4.9-37.5-37.5
			c0,0-0.1,0-0.1,0c0,0-0.1,0-0.1,0c-0.6,32.6-4.9,36.9-37.5,37.5c0,0,0,0.1,0,0.1s0,0.1,0,0.1c32.6,0.6,36.9,4.9,37.5,37.5
			c0,0,0.1,0,0.1,0c0,0,0.1,0,0.1,0C2712.2,912.8,2716.5,908.5,2749.1,908z"/>
	</g>
	<g>
		<radialGradient id="SVGID_4_" cx="2841.2024" cy="1351.0238" r="46.7917" gradientUnits="userSpaceOnUse">
			<stop  offset="0" style="stop-color:#FFFFFF"/>
			<stop  offset="0.9451" style="stop-color:#FFFFFF;stop-opacity:0"/>
		</radialGradient>
		<path class="st20" d="M2888,1351.1c0,0,0-0.1,0-0.1c0,0,0-0.1,0-0.1c-40.6-0.7-46-6-46.7-46.7c0,0-0.1,0-0.1,0c0,0-0.1,0-0.1,0
			c-0.7,40.6-6,46-46.7,46.7c0,0,0,0.1,0,0.1c0,0,0,0.1,0,0.1c40.6,0.7,46,6,46.7,46.7c0,0,0.1,0,0.1,0c0,0,0.1,0,0.1,0
			C2842,1357.2,2847.4,1351.8,2888,1351.1z"/>
	</g>
	<g>
		<radialGradient id="SVGID_5_" cx="1614.4071" cy="1073.541" r="30.2865" gradientUnits="userSpaceOnUse">
			<stop  offset="0" style="stop-color:#FFFFFF"/>
			<stop  offset="0.9451" style="stop-color:#FFFFFF;stop-opacity:0"/>
		</radialGradient>
		<path class="st21" d="M1644.7,1073.6C1644.7,1073.6,1644.7,1073.6,1644.7,1073.6c0-0.1,0-0.1,0-0.1c-26.3-0.5-29.8-3.9-30.2-30.2
			c0,0,0,0-0.1,0c0,0,0,0-0.1,0c-0.5,26.3-3.9,29.8-30.2,30.2c0,0,0,0,0,0.1s0,0,0,0.1c26.3,0.5,29.8,3.9,30.2,30.2c0,0,0,0,0.1,0
			c0,0,0,0,0.1,0C1614.9,1077.5,1618.4,1074.1,1644.7,1073.6z"/>
	</g>
	<g>
		<radialGradient id="SVGID_7_" cx="382.2745" cy="778.5643" r="40.931" gradientUnits="userSpaceOnUse">
			<stop  offset="0" style="stop-color:#FFFFFF"/>
			<stop  offset="0.9451" style="stop-color:#FFFFFF;stop-opacity:0"/>
		</radialGradient>
		<path style="fill:url(#SVGID_7_);" d="M423.2,778.7C423.2,778.6,423.2,778.6,423.2,778.7c0-0.1,0-0.2,0-0.2
			c-35.5-0.6-40.2-5.3-40.8-40.8c0,0-0.1,0-0.1,0c0,0-0.1,0-0.1,0c-0.6,35.5-5.3,40.2-40.8,40.8c0,0,0,0.1,0,0.1c0,0,0,0.1,0,0.1
			c35.5,0.6,40.2,5.3,40.8,40.8c0,0,0.1,0,0.1,0c0,0,0.1,0,0.1,0C383,783.9,387.7,779.3,423.2,778.7z"/>
	</g>
	<g>
		<radialGradient id="SVGID_8_" cx="1948.0797" cy="228.0094" r="38.2683" gradientUnits="userSpaceOnUse">
			<stop  offset="0" style="stop-color:#FFFFFF"/>
			<stop  offset="0.9451" style="stop-color:#FFFFFF;stop-opacity:0"/>
		</radialGradient>
		<path class="st23" d="M1986.3,228.1C1986.3,228.1,1986.3,228,1986.3,228.1c0-0.1,0-0.1,0-0.2c-33.2-0.6-37.6-4.9-38.2-38.2
			c0,0-0.1,0-0.1,0c0,0-0.1,0-0.1,0c-0.6,33.2-4.9,37.6-38.2,38.2c0,0,0,0.1,0,0.1s0,0.1,0,0.1c33.2,0.6,37.6,4.9,38.2,38.2
			c0,0,0.1,0,0.1,0c0,0,0.1,0,0.1,0C1948.7,233,1953.1,228.7,1986.3,228.1z"/>
	</g>
	<g>
		<radialGradient id="SVGID_9_" cx="2604.2063" cy="88.4717" r="27.5649" gradientUnits="userSpaceOnUse">
			<stop  offset="0" style="stop-color:#FFFFFF"/>
			<stop  offset="0.9451" style="stop-color:#FFFFFF;stop-opacity:0"/>
		</radialGradient>
		<path class="st24" d="M2631.8,88.5C2631.8,88.5,2631.8,88.5,2631.8,88.5c0-0.1,0-0.1,0-0.1c-23.9-0.4-27.1-3.6-27.5-27.5
			c0,0,0,0-0.1,0c0,0,0,0-0.1,0c-0.4,23.9-3.6,27.1-27.5,27.5c0,0,0,0,0,0.1s0,0,0,0.1c23.9,0.4,27.1,3.6,27.5,27.5c0,0,0,0,0.1,0
			c0,0,0,0,0.1,0C2604.7,92.1,2607.8,88.9,2631.8,88.5z"/>
	</g>
	<radialGradient id="SVGID_11_" cx="926.0748" cy="1372.4319" r="29.2216" gradientUnits="userSpaceOnUse">
		<stop  offset="0.1572" style="stop-color:#FFFFFF"/>
		<stop  offset="0.1895" style="stop-color:#FFFFFF;stop-opacity:0.9"/>
		<stop  offset="0.3354" style="stop-color:#FFFFFF;stop-opacity:0.3"/>
		<stop  offset="0.9451" style="stop-color:#FFFFFF;stop-opacity:0"/>
	</radialGradient>
	<circle style="fill:url(#SVGID_11_);" cx="926.1" cy="1372.4" r="29.2"/>
	<radialGradient id="SVGID_12_" cx="2492.8542" cy="1052.0151" r="29.2216" gradientUnits="userSpaceOnUse">
		<stop  offset="0.1572" style="stop-color:#FFFFFF"/>
		<stop  offset="0.1895" style="stop-color:#FFFFFF;stop-opacity:0.9"/>
		<stop  offset="0.3354" style="stop-color:#FFFFFF;stop-opacity:0.3"/>
		<stop  offset="0.9451" style="stop-color:#FFFFFF;stop-opacity:0"/>
	</radialGradient>
	<circle class="st25" cx="2492.9" cy="1052" r="29.2"/>
	<radialGradient id="SVGID_13_" cx="2654.3523" cy="1613.59" r="29.2216" gradientUnits="userSpaceOnUse">
		<stop  offset="0.1572" style="stop-color:#FFFFFF"/>
		<stop  offset="0.1895" style="stop-color:#FFFFFF;stop-opacity:0.9"/>
		<stop  offset="0.3354" style="stop-color:#FFFFFF;stop-opacity:0.3"/>
		<stop  offset="0.9451" style="stop-color:#FFFFFF;stop-opacity:0"/>
	</radialGradient>
	<circle class="st26" cx="2654.4" cy="1613.6" r="29.2"/>
	<radialGradient id="SVGID_14_" cx="2841.2024" cy="635.1213" r="29.2216" gradientUnits="userSpaceOnUse">
		<stop  offset="0.1572" style="stop-color:#FFFFFF"/>
		<stop  offset="0.1895" style="stop-color:#FFFFFF;stop-opacity:0.9"/>
		<stop  offset="0.3354" style="stop-color:#FFFFFF;stop-opacity:0.3"/>
		<stop  offset="0.9451" style="stop-color:#FFFFFF;stop-opacity:0"/>
	</radialGradient>
	<circle class="st27" cx="2841.2" cy="635.1" r="29.2"/>
	<circle class="st0" cx="1167.4" cy="478.3" r="5.6"/>
	<circle class="st0" cx="1428.6" cy="149.5" r="4.8"/>
	<circle class="st0" cx="114.9" cy="606.8" r="5.6"/>
	<circle class="st0" cx="439.2" cy="97.3" r="5.6"/>
	<g>
		<defs>
			<rect id="SVGID_24_" x="2424.1" y="1166" width="344.6" height="97.1"/>
		</defs>
		<clipPath id="SVGID_15_">
			<use xlink:href="#SVGID_24_"  style="overflow:visible;"/>
		</clipPath>
		<g transform="matrix(1 0 0 1 0 0)" style="clip-path:url(#SVGID_15_);">
			
				<image style="overflow:visible;" width="7128" height="3054" xlink:href="../../Logos/Voyagers_Logo_White Letters_Transparent.png"  transform="matrix(5.906879e-02 0 0 5.906879e-02 2405.8782 1150.0812)">
			</image>
		</g>
	</g>
	<g>
		<g>
			<circle class="st0" cx="882.4" cy="386.5" r="5.6"/>
			
				<radialGradient id="SVGID_16_" cx="468.0368" cy="-549.1769" r="29.2216" gradientTransform="matrix(0.9721 -0.2345 0.2345 0.9721 556.1721 1030.1523)" gradientUnits="userSpaceOnUse">
				<stop  offset="0.1572" style="stop-color:#FFFFFF"/>
				<stop  offset="0.1895" style="stop-color:#FFFFFF;stop-opacity:0.9"/>
				<stop  offset="0.3354" style="stop-color:#FFFFFF;stop-opacity:0.3"/>
				<stop  offset="0.9451" style="stop-color:#FFFFFF;stop-opacity:0"/>
			</radialGradient>
			<circle class="st29" cx="882.4" cy="386.5" r="29.2"/>
		</g>
		<linearGradient id="SVGID_17_" gradientUnits="userSpaceOnUse" x1="523.5601" y1="274.6274" x2="882.6812" y2="274.6274">
			<stop  offset="0" style="stop-color:#FFFFFF;stop-opacity:0"/>
			<stop  offset="1" style="stop-color:#FFFFFF;stop-opacity:0.6"/>
		</linearGradient>
		<path class="st30" d="M524.1,162.2l90.8,54.1l90.5,54.5c30.1,18.2,60.8,35.7,90.2,55c29.5,19.3,58.7,39,87,60.2l-0.6,0.9
			c-31.5-16.1-62-33.7-92.3-51.7c-30.3-18-59.4-37.8-89-56.9L612,221l-88.5-57.8L524.1,162.2z"/>
	</g>
	<g>
		<g>
			<circle class="st0" cx="1794.7" cy="1392.4" r="5.6"/>
			
				<radialGradient id="SVGID_18_" cx="1119.0574" cy="642.5622" r="29.2216" gradientTransform="matrix(0.9721 -0.2345 0.2345 0.9721 556.1721 1030.1523)" gradientUnits="userSpaceOnUse">
				<stop  offset="0.1572" style="stop-color:#FFFFFF"/>
				<stop  offset="0.1895" style="stop-color:#FFFFFF;stop-opacity:0.9"/>
				<stop  offset="0.3354" style="stop-color:#FFFFFF;stop-opacity:0.3"/>
				<stop  offset="0.9451" style="stop-color:#FFFFFF;stop-opacity:0"/>
			</radialGradient>
			<circle class="st31" cx="1794.7" cy="1392.4" r="29.2"/>
		</g>
		<linearGradient id="SVGID_19_" gradientUnits="userSpaceOnUse" x1="1435.8745" y1="1280.4863" x2="1794.9955" y2="1280.4863">
			<stop  offset="0" style="stop-color:#FFFFFF;stop-opacity:0"/>
			<stop  offset="1" style="stop-color:#FFFFFF;stop-opacity:0.6"/>
		</linearGradient>
		<path class="st32" d="M1436.5,1168.1l90.8,54.1l90.5,54.5c30.1,18.2,60.8,35.7,90.2,55c29.5,19.3,58.7,39,87,60.2l-0.6,0.9
			c-31.5-16.1-62-33.7-92.3-51.7c-30.3-18-59.4-37.8-89-56.9l-88.7-57.4l-88.5-57.8L1436.5,1168.1z"/>
	</g>
	<g>
		<g>
			<circle class="st0" cx="1090.9" cy="683.2" r="5.6"/>
			
				<radialGradient id="SVGID_20_" cx="601.1462" cy="-211.8875" r="29.2216" gradientTransform="matrix(0.9721 -0.2345 0.2345 0.9721 556.1721 1030.1523)" gradientUnits="userSpaceOnUse">
				<stop  offset="0.1572" style="stop-color:#FFFFFF"/>
				<stop  offset="0.1895" style="stop-color:#FFFFFF;stop-opacity:0.9"/>
				<stop  offset="0.3354" style="stop-color:#FFFFFF;stop-opacity:0.3"/>
				<stop  offset="0.9451" style="stop-color:#FFFFFF;stop-opacity:0"/>
			</radialGradient>
			<circle class="st33" cx="1090.9" cy="683.2" r="29.2"/>
		</g>
		<linearGradient id="SVGID_21_" gradientUnits="userSpaceOnUse" x1="732.0475" y1="571.301" x2="1091.1686" y2="571.301">
			<stop  offset="0" style="stop-color:#FFFFFF;stop-opacity:0"/>
			<stop  offset="1" style="stop-color:#FFFFFF;stop-opacity:0.6"/>
		</linearGradient>
		<path class="st34" d="M732.6,458.9l90.8,54.1l90.5,54.5c30.1,18.2,60.8,35.7,90.2,55c29.5,19.3,58.7,39,87,60.2l-0.6,0.9
			c-31.5-16.1-62-33.7-92.3-51.7c-30.3-18-59.4-37.8-89-56.9l-88.7-57.4L732,459.9L732.6,458.9z"/>
	</g>
	<g>
		<path class="st0" d="M399.1,363.8c-102.1-65.2-200.8-93-220.4-62.3l52.2,33.3c12-18.8,82.5,4.6,157.3,52.4
			s125.8,101.8,113.8,120.6l46.5,29.7C568.1,506.7,501.2,429,399.1,363.8z"/>
		<linearGradient id="SVGID_22_" gradientUnits="userSpaceOnUse" x1="232.0083" y1="424.2663" x2="488.9397" y2="424.2663">
			<stop  offset="0" style="stop-color:#871FFF"/>
			<stop  offset="0.2203" style="stop-color:#AE4ADA"/>
			<stop  offset="0.4565" style="stop-color:#D172B8"/>
			<stop  offset="0.6733" style="stop-color:#EA8EA0"/>
			<stop  offset="0.8615" style="stop-color:#FAA091"/>
			<stop  offset="1" style="stop-color:#FFA68C"/>
		</linearGradient>
		<circle class="st35" cx="360.5" cy="424.3" r="128.4"/>
		<path class="st0" d="M344.5,455.4c-74.9-47.8-125.8-101.8-113.8-120.6l-52.2-33.3C159,332.3,225.9,410,328,475.2
			c102.1,65.2,200.8,93,220.4,62.3l-46.5-29.7C489.9,526.6,419.4,503.2,344.5,455.4z"/>
	</g>
	<path class="st1" d="M2560.1,868.6h-384.4l126.4-225.4c3.9-6,10.6-9.6,17.8-9.6h348.5c10.5,0,16.8,11.7,11.1,20.4L2560.1,868.6z"/>
	<path class="st0" d="M2541.2,868.6h-384.4l126.4-225.4c3.9-6,10.6-9.6,17.8-9.6h348.5c10.5,0,16.8,11.7,11.1,20.4L2541.2,868.6z"/>
	<linearGradient id="SVGID_23_" gradientUnits="userSpaceOnUse" x1="2413.4773" y1="857.041" x2="2413.4773" y2="646.264">
		<stop  offset="0" style="stop-color:#FFFFFF"/>
		<stop  offset="0.2751" style="stop-color:#DAEFFC"/>
		<stop  offset="0.8633" style="stop-color:#80C7F5"/>
	</linearGradient>
	<polygon class="st36" points="2527.5,857 2182.7,857 2299.5,646.3 2644.2,646.3 	"/>
	<path class="st5" d="M2175.4,675.2c19.9,50.4,53,102,91.4,151.2l-80.4,88.4c-40.7-113.3-57.7-208.2-57.7-208.2L2175.4,675.2z"/>
	<g>
		<path d="M2416.6,811.9h-75.8c-15,0-21.3-12.2-14-27.2l36.8-75.8c7.3-15,26.5-27.2,43-27.2h82.8c16.4,0,22.7,12.2,14,27.2
			l-43.8,75.8C2450.9,799.7,2431.7,811.9,2416.6,811.9z"/>
		<g>
			<g>
				<path class="st0" d="M2406.1,712.1h-16.9l-2.5,51.1c0,0.4,0.6,0.4,0.9,0l17-17.6L2406.1,712.1z"/>
			</g>
			<path class="st0" d="M2457.5,712.1c0,0-55.3,55.3-61.4,60.4c-7,5.9-10.7,8.2-15.8,8.9c0,0-0.1,0-0.1,0.1c0,0,0,0.1,0,0.1h14.7
				c6.4,0,13.8-5.2,18.9-9.8c5.8-5.2,60.8-59.7,60.8-59.7H2457.5z"/>
		</g>
	</g>
	<circle class="st0" cx="2427.4" cy="489.3" r="5.6"/>
	<path class="st4" d="M2483.7,1823.2h40.6c27.4,0,49.6,22.2,49.6,49.6c0,27.4-22.2,49.6-49.6,49.6h-11.8h-239.2h-12.9l-145.1-499.8
		l-12.3,400.6h22.2c27.4,0,49.6,22.2,49.6,49.6c0,27.4-22.2,49.6-49.6,49.6h-25.2h-242.4h-4.5c0,0,24.8-798.4,25.2-807.6h401
		L2483.7,1823.2z"/>
	<path class="st0" d="M2061,611.7c88-21.7,127.2,61.7,127.2,61.7l-1.2,83l92.2,358.4h-401C1892.5,761.3,1948.7,639.4,2061,611.7z"/>
	<ellipse class="st1" cx="2166.2" cy="534.4" rx="8.4" ry="21.9"/>
	<path d="M2095,598.4c14.7-0.6,29.4-5.8,41.6-16c29.2-24.5,33.1-68,8.7-97.3c-5.3-6.3-11.5-11.5-18.3-15.4
		c-2.5,2.7-34.9,19.2-37.6,21.7L2095,598.4"/>
	<g>
		<rect x="2112.7" y="529.4" class="st1" width="59.9" height="7.4"/>
	</g>
	<path class="st2" d="M2025.1,513.2c3.3-13.9,10.7-27.2,22.8-36.7c19-15.1,43.9-19.3,62.5-13.6c5.7,1.7,11.3,3.8,16.5,6.9
		c-3.4,5.9-15.3,15.2-20.4,17.1c17.3,37.1,20.5,75.7-11.5,111.6c-20.6,0.8-41.4-7.6-55.7-24.7
		C2024.7,556.3,2020.2,533.7,2025.1,513.2z"/>
	
		<ellipse transform="matrix(0.9524 -0.305 0.305 0.9524 -55.4323 661.3943)" class="st3" cx="2089.1" cy="508.1" rx="123.8" ry="24.7"/>
	<g>
		<path class="st4" d="M2136.1,475.1c5.6,4.6,10.5,10.2,14.5,16.4c-16.8,8.5-37,16.7-59.1,23.8c-24.6,7.9-48.1,13.2-68.1,15.9
			c0-0.9-0.1-1.8-0.1-2.7c0-6.3,0.8-12.3,2.4-18.1c17.4-3,36.8-7.7,57-14.2C2102.3,489.8,2120.5,482.6,2136.1,475.1z"/>
		<path class="st3" d="M2092.2,459.4c16.7,0,31.9,5.9,43.8,15.7c-15.6,7.5-33.8,14.7-53.5,21c-20.2,6.5-39.6,11.2-57,14.2
			C2033.6,481,2060.4,459.4,2092.2,459.4z"/>
	</g>
	<path class="st5" d="M2048.2,615.3c0,0-36.2,11.4-42.2,38.5h-20.5c0,0,3.2-17.6,23.8-31c7.9-5.2,18.7-7.7,28.1-7.6L2048.2,615.3z"
		/>
	<path class="st5" d="M2133.8,618.4l3.5,0c8.3,0.1,15.9,5,19.4,12.5l2.2,4.7l-0.1,0c-2-1.8-4.2-3.6-6.4-5.4
		c-6.7-5.2-15.9-5.4-22.7-0.4c-8.5,6.2-16.8,15.1-19.4,27.2h-19.3c0,0,1.2-20.9,24.7-34.2C2122,619.2,2130.2,618.3,2133.8,618.4z"/>
	<polygon class="st0" points="1918.1,1278.3 1972.4,1310 2026.8,1278.3 2026.8,1177.7 1918.1,1177.7 	"/>
	<path class="st5" d="M2075.2,862.1c49,7.1,78-4.3,95.1-18.8c2.9,7.4,5.9,14.6,8.6,21.3c-16.7,12.4-40.8,21.9-75.2,21.9
		c-9.7,0-20.2-0.8-31.6-2.4L2075.2,862.1z"/>
	<circle class="st5" cx="2068" cy="773.5" r="3.8"/>
	<circle class="st5" cx="2057.8" cy="798.4" r="3.8"/>
	<circle class="st5" cx="2047.9" cy="823.4" r="3.8"/>
	<circle class="st5" cx="1936.8" cy="771.1" r="3.8"/>
	<circle class="st5" cx="1926.6" cy="796" r="3.8"/>
	<circle class="st5" cx="1916.7" cy="820.9" r="3.8"/>
	<path class="st0" d="M2188.1,673.4c19.9,50.4,53,102,91.4,151.2l-80.4,88.4c-40.7-113.3-57.7-208.2-57.7-208.2L2188.1,673.4z"/>
	<path class="st1" d="M1845.8,921L1845.8,921c2.6-75.8,45.9-152.2,97.1-216.9H2185c-43.8,98.3-70.2,201.3-77.9,233.5
		c-0.6,3.5-1.3,6.9-2.4,10.2c0,0,0,0,0,0l0,0c-5.3,17.2-16.8,32.7-33.5,42.8c-12,7.3-25.2,10.9-38.3,11.1v0h-114.2l-20.2,0
		c-24.9-0.4-28.7-13-42.3-35.6C1847.5,952.2,1844.3,936.3,1845.8,921z"/>
	<g>
		<path class="st2" d="M2144.3,654h-230.7l0,0l0,0c-26.3,0-47.6,21.3-47.6,47.6c0,26.3,21.3,47.6,47.6,47.6l0,0l0,0h230.7
			c24.5-2.1,43.7-22.6,43.7-47.6C2187.9,676.6,2168.7,656.1,2144.3,654z"/>
		<path class="st0" d="M2059.7,749.4L2059.7,749.4c-34.4-22.6-34.4-73,0-95.6c8.2,0,16.3,0,24.5,0c-34.4,22.6-34.4,73,0,95.6
			l-37.5,83.1h-24.5L2059.7,749.4z"/>
		<path class="st0" d="M1934.8,749.4L1934.8,749.4c-34.4-22.6-34.4-73,0-95.6c8.2,0,16.3,0,24.5,0c-34.4,22.6-34.4,73,0,95.6
			l-37.5,83.1h-24.5L1934.8,749.4z"/>
	</g>
	<circle class="st1" cx="2140.1" cy="701.6" r="29.3"/>
	<circle class="st5" cx="2063.2" cy="766.2" r="3.8"/>
	<circle class="st5" cx="2052.7" cy="791.3" r="3.8"/>
	<circle class="st5" cx="2041.5" cy="816.4" r="3.8"/>
	<circle class="st5" cx="1938.8" cy="766.2" r="3.8"/>
	<circle class="st5" cx="1928.2" cy="791.3" r="3.8"/>
	<circle class="st5" cx="1916.5" cy="816.4" r="3.8"/>
	<path d="M2645.8,890.8c0-51.9-42.1-94-94-94c-18.3,0-35.3,5.2-49.8,14.3c-139.2,77.1-224,13.1-224,13.1l-111.7,3.7
		c63.9,253.3,399.1,156.1,399.9,155.8C2611.3,976.7,2645.8,937.8,2645.8,890.8z"/>
	<path class="st3" d="M2076.3,481.3L2076.3,481.3c-2.9,0.9-5.9-0.8-6.8-3.7l-4.7-15.9c-0.9-2.9,0.8-5.9,3.7-6.8l0,0
		c2.9-0.9,5.9,0.8,6.8,3.7l4.7,15.9C2080.8,477.4,2079.2,480.4,2076.3,481.3z"/>
	<path class="st2" d="M1758.1,997.5l34.6,64.5c2.3,4.2,7.6,5.8,11.8,3.6l50.9-27.3c4.2-2.3,5.8-7.6,3.6-11.8l-4.4-8.2l10-5.4
		c7.4-4,10.2-13.2,6.2-20.6l-11.7-21.8c-4-7.4-13.2-10.2-20.6-6.2l-10,5.4l-4.1-7.7c-2.3-4.2-7.6-5.8-11.8-3.6l-50.9,27.3
		C1757.4,988,1755.8,993.3,1758.1,997.5z M1849.3,1008.5l-15.5-28.9l10-5.4c2-1.1,4.4-0.3,5.5,1.7l11.7,21.8c1.1,2,0.3,4.4-1.7,5.5
		L1849.3,1008.5z"/>
	<g>
		<g>
			<path class="st0" d="M1877.7,993.2c-1,0-1.9-0.1-2.9-0.4c-6.3-1.6-10.1-8-8.5-14.3l4-16c1.6-6.3,8-10.1,14.3-8.5
				c3,0.8,5.6,2.7,7.2,5.4c1.6,2.7,2.1,5.9,1.3,8.9l-4,16c-0.8,3-2.7,5.6-5.4,7.2C1881.9,992.6,1879.8,993.2,1877.7,993.2z
				 M1881.7,957.4c-1.4,0-2.9,0.4-4.1,1.1c-1.8,1.1-3.2,2.9-3.7,4.9l-4,16c-0.5,2.1-0.2,4.3,0.9,6.1c1.1,1.8,2.9,3.1,4.9,3.7
				c2.1,0.5,4.3,0.2,6.1-0.9c1.8-1.1,3.2-2.9,3.7-4.9l4-16c0.5-2.1,0.2-4.3-0.9-6.1c-1.1-1.8-2.9-3.1-4.9-3.7
				C1883,957.5,1882.3,957.4,1881.7,957.4z"/>
		</g>
		<path class="st3" d="M1811.7,1181.5l29.2,7.4c9.6,2.4,19.3-3.4,21.7-12.9l38.5-152.6c1.7-6.7-0.6-13.8-6-18.1l-12.9-10.6
			c-4.1-3.4-9.5-4.8-14.8-3.7l-16.4,3.2c-6.8,1.3-12.2,6.5-13.9,13.1l-38.5,152.6C1796.4,1169.4,1802.1,1179.1,1811.7,1181.5z"/>
		<path class="st5" d="M1859.4,992.4l29.6,7.4c1,0.2,2-0.3,2.2-1.3l3.8-15.1c0.2-1-0.3-2-1.3-2.2l-29.6-7.4c-1-0.2-2,0.3-2.2,1.3
			l-3.8,15.1C1857.8,991.1,1858.4,992.1,1859.4,992.4z"/>
	</g>
</g>
</svg>
