<?xml version="1.0" encoding="utf-8"?>
<!-- Generator: Adobe Illustrator 24.1.0, SVG Export Plug-In . SVG Version: 6.00 Build 0)  -->
<svg version="1.1" id="Layer_1" xmlns="http://www.w3.org/2000/svg" xmlns:xlink="http://www.w3.org/1999/xlink" x="0px" y="0px"
	 viewBox="0 0 1898.2 1389.8" style="enable-background:new 0 0 1898.2 1389.8;" xml:space="preserve">
<style type="text/css">
	.st0{fill:#FFFFFF;}
	.st1{fill:#80C7F5;}
	.st2{fill:#D7219C;}
	.st3{fill:#FA7554;}
	.st4{fill:#FFA68C;}
	.st5{fill:#871FFF;}
	.st6{fill:#B3DDF9;}
	.st7{fill:#FFB8A3;}
	.st8{fill:#99D2F7;}
	.st9{fill:#CCE9FB;}
	.st10{fill:url(#SVGID_1_);}
	.st11{fill:none;}
	.st12{fill:#E6F4FD;}
	.st13{fill:url(#SVGID_2_);}
	.st14{fill:#FCAC98;}
	.st15{fill:url(#SVGID_3_);}
	.st16{fill:#CFA5FF;}
	.st17{fill:#FDC8BB;}
	.st18{fill:#FB9176;}
	.st19{fill:none;stroke:#FA7554;stroke-miterlimit:10;}
	.st20{fill:url(#SVGID_4_);}
	.st21{fill:url(#SVGID_5_);}
	.st22{clip-path:url(#SVGID_7_);}
	.st23{fill:url(#SVGID_8_);}
	.st24{fill:url(#SVGID_9_);}
	.st25{fill:url(#SVGID_12_);}
	.st26{fill:url(#SVGID_13_);}
	.st27{fill:url(#SVGID_14_);}
	.st28{fill:url(#SVGID_15_);}
	.st29{fill:url(#SVGID_16_);}
	.st30{fill:url(#SVGID_17_);}
	.st31{fill:url(#SVGID_18_);}
	.st32{fill:url(#SVGID_19_);}
	.st33{fill:url(#SVGID_20_);}
	.st34{fill:url(#SVGID_21_);}
	.st35{fill:url(#SVGID_22_);}
	.st36{fill:url(#SVGID_23_);}
	.st37{fill:url(#SVGID_26_);}
	.st38{fill:url(#SVGID_27_);}
	.st39{fill:url(#SVGID_28_);}
	.st40{fill:url(#SVGID_29_);}
	.st41{fill:url(#SVGID_30_);}
	.st42{fill:url(#SVGID_31_);}
	.st43{fill:url(#SVGID_32_);}
	.st44{fill:url(#SVGID_33_);}
	.st45{fill:url(#SVGID_34_);}
	.st46{fill:url(#SVGID_35_);}
	.st47{fill:url(#SVGID_36_);}
	.st48{fill:url(#SVGID_37_);}
	.st49{fill:url(#SVGID_38_);}
	.st50{fill:url(#SVGID_39_);}
	.st51{fill:url(#SVGID_40_);}
	.st52{fill:url(#SVGID_41_);}
	.st53{fill:url(#SVGID_42_);}
	.st54{fill:url(#SVGID_43_);}
	.st55{fill:url(#SVGID_44_);}
	.st56{fill:url(#SVGID_45_);}
	.st57{fill:url(#SVGID_48_);}
	.st58{fill:url(#SVGID_49_);}
	.st59{fill:url(#SVGID_50_);}
	.st60{fill:url(#SVGID_51_);}
	.st61{fill:url(#SVGID_52_);}
	.st62{fill:url(#SVGID_53_);}
	.st63{fill:url(#SVGID_54_);}
	.st64{fill:url(#SVGID_55_);}
</style>
<g>
	<rect x="313.7" y="1039" class="st5" width="428.2" height="54.4"/>
	<path class="st6" d="M1693.7,658.8h-450.5c-19.9,0-33-20.8-24.4-38.8l135.8-282.8c4.5-9.4,14-15.3,24.4-15.3h450.5
		c19.9,0,33,20.8,24.4,38.8l-135.8,282.8C1713.6,652.8,1704.2,658.8,1693.7,658.8z"/>
	<path class="st1" d="M1735.3,658.8h-450.5c-19.9,0-33-20.8-24.4-38.8l135.8-282.8c4.5-9.4,14-15.3,24.4-15.3h450.5
		c19.9,0,33,20.8,24.4,38.8l-135.8,282.8C1755.2,652.8,1745.7,658.8,1735.3,658.8z"/>
	<path d="M1227.1,537.9c0-69.3-56.2-125.5-125.5-125.5c-20.6,0-39.9,5-57.1,13.7l0,0c-0.2,0.1-0.3,0.2-0.5,0.3
		c-3,1.5-5.8,3.2-8.6,4.9c-185.9,103.2-299.2,17.6-299.2,17.6l-210.4,0.1C611.3,787.7,1121,661.9,1121,661.9l0,0
		C1181.1,652.6,1227.1,600.6,1227.1,537.9z"/>
	<path class="st1" d="M1336.9,700.6H965.3c-11.5,0-20.9-9.4-20.9-20.9v0c0-11.5,9.4-20.9,20.9-20.9h371.5c11.5,0,20.9,9.4,20.9,20.9
		v0C1357.8,691.2,1348.4,700.6,1336.9,700.6z"/>
	<path class="st0" d="M798.4,427.5C781,216.2,678.6,156.4,678.6,156.4l-66.4-14.1c0,0-49.5,2.3-133.4,77.5
		C390.3,299.2,280,459.6,270.5,754.9l547,0C817.5,755,812.6,598.6,798.4,427.5z"/>
	<polygon class="st2" points="1788.9,361 1777.9,382.4 1754,385.3 1770.9,402.5 1766.4,426.1 1787.9,415.3 1808.9,426.9 
		1805.3,403.1 1822.9,386.7 1799.1,382.8 	"/>
	
		<rect x="1324" y="555.7" transform="matrix(0.996 8.960991e-02 -8.960991e-02 0.996 57.786 -122.6271)" class="st3" width="141.2" height="53.2"/>
	<circle class="st5" cx="1425.9" cy="562.1" r="21"/>
	<path class="st4" d="M1433,1257.3h-27.8l-165-388.4c-30-70.5-99.9-115.7-176.5-114H817.5l254,634.8h6h323.6h33.7
		c37.6,0,67.9-31.4,66.2-69.4C1499.3,1284.7,1468.6,1257.3,1433,1257.3z"/>
	<path class="st7" d="M1156,1257.3h-27.8L963.3,869c-25.8-60.6-81.1-102.4-144.8-111.9l-1-2.1h-547v50.5
		c0,129,104.6,233.6,233.6,233.6h150.1l140.3,350.8h6h323.6h33.7c37.6,0,67.9-31.4,66.2-69.4
		C1222.4,1284.7,1191.7,1257.3,1156,1257.3z"/>
	<rect x="908.4" y="700.6" class="st5" width="904.7" height="54.4"/>
	<path class="st6" d="M1728.1,700.6h-428c-11.5,0-20.9-9.4-20.9-20.9v0c0-11.5,9.4-20.9,20.9-20.9h428c11.5,0,20.9,9.4,20.9,20.9v0
		C1749,691.2,1739.6,700.6,1728.1,700.6z"/>
	<g>
		<g>
			<path class="st0" d="M1680.4,435.9c-8.7,0-15.7-7-15.7-15.7v-22c0-8.7,7-15.7,15.7-15.7c8.7,0,15.7,7,15.7,15.7v22
				C1696.1,428.8,1689.1,435.9,1680.4,435.9z M1680.4,387.5c-5.9,0-10.7,4.8-10.7,10.7v22c0,5.9,4.8,10.7,10.7,10.7
				c5.9,0,10.7-4.8,10.7-10.7v-22C1691.2,392.3,1686.4,387.5,1680.4,387.5z"/>
		</g>
		<path class="st3" d="M1700.6,700.6l-40.3,0c-13.2,0-23.8-10.7-23.8-23.8l0-210.1c0-9.2,5.3-17.6,13.6-21.5l20.1-9.5
			c6.4-3,13.9-3,20.3,0l20.1,9.5c8.3,3.9,13.6,12.3,13.6,21.5l0,210.1C1724.4,690,1713.7,700.6,1700.6,700.6z"/>
		<path class="st5" d="M1700.6,440.3l-40.7,0c-1.3,0-2.4-1.1-2.4-2.4v-20.7c0-1.3,1.1-2.4,2.4-2.4l40.7,0c1.3,0,2.4,1.1,2.4,2.4
			v20.7C1703,439.2,1701.9,440.3,1700.6,440.3z"/>
	</g>
	<path class="st2" d="M1607.5,579.6h-77.1c-6.4,0-11.6,5.2-11.6,11.6V603h-15.2c-11.2,0-20.3,9.1-20.3,20.3v33
		c0,11.2,9.1,20.3,20.3,20.3h15.2v12.4c0,6.4,5.2,11.6,11.6,11.6h77.1c6.4,0,11.6-5.2,11.6-11.6v-97.6
		C1619.1,584.9,1613.9,579.6,1607.5,579.6z M1503.5,661.7c-3,0-5.4-2.4-5.4-5.4v-33c0-3,2.4-5.4,5.4-5.4h15.2v43.8H1503.5z"/>
	<path d="M745.7,42.2c-7.1-8.5-15.4-15.3-24.4-20.6c-7-4-14.4-6.8-22-9.2c-24.8-7.6-58.1-1.9-83.4,18.2c-16.1,12.7-26,30.5-30.4,49
		c-6.6,27.4-0.6,57.5,18.9,80.8c19.1,22.8,46.8,34,74.3,32.9c19.7-0.8,39.2-7.8,55.5-21.4C773.2,139.4,778.4,81.3,745.7,42.2z"/>
	<path class="st1" d="M769.1,83.4c-8.6,0-16,8.2-19.1,20h-8.3c-3.1-11.7-10.5-20-19.1-20c-8.6,0-16,8.2-19.1,20h-61.9v9.9h60.4
		c0,0.8-0.1,1.6-0.1,2.5c0,17.9,9.2,32.3,20.6,32.3c11.4,0,20.6-14.5,20.6-32.3c0-0.8,0-1.6-0.1-2.5h5.3c0,0.8-0.1,1.6-0.1,2.5
		c0,17.9,9.2,32.3,20.6,32.3c11.4,0,20.6-14.5,20.6-32.3S780.5,83.4,769.1,83.4z"/>
	<g>
		<g>
			<path class="st5" d="M117.4,1384.2C52.6,1384.2,0,1309.2,0,1217c0-92.2,52.6-167.2,117.4-167.2c64.7,0,117.4,75,117.4,167.2
				C234.7,1309.2,182.1,1384.2,117.4,1384.2z M117.4,1074.6c-51.1,0-92.6,63.9-92.6,142.4c0,78.5,41.5,142.4,92.6,142.4
				S210,1295.5,210,1217C210,1138.5,168.4,1074.6,117.4,1074.6z"/>
		</g>
		<g>
			<g>
				<path class="st1" d="M540.6,1281.9L540.6,1281.9c-3.5-101.2-61.3-203.2-129.7-289.4H87.8c58.4,131.2,93.6,268.6,103.9,311.6
					c0.7,4.6,1.8,9.2,3.2,13.7c0,0,0,0,0,0l0,0c7.1,23,22.4,43.6,44.7,57.2c16.1,9.7,33.7,14.5,51.1,14.8v0h152.5l27,0
					c33.2-0.5,38.2-17.3,56.5-47.5C538.2,1323.4,542.5,1302.3,540.6,1281.9z"/>
			</g>
			<g>
				<g>
					<path class="st2" d="M450.1,925.5L450.1,925.5L450.1,925.5H142.2c-32.7,2.8-58.3,30.1-58.3,63.5s25.6,60.7,58.3,63.5h307.9l0,0
						l0,0c35.1,0,63.5-28.4,63.5-63.5C513.6,953.9,485.2,925.5,450.1,925.5z"/>
				</g>
				<g>
					<path class="st0" d="M255,1052.8L255,1052.8c45.9-30.1,45.9-97.4,0-127.6c-10.9,0-21.8,0-32.6,0c45.9,30.1,45.9,97.4,0,127.6
						l50.1,111h32.7L255,1052.8z"/>
				</g>
				<g>
					<path class="st0" d="M421.8,1052.8L421.8,1052.8c45.9-30.1,45.9-97.4,0-127.6c-10.9,0-21.8,0-32.6,0
						c45.9,30.1,45.9,97.4,0,127.6l50.1,111h32.7L421.8,1052.8z"/>
				</g>
			</g>
			<g>
				<circle class="st1" cx="147.7" cy="989" r="39.2"/>
			</g>
			<g>
				<circle class="st5" cx="250.4" cy="1075.3" r="5.1"/>
			</g>
			<g>
				<circle class="st5" cx="264.3" cy="1108.7" r="5.1"/>
			</g>
			<g>
				<circle class="st5" cx="279.4" cy="1142.2" r="5.1"/>
			</g>
			<g>
				<circle class="st5" cx="416.4" cy="1075.3" r="5.1"/>
			</g>
			<g>
				<circle class="st5" cx="430.5" cy="1108.7" r="5.1"/>
			</g>
			<g>
				<circle class="st5" cx="446.2" cy="1142.2" r="5.1"/>
			</g>
		</g>
	</g>
	<g>
		<g>
			<circle class="st0" cx="1446.9" cy="397.1" r="36.8"/>
		</g>
		<g>
			<path class="st5" d="M1454.4,420c-3.7,1.2-7.6,1.5-11.6,0.9c-6.4-1.1-11.9-4.6-15.6-9.8c-3.7-5.3-5.2-11.6-4.1-18l4.9,0.8
				c-0.9,5,0.3,10.1,3.3,14.3c3,4.2,7.4,6.9,12.4,7.8c5,0.9,10.1-0.3,14.3-3.3c4.2-3,6.9-7.4,7.8-12.4l4.9,0.8
				c-1.1,6.4-4.6,11.9-9.8,15.6C1458.9,418.2,1456.7,419.3,1454.4,420z"/>
		</g>
		<g>
			<g>
				
					<ellipse transform="matrix(0.1669 -0.986 0.986 0.1669 818.0201 1741.0743)" class="st5" cx="1439.3" cy="386.5" rx="9.2" ry="4.4"/>
			</g>
			<g>
				
					<ellipse transform="matrix(0.1669 -0.986 0.986 0.1669 830.1451 1761.588)" class="st5" cx="1457.5" cy="389.5" rx="9.2" ry="4.4"/>
			</g>
		</g>
	</g>
	<path d="M799.4,859.6c45-52.7,38.7-131.9-14-176.9c-15.6-13.3-33.6-22.1-52.3-26.6l0,0c-0.2,0-0.4-0.1-0.6-0.1
		c-3.2-0.8-6.5-1.4-9.8-1.9c-208.4-42.2-239-180.9-239-180.9l-113.4-96.7c-154.8,313,267.8,508.5,267.8,508.5l0,0
		C690,917,758.7,907.3,799.4,859.6z"/>
	<path class="st2" d="M603.8,146.9c19.7-0.8,39.2-7.8,55.5-21.4c34.7-29,42.6-78.2,21-116.1c-21.2-0.9-45.1,6.1-64.4,21.3
		c-16.1,12.7-26,30.5-30.4,49c-5.4,22.3-2.4,46.3,9.4,67C597.8,147,600.8,147,603.8,146.9z"/>
	<g>
		<path class="st3" d="M799.7,54.5c-12.5-1.6-27.1-2.9-43.1-3.8c-12.3-0.7-25.5-1.2-38.8-1.7c-43.7-1.4-102.4-0.2-147.1,3.8
			c-28.4,2.5-45.8,5.9-53.7,9.4c-11.6,5.2-1,10.9,33.4,15.3c33.6,4.3,82.5,6.3,131.1,6c34.7-0.2,69.2-1.6,97.9-4.3
			C848.2,72.8,857.3,61.8,799.7,54.5z"/>
		<path class="st4" d="M601.7,44.9c-3.1,4.1-5.9,8.4-8.2,12.9c-1.5,2.9-2.9,5.8-4.1,8.9c28.8,3.7,62.7,5.5,96.4,5.1
			c25.8-0.3,51.6-1.7,74.8-4.4c-0.8-2.1-1.6-4.2-2.6-6.2c-2.8-5.8-6.2-11.1-9.9-16.1c-20.4,2-42.3,3.1-64.3,3.3
			C655.6,48.7,627.2,47.5,601.7,44.9z"/>
	</g>
	<path class="st3" d="M739.5,35.2c-5.7-5.6-12.3-10.2-19-14.3c-10.9-6.6-24.5-10.6-39.1-11.5V7.3c0-4-3.3-7.3-7.3-7.3
		s-7.3,3.3-7.3,7.3v2.4c-10.6,1-21.4,3.6-31.7,8.2c-13.8,6.1-24.9,15.7-33.4,27c25.4,2.6,53.8,3.8,82.1,3.5
		c22-0.2,43.9-1.3,64.3-3.3C745.5,41.6,742.6,38.3,739.5,35.2z"/>
</g>
</svg>
