<?xml version="1.0" encoding="utf-8"?>
<!-- Generator: Adobe Illustrator 24.1.0, SVG Export Plug-In . SVG Version: 6.00 Build 0)  -->
<svg version="1.1" id="Layer_1" xmlns="http://www.w3.org/2000/svg" xmlns:xlink="http://www.w3.org/1999/xlink" x="0px" y="0px"
	 viewBox="0 0 2153.2 1535.9" style="enable-background:new 0 0 2153.2 1535.9;" xml:space="preserve">
<style type="text/css">
	.st0{fill:#FFFFFF;}
	.st1{fill:#80C7F5;}
	.st2{fill:#D7219C;}
	.st3{fill:#FA7554;}
	.st4{fill:#FFA68C;}
	.st5{fill:#871FFF;}
	.st6{fill:#B3DDF9;}
	.st7{fill:#FFB8A3;}
	.st8{fill:#99D2F7;}
	.st9{fill:#CCE9FB;}
	.st10{fill:url(#SVGID_1_);}
	.st11{fill:none;}
	.st12{fill:#E6F4FD;}
	.st13{fill:url(#SVGID_2_);}
	.st14{fill:#FCAC98;}
	.st15{fill:url(#SVGID_3_);}
	.st16{fill:#CFA5FF;}
	.st17{fill:#FDC8BB;}
	.st18{fill:#FB9176;}
	.st19{fill:none;stroke:#FA7554;stroke-miterlimit:10;}
	.st20{fill:url(#SVGID_4_);}
	.st21{fill:url(#SVGID_5_);}
	.st22{clip-path:url(#SVGID_7_);}
	.st23{fill:url(#SVGID_8_);}
	.st24{fill:url(#SVGID_9_);}
	.st25{fill:url(#SVGID_12_);}
	.st26{fill:url(#SVGID_13_);}
	.st27{fill:url(#SVGID_14_);}
	.st28{fill:url(#SVGID_15_);}
	.st29{fill:url(#SVGID_16_);}
	.st30{fill:url(#SVGID_17_);}
	.st31{fill:url(#SVGID_18_);}
	.st32{fill:url(#SVGID_19_);}
	.st33{fill:url(#SVGID_20_);}
	.st34{fill:url(#SVGID_21_);}
	.st35{fill:url(#SVGID_22_);}
	.st36{fill:url(#SVGID_23_);}
	.st37{fill:url(#SVGID_26_);}
	.st38{fill:url(#SVGID_27_);}
	.st39{fill:url(#SVGID_28_);}
	.st40{fill:url(#SVGID_29_);}
	.st41{fill:url(#SVGID_30_);}
	.st42{fill:url(#SVGID_31_);}
	.st43{fill:url(#SVGID_32_);}
	.st44{fill:url(#SVGID_33_);}
	.st45{fill:url(#SVGID_34_);}
	.st46{fill:url(#SVGID_35_);}
	.st47{fill:url(#SVGID_36_);}
	.st48{fill:url(#SVGID_37_);}
	.st49{fill:url(#SVGID_38_);}
	.st50{fill:url(#SVGID_39_);}
	.st51{fill:url(#SVGID_40_);}
	.st52{fill:url(#SVGID_41_);}
	.st53{fill:url(#SVGID_42_);}
	.st54{fill:url(#SVGID_43_);}
	.st55{fill:url(#SVGID_44_);}
	.st56{fill:url(#SVGID_45_);}
	.st57{fill:url(#SVGID_48_);}
	.st58{fill:url(#SVGID_49_);}
	.st59{fill:url(#SVGID_50_);}
	.st60{fill:url(#SVGID_51_);}
	.st61{fill:url(#SVGID_52_);}
	.st62{fill:url(#SVGID_53_);}
	.st63{fill:url(#SVGID_54_);}
	.st64{fill:url(#SVGID_55_);}
</style>
<g>
	<linearGradient id="SVGID_1_" gradientUnits="userSpaceOnUse" x1="0" y1="767.9443" x2="2084.324" y2="767.9443">
		<stop  offset="0" style="stop-color:#FFA68C"/>
		<stop  offset="0.2419" style="stop-color:#FCA38E"/>
		<stop  offset="0.4106" style="stop-color:#F49A96"/>
		<stop  offset="0.5571" style="stop-color:#E78BA3"/>
		<stop  offset="0.6909" style="stop-color:#D375B6"/>
		<stop  offset="0.8159" style="stop-color:#BA58CE"/>
		<stop  offset="0.933" style="stop-color:#9C36EB"/>
		<stop  offset="1" style="stop-color:#871FFF"/>
	</linearGradient>
	<path class="st10" d="M1714.5,55.5l33-55.5L1284,212.7c15.8,34.5,0.7,75.2-33.8,91.1c-34.5,15.8-75.2,0.7-91.1-33.8L0,801.9
		l336.8,734L2084.3,734l-63.6-11.2l33-55.6L1990,656l33-55.6l-63.6-11.2l33-55.5l-63.6-11.2l33-55.5l-63.6-11.2l33-55.5l-63.6-11.2
		l33-55.5l-63.6-11.2l33-55.5l-63.6-11.2l33-55.5l-63.6-11.2l33-55.5l-63.6-11.2l33-55.5L1714.5,55.5z"/>
	<path class="st5" d="M2100,419.6l53.2-36.7h-510c0,37.9-30.7,68.7-68.7,68.7c-37.9,0-68.7-30.7-68.7-68.7H230.4v807.5h1922.7
		l-53.2-36.7l53.2-36.7l-53.2-36.7l53.2-36.7l-53.2-36.7l53.2-36.7l-53.2-36.7l53.2-36.7l-53.2-36.7l53.2-36.7l-53.2-36.7l53.2-36.7
		l-53.2-36.7l53.2-36.7l-53.2-36.7l53.2-36.7l-53.2-36.7l53.2-36.7L2100,493l53.2-36.7L2100,419.6z"/>
	<g>
		<path class="st0" d="M365.1,870.1h5.7v4.4h-16.6v-4.4h5.9v-20.1h-5.3v-4.4h10.3V870.1z"/>
		<path class="st0" d="M378.5,865.3c0.2,3.2,2.5,5.3,6,5.3c2.6,0,4.3-1.1,5.5-2.8l4.2,1.8c-2,3.3-5.3,5.3-9.9,5.3
			c-6.8,0-10.9-4.3-10.9-11.1c0-7,4.3-11.4,11-11.4c6.2,0,10.1,3.8,10.1,10v3H378.5z M389.6,861.4c0-3.2-2.1-4.8-5.2-4.8
			c-3.3,0-5.5,1.9-5.9,5.1h11.1V861.4z"/>
		<path class="st0" d="M415.1,857.2h-7.2v9.6c0,1.1,0,3.6,4.1,3.6c1.1,0,2.3-0.2,3.5-0.4l0.4,4.2c-1.7,0.4-3.6,0.7-5.4,0.7
			c-5.3,0-7.6-2.5-7.6-7v-10.7h-5.5v-4.4h5.5v-5.3l5-1.3v6.6h7.2V857.2z"/>
		<path class="st0" d="M447.1,874.5v-3.6c-1.3,2.8-3.5,3.9-6.6,3.9c-6.2,0-9.3-4.6-9.3-11.2c0-6.6,3.1-11.2,9.2-11.2
			c3.1,0,5.4,1.2,6.6,3.8v-11.3h5v29.6H447.1z M447,863.6c0-4.2-1.9-7-5.4-7c-3.6,0-5.5,2.7-5.5,7c0,4.4,2,7,5.5,7
			C445.2,870.6,447,867.8,447,863.6z"/>
		<path class="st0" d="M462,865.3c0.2,3.2,2.5,5.3,6,5.3c2.6,0,4.3-1.1,5.5-2.8l4.2,1.8c-2,3.3-5.3,5.3-9.9,5.3
			c-6.8,0-10.9-4.3-10.9-11.1c0-7,4.3-11.4,11-11.4c6.2,0,10.1,3.8,10.1,10v3H462z M473.1,861.4c0-3.2-2.1-4.8-5.2-4.8
			c-3.3,0-5.5,1.9-5.9,5.1h11.1V861.4z"/>
		<path class="st0" d="M497.1,859.6c-0.8-2-2.8-3.2-5.8-3.2c-2.7,0-4.3,0.9-4.3,2.5c0,2,2.7,2.3,5.8,2.6c4.2,0.4,9.3,0.9,9.3,6
			c0,4.5-4,7.3-9.6,7.3c-4.9,0-9.2-2.1-10.7-6.1l4.6-1.5c1,2.4,3.5,3.5,6.2,3.5c2.6,0,4.6-1,4.6-2.7c0-2-2.7-2.3-5.7-2.6
			c-4.3-0.5-9.3-1.1-9.3-6.2c0-4.4,3.8-6.9,9.5-6.9c5.3,0,8.8,2.3,10.1,5.8L497.1,859.6z"/>
		<path class="st0" d="M522.6,857.2h-7.2v9.6c0,1.1,0,3.6,4.1,3.6c1.1,0,2.3-0.2,3.5-0.4l0.4,4.2c-1.7,0.4-3.6,0.7-5.4,0.7
			c-5.3,0-7.6-2.5-7.6-7v-10.7h-5.5v-4.4h5.5v-5.3l5-1.3v6.6h7.2V857.2z"/>
		<path class="st0" d="M537.4,870.1h5.7v4.4h-16.6v-4.4h5.9v-12.9h-5.3v-4.4h10.3V870.1z M537.6,849.7h-5.4v-5h5.4V849.7z"/>
		<path class="st0" d="M552.1,852.8v3.4c1.3-2.4,3.5-3.8,6.8-3.8c4.8,0,7.5,2.8,7.5,7.5v14.6h-5v-13c0-2.9-1.3-4.7-4.2-4.7
			c-3.2,0-5.2,2.3-5.2,5.4v12.2h-5v-21.7H552.1z"/>
		<path class="st0" d="M586.3,874.5v-3.4c-1.6,2.6-4.4,3.7-7.5,3.7c-4.7,0-7.6-2.4-7.6-6.5c0-5.5,5.2-6.1,8.4-6.4l2.7-0.3
			c1.9-0.2,4-0.5,4-2.4c0-1.7-1.7-2.6-4.2-2.6c-2.8,0-4.8,1.2-5.7,3.5l-4.7-1.3c1.5-4.2,5.3-6.3,10.5-6.3c5.5,0,9,2.4,9,7.2v14.9
			H586.3z M586.2,864.3c-1.4,0.4-2.7,0.6-3.8,0.7l-1.9,0.2c-2.2,0.3-4.4,0.6-4.4,2.8c0,1.9,1.5,2.6,3.7,2.6c3.4,0,6.4-1.7,6.4-4.8
			V864.3z"/>
		<path class="st0" d="M612.8,857.2h-7.2v9.6c0,1.1,0,3.6,4.1,3.6c1.1,0,2.3-0.2,3.5-0.4l0.4,4.2c-1.7,0.4-3.6,0.7-5.4,0.7
			c-5.3,0-7.6-2.5-7.6-7v-10.7h-5.5v-4.4h5.5v-5.3l5-1.3v6.6h7.2V857.2z"/>
		<path class="st0" d="M627.6,870.1h5.7v4.4h-16.6v-4.4h5.9v-12.9h-5.3v-4.4h10.2V870.1z M627.8,849.7h-5.4v-5h5.4V849.7z"/>
		<path class="st0" d="M657.4,863.6c0,6.8-4.2,11.2-10.7,11.2c-6.6,0-10.7-4.4-10.7-11.2c0-6.8,4.2-11.2,10.7-11.2
			C653.2,852.4,657.4,856.8,657.4,863.6z M640.9,863.6c0,4.4,2.1,7,5.8,7c3.7,0,5.7-2.6,5.7-7c0-4.4-2.1-7-5.7-7
			C643,856.6,640.9,859.2,640.9,863.6z"/>
		<path class="st0" d="M667.3,852.8v3.4c1.3-2.4,3.5-3.8,6.8-3.8c4.8,0,7.5,2.8,7.5,7.5v14.6h-5v-13c0-2.9-1.3-4.7-4.2-4.7
			c-3.2,0-5.2,2.3-5.2,5.4v12.2h-5v-21.7H667.3z"/>
		<path class="st0" d="M717.8,859.5h-17.9v-4.3h17.9V859.5z M717.8,867.8h-17.9v-4.3h17.9V867.8z"/>
		<path class="st0" d="M741.3,852.8v3.3c1.3-2.5,3.4-3.7,6.6-3.7c6,0,9.3,4.5,9.3,11.1c0,6.4-3.2,11.1-9.4,11.1
			c-3.1,0-5.2-1.2-6.5-3.7v11.6h-5v-29.6H741.3z M752.2,863.4c0-4.2-1.9-6.8-5.5-6.8c-3.6,0-5.5,2.7-5.5,6.8c0,4,1.9,6.8,5.5,6.8
			C750.3,870.3,752.2,867.6,752.2,863.4z"/>
		<path class="st0" d="M768.3,852.8v4.2c1.3-3.2,4.1-4.4,7.3-4.4c1.1,0,2.1,0.1,3.2,0.4l-0.3,4.8c-1.1-0.2-2.2-0.4-3.4-0.4
			c-4,0-6.8,2.1-6.8,6.9v10.2h-5v-21.7H768.3z"/>
		<path class="st0" d="M803.3,863.6c0,6.8-4.2,11.2-10.7,11.2c-6.6,0-10.7-4.4-10.7-11.2c0-6.8,4.2-11.2,10.7-11.2
			C799.2,852.4,803.3,856.8,803.3,863.6z M786.9,863.6c0,4.4,2.1,7,5.8,7c3.7,0,5.7-2.6,5.7-7c0-4.4-2.1-7-5.7-7
			C789,856.6,786.9,859.2,786.9,863.6z"/>
		<path class="st0" d="M812.9,852.8v2.8c0.9-2,2.4-3.2,4.9-3.2c2.6,0,4,1.3,4.8,3.6c1-2.3,2.8-3.6,5.7-3.6c4.4,0,5.8,3.2,5.8,6.6
			v15.5h-4.7v-14c0-2.1-0.7-3.6-2.7-3.6c-2.3,0-3.2,2-3.2,4.1v13.6h-4.7v-14c0-2-0.6-3.6-2.7-3.6c-2.3,0-3.2,2.1-3.2,4.1v13.6h-4.7
			v-21.7H812.9z"/>
		<path class="st0" d="M845,852.8v3.3c1.3-2.5,3.4-3.7,6.6-3.7c6,0,9.3,4.5,9.3,11.1c0,6.4-3.2,11.1-9.4,11.1c-3,0-5.2-1.2-6.5-3.7
			v11.6h-5v-29.6H845z M855.9,863.4c0-4.2-1.9-6.8-5.5-6.8c-3.6,0-5.5,2.7-5.5,6.8c0,4,1.9,6.8,5.5,6.8
			C854,870.3,855.9,867.6,855.9,863.4z"/>
		<path class="st0" d="M881.3,857.2h-7.2v9.6c0,1.1,0,3.6,4.1,3.6c1.1,0,2.3-0.2,3.5-0.4l0.4,4.2c-1.7,0.4-3.6,0.7-5.4,0.7
			c-5.3,0-7.6-2.5-7.6-7v-10.7h-5.5v-4.4h5.5v-5.3l5-1.3v6.6h7.2V857.2z"/>
		<path class="st0" d="M902.4,876.7l-2,3.7c-8-3.6-13.4-10.7-13.4-19.7c0-9.1,5.4-16.1,13.4-19.7l2,3.7c-6.4,3.2-10.4,8.8-10.4,16
			C892,868,896,873.6,902.4,876.7z"/>
		<path class="st0" d="M913,857.4h-5l2.8-11.9h4.5L913,857.4z M921.6,857.4h-5l2.8-11.9h4.5L921.6,857.4z"/>
		<path class="st0" d="M959.6,845.5l-5.7,29h-6.2l-3.9-20.9l-3.9,20.9h-6.2l-5.7-29h5.2l3.9,22l3.8-22h5.7l3.8,22l3.8-22H959.6z"/>
		<path class="st0" d="M968.5,844.9v11.3c1.3-2.4,3.5-3.8,6.8-3.8c4.8,0,7.5,2.8,7.5,7.5v14.6h-5v-13c0-2.9-1.3-4.7-4.2-4.7
			c-3.2,0-5.2,2.3-5.2,5.4v12.2h-5v-29.6H968.5z"/>
		<path class="st0" d="M992.6,865.3c0.2,3.2,2.5,5.3,6,5.3c2.6,0,4.3-1.1,5.5-2.8l4.2,1.8c-2,3.3-5.3,5.3-9.9,5.3
			c-6.8,0-10.9-4.3-10.9-11.1c0-7,4.3-11.4,11-11.4c6.2,0,10.1,3.8,10.1,10v3H992.6z M1003.7,861.4c0-3.2-2.1-4.8-5.2-4.8
			c-3.3,0-5.5,1.9-5.9,5.1h11.1V861.4z"/>
		<path class="st0" d="M1019.9,852.8v4.2c1.3-3.2,4.1-4.4,7.3-4.4c1.1,0,2.1,0.1,3.2,0.4l-0.3,4.8c-1.1-0.2-2.2-0.4-3.4-0.4
			c-4,0-6.8,2.1-6.8,6.9v10.2h-5v-21.7H1019.9z"/>
		<path class="st0" d="M1038.5,865.3c0.2,3.2,2.5,5.3,6,5.3c2.6,0,4.3-1.1,5.5-2.8l4.2,1.8c-2,3.3-5.3,5.3-9.9,5.3
			c-6.8,0-10.9-4.3-10.9-11.1c0-7,4.3-11.4,11-11.4c6.2,0,10.1,3.8,10.1,10v3H1038.5z M1049.6,861.4c0-3.2-2.1-4.8-5.2-4.8
			c-3.3,0-5.5,1.9-5.9,5.1h11.1V861.4z"/>
		<path class="st0" d="M1085.7,874.5v-3.6c-1.3,2.8-3.5,3.9-6.7,3.9c-6.2,0-9.3-4.6-9.3-11.2c0-6.6,3.1-11.2,9.2-11.2
			c3.1,0,5.4,1.2,6.7,3.8v-11.3h5v29.6H1085.7z M1085.6,863.6c0-4.2-1.9-7-5.4-7c-3.6,0-5.5,2.7-5.5,7c0,4.4,2,7,5.5,7
			C1083.7,870.6,1085.6,867.8,1085.6,863.6z"/>
		<path class="st0" d="M1117,863.6c0,6.8-4.2,11.2-10.7,11.2c-6.6,0-10.7-4.4-10.7-11.2c0-6.8,4.2-11.2,10.7-11.2
			C1112.8,852.4,1117,856.8,1117,863.6z M1100.5,863.6c0,4.4,2.1,7,5.8,7c3.7,0,5.7-2.6,5.7-7c0-4.4-2.1-7-5.7-7
			C1102.6,856.6,1100.5,859.2,1100.5,863.6z"/>
		<path class="st0" d="M1144.6,876.3c-1.4,3.5-4.1,5.7-8.4,5.7c-1.4,0-2.7-0.2-4-0.5l0.5-4.2c1,0.2,1.8,0.3,2.7,0.3
			c2.4,0,3.7-1.2,4.6-3.4l-8.9-21.4h5.4l6.1,16.1l5.8-16.1h5.4L1144.6,876.3z"/>
		<path class="st0" d="M1177.8,863.6c0,6.8-4.2,11.2-10.7,11.2c-6.6,0-10.7-4.4-10.7-11.2c0-6.8,4.2-11.2,10.7-11.2
			C1173.6,852.4,1177.8,856.8,1177.8,863.6z M1161.3,863.6c0,4.4,2.1,7,5.8,7c3.7,0,5.7-2.6,5.7-7c0-4.4-2.1-7-5.7-7
			C1163.4,856.6,1161.3,859.2,1161.3,863.6z"/>
		<path class="st0" d="M1196.7,874.5V871c-1.3,2.4-3.5,3.8-6.7,3.8c-4.7,0-7.4-2.9-7.4-7.6v-14.5h5v12.8c0,2.9,1.3,4.8,4,4.8
			c3.1,0,5.1-2.3,5.1-5.5v-12.1h5v21.7H1196.7z"/>
		<path class="st0" d="M1240.2,874.5h-5.3l-3.6-14.6l-3.6,14.6h-5.3l-5.4-21.7h5.1l3.3,15.9l3.5-15.9h4.8l3.5,15.9l3.3-15.9h5.1
			L1240.2,874.5z"/>
		<path class="st0" d="M1263.3,874.5v-3.4c-1.6,2.6-4.4,3.7-7.5,3.7c-4.7,0-7.6-2.4-7.6-6.5c0-5.5,5.2-6.1,8.4-6.4l2.6-0.3
			c1.9-0.2,4-0.5,4-2.4c0-1.7-1.7-2.6-4.2-2.6c-2.8,0-4.8,1.2-5.7,3.5l-4.7-1.3c1.5-4.2,5.3-6.3,10.5-6.3c5.5,0,9,2.4,9,7.2v14.9
			H1263.3z M1263.2,864.3c-1.4,0.4-2.7,0.6-3.8,0.7l-1.9,0.2c-2.2,0.3-4.4,0.6-4.4,2.8c0,1.9,1.5,2.6,3.7,2.6c3.4,0,6.4-1.7,6.4-4.8
			V864.3z"/>
		<path class="st0" d="M1279.3,852.8v3.4c1.3-2.4,3.5-3.8,6.8-3.8c4.8,0,7.5,2.8,7.5,7.5v14.6h-5v-13c0-2.9-1.3-4.7-4.2-4.7
			c-3.2,0-5.2,2.3-5.2,5.4v12.2h-5v-21.7H1279.3z"/>
		<path class="st0" d="M1315.3,857.2h-7.2v9.6c0,1.1,0,3.6,4.1,3.6c1.1,0,2.3-0.2,3.5-0.4l0.4,4.2c-1.7,0.4-3.6,0.7-5.4,0.7
			c-5.3,0-7.6-2.5-7.6-7v-10.7h-5.5v-4.4h5.5v-5.3l5-1.3v6.6h7.2V857.2z"/>
		<path class="st0" d="M1348.1,857.2h-7.2v9.6c0,1.1,0,3.6,4.1,3.6c1.1,0,2.3-0.2,3.5-0.4l0.4,4.2c-1.7,0.4-3.6,0.7-5.4,0.7
			c-5.3,0-7.6-2.5-7.6-7v-10.7h-5.5v-4.4h5.5v-5.3l5-1.3v6.6h7.2V857.2z"/>
		<path class="st0" d="M1373.9,863.6c0,6.8-4.2,11.2-10.7,11.2c-6.6,0-10.7-4.4-10.7-11.2c0-6.8,4.2-11.2,10.7-11.2
			C1369.7,852.4,1373.9,856.8,1373.9,863.6z M1357.4,863.6c0,4.4,2.1,7,5.8,7c3.7,0,5.7-2.6,5.7-7c0-4.4-2.1-7-5.7-7
			C1359.5,856.6,1357.4,859.2,1357.4,863.6z"/>
		<path class="st0" d="M1409.9,873.4c0,5.5-4.1,9.1-10.4,9.1c-5.3,0-9.1-2.5-10.4-6.9l4.8-1.2c0.7,2.5,2.7,3.9,5.6,3.9
			c3.3,0,5.4-1.8,5.4-4.7v-4.3c-1.3,2.6-3.5,3.8-6.6,3.8c-6,0-9.4-4.3-9.4-10.3c0-5.9,3.3-10.3,9.5-10.3c3.1,0,5.2,1.1,6.5,3.6v-3.2
			h5V873.4z M1393.9,862.7c0,3.7,2,6.1,5.5,6.1c3.5,0,5.5-2.4,5.5-6.1s-2-6-5.5-6C1396,856.6,1393.9,859,1393.9,862.7z"/>
		<path class="st0" d="M1436.1,863.6c0,6.8-4.2,11.2-10.7,11.2c-6.6,0-10.7-4.4-10.7-11.2c0-6.8,4.2-11.2,10.7-11.2
			C1431.9,852.4,1436.1,856.8,1436.1,863.6z M1419.6,863.6c0,4.4,2.1,7,5.8,7c3.7,0,5.7-2.6,5.7-7c0-4.4-2.1-7-5.7-7
			C1421.7,856.6,1419.6,859.2,1419.6,863.6z"/>
		<path class="st0" d="M1447.6,863.7c0-3.2,1.6-4.9,3.8-6.3l1.7-1.1c1.4-0.9,2.6-1.9,2.6-3.6c0-2-1.6-3.3-4.3-3.3
			c-3.1,0-5.2,1.6-5.4,5.5l-5-0.6c0.3-6.4,4.7-9.5,10.6-9.5c5.7,0,9.2,3,9.2,7.6c0,3.9-2.6,5.7-4.1,6.7l-1.9,1.3
			c-1.4,0.9-2.7,2-2.7,3.9v1.4h-4.5V863.7z M1446.9,868.5h6v6h-6V868.5z"/>
		<path class="st0" d="M1472.1,857.4h-5l2.8-11.9h4.6L1472.1,857.4z M1480.7,857.4h-5l2.8-11.9h4.6L1480.7,857.4z"/>
		<path class="st0" d="M1489.8,844.7l2.7-3.6c6.8,4.5,10.6,11.7,10.6,19.4c0,7.7-3.8,14.9-10.6,19.4l-2.7-3.6
			c5.4-4,8.2-9.8,8.2-15.9C1498.1,854.4,1495.2,848.7,1489.8,844.7z"/>
		<path class="st0" d="M1511.3,868.2h5l-2.8,11.9h-4.5L1511.3,868.2z M1516.7,859.6h-6v-6h6V859.6z"/>
		<path class="st0" d="M368.1,934.1H363l-9-21.7h5.4l6.2,15.8l6.1-15.8h5.4L368.1,934.1z"/>
		<path class="st0" d="M401,923.2c0,6.8-4.2,11.2-10.7,11.2c-6.6,0-10.7-4.4-10.7-11.2c0-6.8,4.2-11.2,10.7-11.2
			C396.8,912,401,916.4,401,923.2z M384.5,923.2c0,4.4,2.1,7,5.8,7c3.7,0,5.7-2.6,5.7-7c0-4.4-2.1-7-5.7-7
			C386.6,916.2,384.5,918.8,384.5,923.2z"/>
		<path class="st0" d="M417.1,935.9c-1.4,3.5-4.1,5.7-8.4,5.7c-1.4,0-2.7-0.2-4-0.5l0.5-4.2c0.9,0.2,1.8,0.3,2.7,0.3
			c2.4,0,3.7-1.2,4.6-3.4l-8.9-21.4h5.4l6.1,16.1l5.8-16.1h5.4L417.1,935.9z"/>
		<path class="st0" d="M443.9,934.1v-3.4c-1.6,2.6-4.4,3.7-7.5,3.7c-4.7,0-7.6-2.4-7.6-6.5c0-5.5,5.2-6.1,8.4-6.4l2.7-0.3
			c1.9-0.2,4-0.5,4-2.4c0-1.7-1.7-2.6-4.2-2.6c-2.8,0-4.8,1.2-5.7,3.5l-4.7-1.3c1.5-4.2,5.3-6.3,10.5-6.3c5.5,0,9,2.4,9,7.2v14.9
			H443.9z M443.9,923.9c-1.4,0.4-2.7,0.6-3.8,0.7l-1.9,0.2c-2.2,0.3-4.4,0.6-4.4,2.8c0,1.9,1.5,2.6,3.7,2.6c3.4,0,6.4-1.7,6.4-4.8
			V923.9z"/>
		<path class="st0" d="M474.5,933c0,5.5-4.1,9.1-10.4,9.1c-5.3,0-9.1-2.5-10.4-6.9l4.8-1.2c0.7,2.5,2.7,3.9,5.6,3.9
			c3.3,0,5.4-1.8,5.4-4.7v-4.3c-1.3,2.6-3.5,3.8-6.6,3.8c-6,0-9.4-4.3-9.4-10.3c0-5.9,3.3-10.3,9.5-10.3c3,0,5.2,1.1,6.5,3.6v-3.2h5
			V933z M458.6,922.3c0,3.7,2,6.1,5.5,6.1c3.5,0,5.5-2.4,5.5-6.1c0-3.6-2-6-5.5-6C460.6,916.2,458.6,918.6,458.6,922.3z"/>
		<path class="st0" d="M484.3,924.9c0.2,3.2,2.5,5.3,6,5.3c2.6,0,4.3-1.1,5.5-2.8l4.2,1.8c-2,3.3-5.3,5.3-9.9,5.3
			c-6.8,0-10.9-4.3-10.9-11.1c0-7,4.3-11.4,11-11.4c6.2,0,10.1,3.8,10.1,10v3H484.3z M495.4,921c0-3.2-2.1-4.8-5.2-4.8
			c-3.3,0-5.5,1.9-5.9,5.1h11.1V921z"/>
		<path class="st0" d="M511.6,912.4v4.2c1.3-3.2,4.1-4.4,7.3-4.4c1.1,0,2.1,0.1,3.2,0.4l-0.3,4.8c-1.2-0.2-2.2-0.4-3.4-0.4
			c-4,0-6.8,2.1-6.8,6.9v10.2h-5v-21.7H511.6z"/>
		<path class="st0" d="M540.7,919.2c-0.8-2-2.8-3.2-5.8-3.2c-2.7,0-4.3,0.9-4.3,2.5c0,2,2.7,2.3,5.8,2.6c4.2,0.4,9.3,0.9,9.3,6
			c0,4.5-4,7.3-9.6,7.3c-4.9,0-9.2-2.1-10.7-6.1l4.6-1.5c1,2.4,3.5,3.5,6.2,3.5c2.6,0,4.5-1,4.5-2.7c0-2-2.7-2.3-5.7-2.6
			c-4.3-0.5-9.3-1.1-9.3-6.2c0-4.4,3.8-6.9,9.5-6.9c5.3,0,8.8,2.3,10.1,5.8L540.7,919.2z"/>
		<path class="st0" d="M557.3,934.1h-6v-6h6V934.1z"/>
		<path class="st0" d="M578.6,916.8h-7.2v9.6c0,1.1,0,3.6,4.1,3.6c1.1,0,2.3-0.2,3.5-0.4l0.4,4.2c-1.7,0.4-3.6,0.7-5.4,0.7
			c-5.3,0-7.6-2.5-7.6-7v-10.7h-5.5v-4.4h5.5v-5.3l5-1.3v6.6h7.2V916.8z"/>
		<path class="st0" d="M598.2,934.1v-3.4c-1.6,2.6-4.4,3.7-7.5,3.7c-4.7,0-7.6-2.4-7.6-6.5c0-5.5,5.2-6.1,8.4-6.4l2.6-0.3
			c1.9-0.2,4-0.5,4-2.4c0-1.7-1.7-2.6-4.2-2.6c-2.8,0-4.8,1.2-5.7,3.5l-4.7-1.3c1.5-4.2,5.3-6.3,10.5-6.3c5.5,0,9,2.4,9,7.2v14.9
			H598.2z M598.1,923.9c-1.4,0.4-2.7,0.6-3.8,0.7l-1.9,0.2c-2.2,0.3-4.4,0.6-4.4,2.8c0,1.9,1.5,2.6,3.7,2.6c3.4,0,6.4-1.7,6.4-4.8
			V923.9z"/>
		<path class="st0" d="M621.5,920.8l8.5,13.3h-5.9l-6.1-9.8l-3.7,3.3v6.5h-5v-29.6h5v16.8l9.3-8.9h7L621.5,920.8z"/>
		<path class="st0" d="M637.4,924.9c0.2,3.2,2.5,5.3,6,5.3c2.6,0,4.3-1.1,5.5-2.8l4.2,1.8c-2,3.3-5.3,5.3-9.9,5.3
			c-6.8,0-10.9-4.3-10.9-11.1c0-7,4.3-11.4,11-11.4c6.2,0,10.1,3.8,10.1,10v3H637.4z M648.5,921c0-3.2-2.1-4.8-5.2-4.8
			c-3.3,0-5.5,1.9-5.9,5.1h11.1V921z"/>
		<path class="st0" d="M678.5,923.2c0,6.8-4.2,11.2-10.7,11.2c-6.6,0-10.7-4.4-10.7-11.2c0-6.8,4.2-11.2,10.7-11.2
			C674.4,912,678.5,916.4,678.5,923.2z M662.1,923.2c0,4.4,2.1,7,5.8,7c3.7,0,5.7-2.6,5.7-7c0-4.4-2.1-7-5.7-7
			C664.2,916.2,662.1,918.8,662.1,923.2z"/>
		<path class="st0" d="M687,916.8h-5.2v-4.4h5.2v-1.7c0-5.1,2.9-7.5,8.2-7.5c1.5,0,2.9,0.2,4.2,0.6l-0.5,4.1c-1-0.2-2.1-0.4-3-0.4
			c-4,0-4,2.7-4,3.6v1.3h7v4.4h-7v17.3h-5V916.8z"/>
		<path class="st0" d="M708.1,916.8h-5.2v-4.4h5.2v-1.7c0-5.1,2.9-7.5,8.2-7.5c1.5,0,2.9,0.2,4.2,0.6l-0.5,4.1c-1-0.2-2.1-0.4-3-0.4
			c-4,0-4,2.7-4,3.6v1.3h7v4.4h-7v17.3h-5V916.8z"/>
		<path class="st0" d="M740.5,936.4l-2,3.7c-8-3.6-13.4-10.7-13.4-19.7c0-9.1,5.4-16.1,13.4-19.7l2,3.7c-6.4,3.2-10.4,8.8-10.4,16
			C730.2,927.6,734.2,933.2,740.5,936.4z"/>
		<path class="st0" d="M760.5,934.1v-3.6c-1.3,2.8-3.5,3.9-6.7,3.9c-6.2,0-9.3-4.6-9.3-11.2c0-6.6,3.1-11.2,9.2-11.2
			c3.1,0,5.4,1.2,6.7,3.8v-11.3h5v29.6H760.5z M760.4,923.2c0-4.2-1.9-7-5.4-7c-3.6,0-5.5,2.7-5.5,7c0,4.4,2,7,5.5,7
			C758.5,930.2,760.4,927.4,760.4,923.2z"/>
		<path class="st0" d="M775.3,924.9c0.2,3.2,2.5,5.3,6,5.3c2.6,0,4.3-1.1,5.5-2.8l4.2,1.8c-2,3.3-5.3,5.3-9.9,5.3
			c-6.8,0-10.9-4.3-10.9-11.1c0-7,4.3-11.4,11-11.4c6.2,0,10.1,3.8,10.1,10v3H775.3z M786.4,921c0-3.2-2.1-4.8-5.2-4.8
			c-3.3,0-5.5,1.9-5.9,5.1h11.1V921z"/>
		<path class="st0" d="M810.4,919.2c-0.8-2-2.8-3.2-5.8-3.2c-2.7,0-4.3,0.9-4.3,2.5c0,2,2.7,2.3,5.8,2.6c4.2,0.4,9.3,0.9,9.3,6
			c0,4.5-4,7.3-9.6,7.3c-4.9,0-9.2-2.1-10.7-6.1l4.6-1.5c1,2.4,3.5,3.5,6.2,3.5c2.6,0,4.6-1,4.6-2.7c0-2-2.7-2.3-5.7-2.6
			c-4.3-0.5-9.3-1.1-9.3-6.2c0-4.4,3.8-6.9,9.5-6.9c5.3,0,8.8,2.3,10.1,5.8L810.4,919.2z"/>
		<path class="st0" d="M835.9,916.8h-7.2v9.6c0,1.1,0,3.6,4.1,3.6c1.1,0,2.3-0.2,3.5-0.4l0.4,4.2c-1.7,0.4-3.6,0.7-5.4,0.7
			c-5.3,0-7.6-2.5-7.6-7v-10.7h-5.5v-4.4h5.5v-5.3l5-1.3v6.6h7.2V916.8z"/>
		<path class="st0" d="M850.7,929.7h5.7v4.4h-16.6v-4.4h5.9v-12.9h-5.3v-4.4h10.2V929.7z M851,909.3h-5.4v-5h5.4V909.3z"/>
		<path class="st0" d="M865.4,912.4v3.4c1.3-2.4,3.5-3.8,6.8-3.8c4.8,0,7.5,2.8,7.5,7.5v14.6h-5v-13c0-2.9-1.3-4.7-4.2-4.7
			c-3.2,0-5.2,2.3-5.2,5.4v12.2h-5v-21.7H865.4z"/>
		<path class="st0" d="M899.7,934.1v-3.4c-1.6,2.6-4.4,3.7-7.5,3.7c-4.7,0-7.6-2.4-7.6-6.5c0-5.5,5.2-6.1,8.4-6.4l2.6-0.3
			c1.9-0.2,4-0.5,4-2.4c0-1.7-1.7-2.6-4.2-2.6c-2.8,0-4.8,1.2-5.7,3.5l-4.7-1.3c1.5-4.2,5.3-6.3,10.5-6.3c5.5,0,9,2.4,9,7.2v14.9
			H899.7z M899.6,923.9c-1.4,0.4-2.7,0.6-3.8,0.7l-1.9,0.2c-2.2,0.3-4.4,0.6-4.4,2.8c0,1.9,1.5,2.6,3.7,2.6c3.4,0,6.4-1.7,6.4-4.8
			V923.9z"/>
		<path class="st0" d="M926.2,916.8H919v9.6c0,1.1,0,3.6,4.1,3.6c1.1,0,2.3-0.2,3.5-0.4l0.4,4.2c-1.7,0.4-3.6,0.7-5.4,0.7
			c-5.3,0-7.6-2.5-7.6-7v-10.7h-5.5v-4.4h5.5v-5.3l5-1.3v6.6h7.2V916.8z"/>
		<path class="st0" d="M941,929.7h5.7v4.4h-16.6v-4.4h5.9v-12.9h-5.3v-4.4H941V929.7z M941.2,909.3h-5.4v-5h5.4V909.3z"/>
		<path class="st0" d="M970.7,923.2c0,6.8-4.2,11.2-10.7,11.2c-6.6,0-10.7-4.4-10.7-11.2c0-6.8,4.2-11.2,10.7-11.2
			C966.6,912,970.7,916.4,970.7,923.2z M954.3,923.2c0,4.4,2.1,7,5.8,7c3.7,0,5.7-2.6,5.7-7c0-4.4-2.1-7-5.7-7
			C956.4,916.2,954.3,918.8,954.3,923.2z"/>
		<path class="st0" d="M980.7,912.4v3.4c1.3-2.4,3.5-3.8,6.8-3.8c4.8,0,7.5,2.8,7.5,7.5v14.6h-5v-13c0-2.9-1.3-4.7-4.2-4.7
			c-3.2,0-5.2,2.3-5.2,5.4v12.2h-5v-21.7H980.7z"/>
		<path class="st0" d="M1001.5,904.3l2.7-3.6c6.8,4.5,10.6,11.7,10.6,19.4c0,7.7-3.8,14.9-10.6,19.4l-2.7-3.6
			c5.4-4,8.2-9.8,8.2-15.9C1009.8,914,1006.9,908.3,1001.5,904.3z"/>
		<path class="st0" d="M1023.9,926.5h6l-3.3,14.3h-5.5L1023.9,926.5z M1030.4,916.3h-7.2V909h7.2V916.3z"/>
	</g>
	<g>
		<path class="st1" d="M1881,904.7H1981v68.5h-279.1v-68.5h106.4V649.4c-28.3,26.3-65.4,41.1-111.1,48v-72.6
			c48.3-6.9,89.1-27.8,122.6-62.2h61V904.7z"/>
	</g>
	<linearGradient id="SVGID_2_" gradientUnits="userSpaceOnUse" x1="824.1664" y1="749.1986" x2="906.5692" y2="749.1986">
		<stop  offset="0" style="stop-color:#871FFF"/>
		<stop  offset="0.2203" style="stop-color:#AE4ADA"/>
		<stop  offset="0.4565" style="stop-color:#D172B8"/>
		<stop  offset="0.6733" style="stop-color:#EA8EA0"/>
		<stop  offset="0.8615" style="stop-color:#FAA091"/>
		<stop  offset="1" style="stop-color:#FFA68C"/>
	</linearGradient>
	<circle class="st13" cx="865.4" cy="749.2" r="41.2"/>
	<circle class="st3" cx="407.1" cy="1052.2" r="14.7"/>
	<circle class="st0" cx="525.3" cy="749.2" r="7.2"/>
	<circle class="st0" cx="942.8" cy="628" r="7.2"/>
	<circle class="st0" cx="1251.4" cy="1012.3" r="7.2"/>
	<path class="st0" d="M809.8,526.6c0-0.4,0.1-0.8,0.1-1.2c0-0.4,0-0.8-0.1-1.2c-10-2.2-15.4-7.6-17.6-17.6c-0.4,0-0.8-0.1-1.2-0.1
		c-0.4,0-0.8,0-1.2,0.1c-2.2,10-7.6,15.4-17.6,17.6c0,0.4-0.1,0.8-0.1,1.2c0,0.4,0,0.8,0.1,1.2c10,2.2,15.4,7.6,17.6,17.6
		c0.4,0,0.8,0.1,1.2,0.1c0.4,0,0.8,0,1.2-0.1C794.4,534.1,799.8,528.7,809.8,526.6z"/>
	<path class="st0" d="M1971.4,1103.5c0-0.4,0.1-0.8,0.1-1.2c0-0.4,0-0.8-0.1-1.2c-10-2.2-15.4-7.6-17.6-17.6c-0.4,0-0.8-0.1-1.2-0.1
		s-0.8,0-1.2,0.1c-2.2,10-7.6,15.4-17.6,17.6c0,0.4-0.1,0.8-0.1,1.2c0,0.4,0,0.8,0.1,1.2c10,2.2,15.4,7.6,17.6,17.6
		c0.4,0,0.8,0.1,1.2,0.1s0.8,0,1.2-0.1C1956,1111.1,1961.4,1105.7,1971.4,1103.5z"/>
	<path class="st0" d="M595.4,994.6c0-0.4,0.1-0.8,0.1-1.2c0-0.4,0-0.8-0.1-1.2c-10-2.2-15.4-7.6-17.6-17.6c-0.4,0-0.8-0.1-1.2-0.1
		c-0.4,0-0.8,0-1.2,0.1c-2.2,10-7.6,15.4-17.6,17.6c0,0.4-0.1,0.8-0.1,1.2c0,0.4,0,0.8,0.1,1.2c10,2.2,15.4,7.6,17.6,17.6
		c0.4,0,0.8,0.1,1.2,0.1c0.4,0,0.8,0,1.2-0.1C580,1002.2,585.4,996.8,595.4,994.6z"/>
	<path class="st0" d="M953.7,1053.4c0-0.4,0.1-0.8,0.1-1.2s0-0.8-0.1-1.2c-10-2.2-15.4-7.6-17.6-17.6c-0.4,0-0.8-0.1-1.2-0.1
		c-0.4,0-0.8,0-1.2,0.1c-2.2,10-7.6,15.4-17.6,17.6c0,0.4-0.1,0.8-0.1,1.2s0,0.8,0.1,1.2c10,2.2,15.4,7.6,17.6,17.6
		c0.4,0,0.8,0.1,1.2,0.1c0.4,0,0.8,0,1.2-0.1C938.3,1061,943.7,1055.6,953.7,1053.4z"/>
	<g>
		<g>
			<path class="st0" d="M1580.7,1119.4h-12.4v-46.3h12.4V1119.4z M1580.7,1026.9h-12.4v-46.3h12.4V1026.9z M1580.7,934.4h-12.4
				v-46.3h12.4V934.4z M1580.7,841.9h-12.4v-46.3h12.4V841.9z M1580.7,749.4h-12.4v-46.3h12.4V749.4z M1580.7,656.9h-12.4v-46.3
				h12.4V656.9z M1580.7,564.4h-12.4v-46.3h12.4V564.4z"/>
		</g>
		<g>
			<rect x="1568.3" y="1165.7" class="st0" width="12.4" height="24.8"/>
		</g>
	</g>
	<g>
		<path class="st0" d="M1505.8,471.4H699.2c-1.1,0-2.1-0.9-2.1-2.1s0.9-2.1,2.1-2.1h806.6c1.1,0,2.1,0.9,2.1,2.1
			S1507,471.4,1505.8,471.4z"/>
	</g>
	<path class="st0" d="M2039.6,1104.4h-46.7c-1.1,0-2.1-0.9-2.1-2.1s0.9-2.1,2.1-2.1h42.6V471.4h-392.3c-1.1,0-2.1-0.9-2.1-2.1
		s0.9-2.1,2.1-2.1h396.5V1104.4z"/>
	<g>
		<path class="st0" d="M1913.3,1104.4h-270.1c-1.1,0-2.1-0.9-2.1-2.1s0.9-2.1,2.1-2.1h270.1c1.1,0,2.1,0.9,2.1,2.1
			S1914.4,1104.4,1913.3,1104.4z"/>
	</g>
	<g>
		<path class="st0" d="M1505.8,1104.4H305.2V786.7c0-1.1,0.9-2.1,2.1-2.1c1.1,0,2.1,0.9,2.1,2.1v313.6h1196.5c1.1,0,2.1,0.9,2.1,2.1
			S1507,1104.4,1505.8,1104.4z"/>
	</g>
	<g>
		<defs>
			<polygon id="SVGID_6_" points="230.4,383 230.4,1190.5 2153.2,1190.5 2100,1153.8 2153.2,1117 2100,1080.3 2153.2,1043.6 
				2100,1006.9 2153.2,970.2 2100,933.5 2153.2,896.8 2100,860.1 2153.2,823.3 2100,786.6 2153.2,749.9 2100,713.2 2153.2,676.5 
				2100,639.8 2153.2,603.1 2100,566.4 2153.2,529.7 2100,493 2153.2,456.3 2100,419.6 2153.2,383 			"/>
		</defs>
		<clipPath id="SVGID_3_">
			<use xlink:href="#SVGID_6_"  style="overflow:visible;"/>
		</clipPath>
		<g style="clip-path:url(#SVGID_3_);">
			<path class="st0" d="M440.5,343.5C221.1,203.5,9,143.6-33.2,209.7l112.1,71.5c25.8-40.5,177.2,9.9,338.1,112.5
				s270.3,218.7,244.5,259.2l100,63.8C803.6,650.6,659.9,483.5,440.5,343.5z"/>
			<linearGradient id="SVGID_4_" gradientUnits="userSpaceOnUse" x1="81.5968" y1="473.3941" x2="633.6495" y2="473.3941">
				<stop  offset="0" style="stop-color:#871FFF"/>
				<stop  offset="0.2203" style="stop-color:#AE4ADA"/>
				<stop  offset="0.4565" style="stop-color:#D172B8"/>
				<stop  offset="0.6733" style="stop-color:#EA8EA0"/>
				<stop  offset="0.8615" style="stop-color:#FAA091"/>
				<stop  offset="1" style="stop-color:#FFA68C"/>
			</linearGradient>
			<circle class="st20" cx="357.6" cy="473.4" r="276"/>
			<linearGradient id="SVGID_5_" gradientUnits="userSpaceOnUse" x1="-40.4981" y1="476.6053" x2="761.4603" y2="476.6053">
				<stop  offset="0.2349" style="stop-color:#871FFF"/>
				<stop  offset="0.305" style="stop-color:#A95FFF"/>
				<stop  offset="0.4045" style="stop-color:#D7B4FF"/>
				<stop  offset="0.4749" style="stop-color:#F4EAFF"/>
				<stop  offset="0.509" style="stop-color:#FFFFFF"/>
			</linearGradient>
			<path class="st21" d="M323.4,540.3C162.5,437.7,53.1,321.7,78.9,281.2l-112.1-71.5c-42.2,66.1,101.5,233.2,321,373.2
				c219.4,140,431.5,199.9,473.7,133.8l-100-63.8C635.6,693.3,484.3,643,323.4,540.3z"/>
		</g>
	</g>
	<g>
		<g>
			<g>
				<path class="st0" d="M1081.1,764.2c-0.8-0.2-1.5-0.3-2.3-0.5c-5-0.9-9.7-2.7-14-5.4c-2.4-1.5-4.6-3.3-6.6-5.4
					c-13-13-26.1-26.1-39.1-39.1c-0.4-0.4-0.8-0.7-1-1.4c0.2,0.1,0.3,0.2,0.5,0.3c2.7,2.4,5.7,4.4,9,6c3.4,1.6,7,2.8,10.8,3.3
					c2.4,0.3,4.8,0.5,7.2,0.5c120.3,0,240.6,0,360.9,0c4.3,0,8.5-0.6,12.6-1.9c2.4-0.8,4.7-1.7,6.9-3c1.6-0.9,3.1-1.9,4.5-3
					c3.8-2.9,6.9-6.4,9.4-10.4c2.3-3.8,3.9-7.9,4.8-12.3c0.5-2.4,0.7-4.8,0.7-7.2c0-28.4,0-56.8,0-85.2c0-3.5,0-7,0-10.5
					c0-2.8-0.3-5.5-0.9-8.2c-0.8-3.6-2.2-7-4-10.3c-1.2-2.1-2.6-4.1-4.2-5.9c-0.1-0.1-0.1-0.2-0.2-0.4c0.2,0.1,0.3,0.1,0.4,0.2
					c0.3,0.3,0.6,0.6,0.9,0.9c12.9,12.9,25.9,25.9,38.8,38.8c2.4,2.4,4.4,5.2,6.1,8.2c2.1,3.7,3.4,7.6,4.2,11.7
					c0.1,0.5,0.1,1,0.2,1.6c0.1,0.4,0.2,0.9,0.2,1.3c0,28.3,0,56.6,0,84.8c-0.1,0.4-0.2,0.8-0.2,1.1c0,1.4-0.2,2.7-0.5,4
					c-0.8,4.3-1.9,8.5-3.7,12.5c-1.3,2.9-2.7,5.8-4.5,8.5c-1.6,2.4-3.4,4.7-5.2,6.9c-1.9,2.3-4.1,4.3-6.4,6.2
					c-2,1.7-4.1,3.2-6.3,4.5c-2.7,1.7-5.5,3.1-8.4,4.3c-5.2,2.1-10.6,3.5-16.2,4c-0.3,0-0.5,0.1-0.8,0.2
					C1316.9,764.2,1199,764.2,1081.1,764.2z"/>
			</g>
		</g>
		<g>
			<defs>
				<rect id="SVGID_10_" x="1036.5" y="579.1" width="384.3" height="108.3"/>
			</defs>
			<clipPath id="SVGID_7_">
				<use xlink:href="#SVGID_10_"  style="overflow:visible;"/>
			</clipPath>
			<g class="st22">
				
					<image style="overflow:visible;" width="7128" height="3054" xlink:href="../../Logos/Voyagers_Logo_White Letters_Transparent.png"  transform="matrix(6.588186e-02 0 0 6.588186e-02 1016.1998 561.2991)">
				</image>
			</g>
		</g>
	</g>
	<path class="st5" d="M1545,758.4l-17.3-32.3l11.2-6c2.2-1.2,5-0.3,6.1,1.9l13,24.3c1.2,2.2,0.3,5-1.9,6.1L1545,758.4z"/>
	<g>
		<path class="st0" d="M1580.7,471.9v-20.6c-2,0.2-4.1,0.3-6.2,0.3c-2.1,0-4.2-0.1-6.2-0.3v20.6H1580.7z"/>
	</g>
</g>
</svg>
