<?xml version="1.0" standalone="no"?><!DOCTYPE svg PUBLIC "-//W3C//DTD SVG 1.1//EN" "http://www.w3.org/Graphics/SVG/1.1/DTD/svg11.dtd"><svg width="100%" height="100%" viewBox="0 0 284 65" version="1.1" xmlns="http://www.w3.org/2000/svg" xmlns:xlink="http://www.w3.org/1999/xlink" xml:space="preserve" style="fill-rule:evenodd;clip-rule:evenodd;stroke-linejoin:round;stroke-miterlimit:1.41421;"><g><path d="M0,36.6l34.4,0l-2,2.8l-32.4,0l0,-2.8Z" style="fill:#ffffff;fill-rule:nonzero;"/><path d="M283.5,39.4l-42.1,0l2.1,-2.8l40,0l0,2.8Z" style="fill:#ffffff;fill-rule:nonzero;"/><path d="M0,31.4l38.3,0l-2.1,2.8l-36.2,0l0,-2.8Z" style="fill:#ffffff;fill-rule:nonzero;"/><path d="M0,26.2l42.2,0l-2.1,2.8l-40.1,0l0,-2.8Z" style="fill:#ffffff;fill-rule:nonzero;"/><path d="M283.5,34.2l-38.2,0l2.1,-2.8l36.1,0l0,2.8Z" style="fill:#ffffff;fill-rule:nonzero;"/><path d="M251.3,26.2l32.2,0l0,2.8l-34.3,0l2.1,-2.8Z" style="fill:#ffffff;fill-rule:nonzero;"/><path d="M37.1,39.4l18.2,-24.3c0,0 20.2,0 22.6,0c2.5,0 2.5,0.9 1.2,2.6c-1.2,1.6 -3.3,4.5 -4.6,6.2c-0.6,0.9 -1.8,2.4 2,2.4c4.1,0 30.2,0 30.2,0c-2.5,3.4 -10.7,13.2 -25.3,13.2c-11.8,-0.1 -44.3,-0.1 -44.3,-0.1Z" style="fill:#ffffff;fill-rule:nonzero;"/><path d="M141.3,26.2l-9.9,13.2l-26,0l9.9,-13.2l26,0Z" style="fill:#ffffff;fill-rule:nonzero;"/><path d="M178.9,26.2l-9.9,13.2l-26,0l9.9,-13.2l26,0Z" style="fill:#ffffff;fill-rule:nonzero;"/><path d="M187.4,26.2c0,0 -1.9,2.6 -2.8,3.8c-3.3,4.3 -0.4,9.4 10.3,9.4c12.3,0 41.8,0 41.8,0l9.9,-13.2l-59.2,0Z" style="fill:#ffffff;fill-rule:nonzero;"/><path d="M49.9,0l-9.1,12.1c0,0 46.9,0 49.4,0c2.5,0 2.5,0.9 1.2,2.6c-1.2,1.6 -3.3,4.5 -4.6,6.2c-0.6,0.8 -1.8,2.4 2,2.4c4.1,0 20.2,0 20.2,0c0,0 3.3,-4.4 6,-8c3.7,-4.9 0.3,-15.2 -12.9,-15.2c-11.9,-0.1 -52.2,-0.1 -52.2,-0.1Z" style="fill:#ffffff;fill-rule:nonzero;"/><path d="M181.2,23.2l-63.7,0l17.4,-23.2l26,0l-9.9,13.3l11.6,0l10,-13.3l26,0l-17.4,23.2Z" style="fill:#ffffff;fill-rule:nonzero;"/><path d="M234.6,0l-17.4,23.2l-27.6,0l17.4,-23.2l27.6,0Z" style="fill:#ffffff;fill-rule:nonzero;"/></g></svg>