<svg width="102" height="56" viewBox="0 0 102 56" fill="none" xmlns="http://www.w3.org/2000/svg">
<mask id="mask0" mask-type="alpha" maskUnits="userSpaceOnUse" x="0" y="0" width="102" height="56">
<rect opacity="0.9" width="102" height="56" fill="#C4C4C4"/>
</mask>
<g mask="url(#mask0)">
<path d="M92.7754 25.8239C92.7754 24.0838 93.687 23.1776 95.3679 23.1776H98.4608C100.338 23.1776 101.803 24.5986 101.803 26.427C101.803 27.4214 101.392 28.2383 100.713 28.7531L101.643 30.2273C101.894 30.6176 102 31.0441 102 31.4877C102 32.8012 100.963 33.8319 99.6583 33.8319C98.8539 33.8319 98.0677 33.4234 97.6204 32.6778L97.3696 32.2343C97.0658 33.1756 96.2253 33.8329 95.1533 33.8329C93.8485 33.8329 92.7754 32.7321 92.7754 31.4004V25.8239V25.8239ZM92.0656 31.7908C92.0656 32.9363 91.1487 33.8499 90.0384 33.8319H86.3366C84.6441 33.8319 83.7282 32.9363 83.7282 31.1813V25.8282C83.7282 24.0913 84.6451 23.1776 86.3366 23.1776H90.0384C91.1487 23.1776 92.0656 24.0913 92.0656 25.2368C92.0656 26.2749 91.4313 27.0279 90.5144 27.2066C90.9373 27.4757 91.1668 27.9224 91.1668 28.5138C91.1668 29.1052 90.9203 29.5519 90.5144 29.821C91.4143 29.9997 92.0656 30.7697 92.0656 31.7908ZM80.8552 31.4345C80.8552 32.748 79.7555 33.8319 78.2829 33.8319C76.8995 33.8319 75.7818 32.7491 75.7818 31.4345V27.7586C74.5928 27.6874 73.6174 26.711 73.6174 25.4676C73.6174 24.171 74.6459 23.1766 75.9061 23.1766H80.7309C81.9899 23.1766 83.0195 24.1891 83.0195 25.4676C83.0195 26.711 82.0441 27.7054 80.8552 27.7586V31.4345V31.4345ZM64.2154 25.8239C64.2154 24.0838 65.1451 23.1776 66.8079 23.1776H69.9008C71.7783 23.1776 73.2434 24.5986 73.2434 26.427C73.2434 27.4214 72.8323 28.2383 72.1533 28.7531L73.083 30.2273C73.3338 30.6176 73.4411 31.0441 73.4411 31.4877C73.4411 32.8012 72.4041 33.8319 71.0993 33.8319C70.295 33.8319 69.5088 33.4234 69.0614 32.6778L68.8107 32.2343C68.5068 33.1756 67.6664 33.8329 66.5943 33.8329C65.2896 33.8329 64.2164 32.7321 64.2164 31.4004V25.8239H64.2154ZM58.3472 31.8025C57.7416 33.0554 56.8873 33.6542 55.8556 33.6542C53.9867 33.6542 52.6341 31.9429 53.4703 30.0199L55.6601 24.939C56.2116 23.6882 57.0127 23 58.3653 23C59.7359 23 60.537 23.6882 61.0704 24.94L63.2602 30.0209C64.0794 31.9439 62.7438 33.6553 60.8568 33.6553C59.8071 33.6542 58.9528 33.0554 58.3472 31.8025ZM52.1135 31.4345C52.1135 32.748 50.9936 33.8319 49.5539 33.8319C48.1674 33.8319 47.0475 32.7491 47.0475 31.4345V27.7586C45.8564 27.6874 44.8789 26.711 44.8789 25.4676C44.8789 24.171 45.9096 23.1766 47.1718 23.1766H51.9881C53.2504 23.1766 54.281 24.1891 54.281 25.4676C54.281 26.711 53.3035 27.7054 52.1124 27.7586V31.4345H52.1135ZM44.88 30.3762C44.88 32.496 43.2448 33.8329 40.4897 33.8329C37.6816 33.8329 36.3662 32.8704 36.3662 31.3026C36.3662 30.2156 37.2013 29.521 38.3924 29.521H38.4104L37.7708 28.9328C36.9707 28.2021 36.4193 27.4714 36.4193 26.4025C36.4182 24.3189 37.9472 23 40.5599 23C43.2268 23 44.4879 23.9445 44.4879 25.5303C44.4879 26.4748 43.8483 27.1162 42.8878 27.2587L43.5455 27.8469C44.3466 28.5585 44.88 29.3072 44.88 30.3762ZM35.8328 31.2696C35.8328 32.5768 34.7406 33.6723 33.3976 33.6553C32.6453 33.6553 31.8761 33.3022 31.4096 32.63L30.9081 31.9237C30.6754 32.9491 29.7798 33.6553 28.6344 33.6553C27.3094 33.6553 26.2533 32.5949 26.2533 31.2877V25.3676C26.2544 24.0604 27.2924 23 28.6354 23C29.7989 23 30.7126 23.7594 30.9272 24.8018L31.4819 24.0243C31.9472 23.3882 32.6995 23.017 33.4518 23.017C34.7406 23.017 35.8328 24.0243 35.8328 25.3314C35.8328 25.826 35.6894 26.3206 35.3855 26.7269L34.2391 28.2989L35.3855 29.871C35.6894 30.2975 35.8328 30.774 35.8328 31.2696ZM25.3672 30.7261C25.3672 32.4375 23.9392 33.6542 21.6463 33.6542C18.5778 33.6542 16.32 31.3792 16.32 28.3266C16.32 25.2751 18.5778 23 21.6463 23C23.9392 23 25.3672 24.2168 25.3672 25.9281C25.3672 27.0747 24.803 27.8512 23.6746 28.3276C24.803 28.8031 25.3672 29.5976 25.3672 30.7261ZM12.8701 23C14.3044 23 15.4509 24.1678 15.4328 25.5484V31.1058C15.4328 32.4864 14.3034 33.6542 12.852 33.6542C11.4357 33.6542 10.2892 32.5034 10.2892 31.1058V25.5484C10.2882 24.1678 11.4357 23 12.8701 23ZM9.5795 31.2696C9.5795 32.5768 8.48938 33.6723 7.1315 33.6553C6.38138 33.6553 5.61213 33.3022 5.14781 32.63L4.64738 31.9237C4.41469 32.9491 3.52113 33.6553 2.37787 33.6553C1.054 33.6542 0 32.5938 0 31.2866V25.3676C0 24.0604 1.037 23 2.37681 23C3.53813 23 4.44975 23.7594 4.66438 24.8018L5.236 24.0243C5.70031 23.3882 6.4515 23.017 7.20163 23.017C8.48831 23.017 9.57844 24.0243 9.57844 25.3314C9.57844 25.826 9.435 26.3206 9.13113 26.7269L7.98894 28.3011L9.13219 29.8731C9.43606 30.2975 9.5795 30.774 9.5795 31.2696Z" fill="white"/>
</g>
</svg>
